<svg width="88" height="82" viewBox="0 0 88 82" fill="none" xmlns="http://www.w3.org/2000/svg">
<path opacity="0.5" d="M48.4893 19.0657H16.9439C16.1836 19.0647 15.4547 18.7344 14.9171 18.1472C14.3794 17.56 14.077 16.7639 14.0762 15.9334V3.13222C14.077 2.30179 14.3795 1.50565 14.9171 0.918447C15.4547 0.331248 16.1836 0.00094435 16.9439 0H48.4893C49.2497 0.00094399 49.9786 0.331248 50.5162 0.918447C51.0538 1.50565 51.3562 2.30179 51.3571 3.13222V15.9334C51.3563 16.7639 51.0538 17.56 50.5162 18.1472C49.9786 18.7344 49.2497 19.0647 48.4893 19.0657Z" fill="white"/>
<path opacity="0.5" d="M48.4893 19.0657H16.9439C16.1836 19.0647 15.4547 18.7344 14.9171 18.1472C14.3794 17.56 14.077 16.7639 14.0762 15.9334V3.13222C14.077 2.30179 14.3795 1.50565 14.9171 0.918447C15.4547 0.331248 16.1836 0.00094435 16.9439 0H48.4893C49.2497 0.00094399 49.9786 0.331248 50.5162 0.918447C51.0538 1.50565 51.3562 2.30179 51.3571 3.13222V15.9334C51.3563 16.7639 51.0538 17.56 50.5162 18.1472C49.9786 18.7344 49.2497 19.0647 48.4893 19.0657ZM16.9439 0.272367C16.2497 0.273217 15.5842 0.574795 15.0933 1.11094C14.6024 1.64708 14.3263 2.374 14.3255 3.13222V15.9334C14.3263 16.6917 14.6025 17.4186 15.0933 17.9547C15.5842 18.4908 16.2497 18.7924 16.9439 18.7933H48.4893C49.1835 18.7924 49.8491 18.4908 50.34 17.9547C50.8308 17.4186 51.1069 16.6917 51.1077 15.9334V3.13222C51.107 2.374 50.8308 1.64708 50.34 1.11094C49.8491 0.574795 49.1835 0.273217 48.4893 0.272367H16.9439Z" fill="#3F3D56"/>
<path opacity="0.5" d="M60.4267 20.8066H43.6478C43.5419 20.8053 43.4365 20.7907 43.3337 20.7631C43.0267 20.6826 42.7536 20.4912 42.5585 20.2201C42.3635 19.949 42.2579 19.6139 42.2588 19.2691V13.04C42.2594 12.6326 42.4079 12.242 42.6718 11.954C42.9357 11.6661 43.2935 11.5042 43.6665 11.5039H60.4267C60.6526 11.5033 60.8753 11.5628 61.0754 11.6773C61.1551 11.7225 61.2304 11.7762 61.3003 11.8377C61.4673 11.9804 61.6022 12.1629 61.6948 12.3713C61.7874 12.5797 61.8351 12.8084 61.8344 13.04V19.2691C61.834 19.6767 61.6855 20.0675 61.4216 20.3558C61.1577 20.644 60.7999 20.8062 60.4267 20.8066Z" fill="white"/>
<path d="M59.3013 20.6711C60.0631 18.6488 60.8657 16.6464 61.7089 14.6641V18.0251C61.1339 18.9806 60.4686 19.8674 59.724 20.6711H59.3013Z" fill="#E6E6E6"/>
<path opacity="0.5" d="M61.2217 11.9465C59.7143 14.9003 58.137 17.8092 56.4899 20.6731H56.2031C57.8777 17.7642 59.4824 14.8068 61.0172 11.8008C61.0897 11.8418 61.1582 11.8906 61.2217 11.9465Z" fill="#E6E6E6"/>
<path opacity="0.5" d="M50.1603 15.1689C49.1752 17.0712 48.0881 18.9083 46.9048 20.6707H45.1953C46.315 19.1808 47.4355 17.691 48.5568 16.2011C48.8785 15.7722 49.2276 15.3228 49.7102 15.1484L50.1603 15.1689Z" fill="#E6E6E6"/>
<path opacity="0.5" d="M47.8891 14.8633C47.7108 15.0662 47.54 15.2773 47.3792 15.4965C47.0251 15.9623 46.6759 16.4321 46.3256 16.9006C46.1074 17.192 45.8892 17.4834 45.6735 17.7749C45.605 17.7268 45.54 17.6731 45.479 17.6142C45.1345 17.2875 44.9208 16.8265 44.8837 16.3299C44.8466 15.8333 44.9891 15.3406 45.2807 14.9573C45.5722 14.5741 45.9896 14.3308 46.4434 14.2796C46.8972 14.2284 47.3513 14.3734 47.7083 14.6835C47.7727 14.7383 47.8331 14.7984 47.8891 14.8633Z" fill="#1890FF"/>
<path opacity="0.5" d="M57.53 16.1886L54.2533 14.8799L52.6262 14.2303C52.0963 14.0192 51.5676 13.7781 51.0202 13.6256C50.5442 13.477 50.0387 13.4841 49.5664 13.646C49.1452 13.8163 48.7597 14.0775 48.433 14.4141C48.2884 14.5598 48.1483 14.7101 48.0128 14.8649C47.8345 15.0678 47.6637 15.2789 47.5028 15.4981C47.1487 15.9639 46.7996 16.4337 46.4492 16.9022C46.231 17.1936 46.0128 17.4851 45.7971 17.7765C45.0765 18.7393 44.3599 19.7044 43.6476 20.6717C43.5517 20.6705 43.4563 20.6573 43.3633 20.6322C44.1064 19.6245 44.8529 18.619 45.6026 17.6158C45.6887 17.4987 45.7772 17.3802 45.8645 17.2631C46.2298 16.7742 46.5955 16.2857 46.9617 15.7977C47.2447 15.4205 47.5253 15.0406 47.832 14.6851C47.8594 14.6524 47.8869 14.6211 47.9155 14.5884C48.5377 13.8857 49.3145 13.2647 50.2447 13.2484C50.792 13.2389 51.3207 13.4282 51.8294 13.6283C52.3768 13.8449 52.9229 14.0655 53.4703 14.2847L56.7695 15.603L57.5949 15.9326C57.7408 15.9898 57.6784 16.2485 57.53 16.1886Z" fill="#E6E6E6"/>
<path opacity="0.5" d="M60.4267 20.8066H43.6478C43.5419 20.8053 43.4365 20.7907 43.3337 20.7631C43.0267 20.6826 42.7536 20.4912 42.5585 20.2201C42.3635 19.949 42.2579 19.6139 42.2588 19.2691V13.04C42.2594 12.6326 42.4079 12.242 42.6718 11.954C42.9357 11.6661 43.2935 11.5042 43.6665 11.5039H60.4267C60.6526 11.5033 60.8753 11.5628 61.0754 11.6773C61.1551 11.7225 61.2304 11.7762 61.3003 11.8377C61.4673 11.9804 61.6022 12.1629 61.6948 12.3713C61.7874 12.5797 61.8351 12.8084 61.8344 13.04V19.2691C61.834 19.6767 61.6855 20.0675 61.4216 20.3558C61.1577 20.644 60.7999 20.8062 60.4267 20.8066ZM43.6665 11.7763C43.3596 11.7765 43.0652 11.9096 42.8481 12.1466C42.6309 12.3835 42.5087 12.7048 42.5082 13.04V19.2691C42.5074 19.5529 42.5943 19.8286 42.7549 20.0517C42.9154 20.2749 43.1402 20.4323 43.3928 20.4986C43.4768 20.5211 43.5629 20.533 43.6493 20.5342H60.4267C60.7338 20.5338 61.0282 20.4004 61.2454 20.1633C61.4625 19.9261 61.5847 19.6045 61.585 19.2691V13.04C61.5856 12.8494 61.5462 12.6612 61.47 12.4898C61.3937 12.3184 61.2826 12.1682 61.1452 12.0508C61.0878 12.0003 61.0259 11.9561 60.9605 11.919C60.7958 11.8248 60.6126 11.7757 60.4267 11.7763H43.6665Z" fill="#3F3D56"/>
<path opacity="0.5" d="M27.0567 26.7579H2.86776C2.10745 26.757 1.37852 26.4267 0.840892 25.8395C0.303267 25.2523 0.00085408 24.4562 0 23.6257V18.9955C0.00086429 18.1651 0.303281 17.3689 0.840904 16.7817C1.37853 16.1945 2.10745 15.8642 2.86776 15.8633H27.0567C27.817 15.8642 28.546 16.1945 29.0836 16.7817C29.6212 17.3689 29.9236 18.1651 29.9245 18.9955V23.6257C29.9236 24.4562 29.6212 25.2523 29.0836 25.8395C28.546 26.4267 27.8171 26.757 27.0567 26.7579Z" fill="white"/>
<path opacity="0.5" d="M27.0567 26.7579H2.86776C2.10745 26.757 1.37852 26.4267 0.840892 25.8395C0.303267 25.2523 0.00085408 24.4562 0 23.6257V18.9955C0.00086429 18.1651 0.303281 17.3689 0.840904 16.7817C1.37853 16.1945 2.10745 15.8642 2.86776 15.8633H27.0567C27.817 15.8642 28.546 16.1945 29.0836 16.7817C29.6212 17.3689 29.9236 18.1651 29.9245 18.9955V23.6257C29.9236 24.4562 29.6212 25.2523 29.0836 25.8395C28.546 26.4267 27.8171 26.757 27.0567 26.7579ZM2.86776 16.1356C2.17356 16.1365 1.50802 16.4381 1.01714 16.9742C0.526265 17.5104 0.250149 18.2373 0.249371 18.9955V23.6257C0.25016 24.3839 0.526279 25.1109 1.01715 25.647C1.50803 26.1831 2.17357 26.4847 2.86776 26.4856H27.0567C27.7509 26.4847 28.4165 26.1831 28.9073 25.647C29.3982 25.1109 29.6743 24.3839 29.6751 23.6257V18.9955C29.6744 18.2373 29.3982 17.5104 28.9074 16.9742C28.4165 16.4381 27.7509 16.1365 27.0567 16.1356H2.86776Z" fill="#3F3D56"/>
<path opacity="0.5" d="M9.97109 24.1547H6.08236C5.8745 24.1544 5.67521 24.0641 5.52823 23.9036C5.38125 23.7431 5.29857 23.5254 5.29834 23.2984V19.3251C5.29857 19.098 5.38125 18.8804 5.52823 18.7198C5.67521 18.5593 5.8745 18.469 6.08236 18.4688H9.97109C10.179 18.469 10.3782 18.5593 10.5252 18.7198C10.6722 18.8804 10.7549 19.098 10.7551 19.3251V23.2984C10.7549 23.5254 10.6722 23.7431 10.5252 23.9036C10.3782 24.0641 10.179 24.1544 9.97109 24.1547Z" fill="#1890FF"/>
<path opacity="0.5" d="M16.9057 24.1547H13.0169C12.8091 24.1544 12.6098 24.0641 12.4628 23.9036C12.3158 23.7431 12.2331 23.5254 12.2329 23.2984V19.3251C12.2331 19.098 12.3158 18.8804 12.4628 18.7198C12.6098 18.5593 12.8091 18.469 13.0169 18.4688H16.9057C17.1135 18.469 17.3128 18.5593 17.4598 18.7198C17.6068 18.8804 17.6895 19.098 17.6897 19.3251V23.2984C17.6894 23.5254 17.6068 23.7431 17.4598 23.9036C17.3128 24.0641 17.1135 24.1544 16.9057 24.1547Z" fill="#E6E6E6"/>
<path opacity="0.5" d="M23.8432 24.1547H19.9544C19.7466 24.1544 19.5473 24.0641 19.4003 23.9036C19.2533 23.7431 19.1706 23.5254 19.1704 23.2984V19.3251C19.1706 19.098 19.2533 18.8804 19.4003 18.7198C19.5473 18.5593 19.7466 18.469 19.9544 18.4688H23.8432C24.051 18.469 24.2503 18.5593 24.3973 18.7198C24.5443 18.8804 24.627 19.098 24.6272 19.3251V23.2984C24.6269 23.5254 24.5443 23.7431 24.3973 23.9036C24.2503 24.0641 24.051 24.1544 23.8432 24.1547Z" fill="#E6E6E6"/>
<path opacity="0.5" d="M34.2557 7.55626H29.2683C29.136 7.55626 29.0091 7.49887 28.9156 7.39671C28.8221 7.29456 28.7695 7.156 28.7695 7.01153C28.7695 6.86706 28.8221 6.7285 28.9156 6.62635C29.0091 6.52419 29.136 6.4668 29.2683 6.4668H34.2557C34.388 6.4668 34.5148 6.52419 34.6084 6.62635C34.7019 6.7285 34.7544 6.86706 34.7544 7.01153C34.7544 7.156 34.7019 7.29456 34.6084 7.39671C34.5148 7.49887 34.388 7.55626 34.2557 7.55626Z" fill="#CCCCCC"/>
<path opacity="0.5" d="M44.9773 10.5504H29.1423C29.01 10.5504 28.8832 10.493 28.7896 10.3909C28.6961 10.2887 28.6436 10.1501 28.6436 10.0057C28.6436 9.8612 28.6961 9.72264 28.7896 9.62049C28.8832 9.51833 29.01 9.46094 29.1423 9.46094H44.9773C45.1096 9.46094 45.2365 9.51833 45.33 9.62049C45.4235 9.72264 45.4761 9.8612 45.4761 10.0057C45.4761 10.1501 45.4235 10.2887 45.33 10.3909C45.2365 10.493 45.1096 10.5504 44.9773 10.5504Z" fill="#CCCCCC"/>
<path opacity="0.5" d="M23.3439 12.1639C25.1907 12.1639 26.6878 10.5288 26.6878 8.51166C26.6878 6.49456 25.1907 4.85938 23.3439 4.85938C21.4971 4.85938 20 6.49456 20 8.51166C20 10.5288 21.4971 12.1639 23.3439 12.1639Z" fill="#1890FF"/>
<path opacity="0.5" d="M59.8995 42.9055H28.3541C27.5938 42.9046 26.8648 42.5743 26.3272 41.9871C25.7896 41.3999 25.4872 40.6037 25.4863 39.7733V26.9721C25.4872 26.1416 25.7896 25.3455 26.3272 24.7583C26.8649 24.1711 27.5938 23.8408 28.3541 23.8398H59.8995C60.6598 23.8408 61.3887 24.1711 61.9264 24.7583C62.464 25.3455 62.7664 26.1416 62.7673 26.9721V39.7733C62.7664 40.6037 62.464 41.3999 61.9264 41.9871C61.3887 42.5743 60.6598 42.9046 59.8995 42.9055Z" fill="white"/>
<path opacity="0.5" d="M59.7242 42.6907H28.1788C27.4185 42.6897 26.6896 42.3594 26.1519 41.7722C25.6143 41.185 25.3119 40.3889 25.311 39.5584V26.7572C25.3119 25.9268 25.6143 25.1306 26.1519 24.5434C26.6896 23.9562 27.4185 23.6259 28.1788 23.625H59.7242C60.4845 23.6259 61.2134 23.9562 61.7511 24.5434C62.2887 25.1306 62.5911 25.9268 62.592 26.7572V39.5584C62.5911 40.3889 62.2887 41.185 61.7511 41.7722C61.2135 42.3594 60.4845 42.6897 59.7242 42.6907ZM28.1788 23.8974C27.4846 23.8982 26.8191 24.1998 26.3282 24.7359C25.8373 25.2721 25.5612 25.999 25.5604 26.7572V39.5584C25.5612 40.3167 25.8373 41.0436 26.3282 41.5797C26.8191 42.1158 27.4846 42.4174 28.1788 42.4183H59.7242C60.4184 42.4174 61.0839 42.1158 61.5748 41.5797C62.0657 41.0436 62.3418 40.3167 62.3426 39.5584V26.7572C62.3418 25.999 62.0657 25.2721 61.5748 24.7359C61.084 24.1998 60.4184 23.8982 59.7242 23.8974H28.1788Z" fill="#3F3D56" fill-opacity="0.8"/>
<path opacity="0.5" d="M40.4657 28.6991H35.167C35.1004 28.6992 35.0346 28.685 34.9731 28.6573C34.9116 28.6295 34.8557 28.5889 34.8086 28.5375C34.7616 28.4862 34.7242 28.4252 34.6988 28.3581C34.6733 28.291 34.6602 28.2191 34.6602 28.1464C34.6602 28.0738 34.6733 28.0018 34.6988 27.9347C34.7242 27.8676 34.7616 27.8066 34.8086 27.7553C34.8557 27.704 34.9116 27.6633 34.9731 27.6356C35.0346 27.6078 35.1004 27.5936 35.167 27.5938H40.4657C40.5997 27.594 40.7282 27.6523 40.823 27.7559C40.9177 27.8595 40.9709 28 40.9709 28.1464C40.9709 28.2928 40.9177 28.4333 40.823 28.5369C40.7282 28.6405 40.5997 28.6989 40.4657 28.6991Z" fill="#1890FF"/>
<path opacity="0.5" d="M52.3428 30.9569H35.1662C35.032 30.9569 34.9033 30.8987 34.8084 30.795C34.7135 30.6914 34.6602 30.5508 34.6602 30.4042C34.6602 30.2577 34.7135 30.1171 34.8084 30.0134C34.9033 29.9098 35.032 29.8516 35.1662 29.8516H52.3428C52.477 29.8516 52.6057 29.9098 52.7006 30.0134C52.7955 30.1171 52.8488 30.2577 52.8488 30.4042C52.8488 30.5508 52.7955 30.6914 52.7006 30.795C52.6057 30.8987 52.477 30.9569 52.3428 30.9569Z" fill="#E6E6E6"/>
<path opacity="0.5" d="M52.3428 33.5526H35.1662C35.0997 33.5526 35.0339 33.5383 34.9725 33.5105C34.9111 33.4828 34.8553 33.442 34.8084 33.3907C34.7614 33.3394 34.7241 33.2785 34.6987 33.2114C34.6732 33.1444 34.6602 33.0725 34.6602 32.9999C34.6602 32.9274 34.6732 32.8555 34.6987 32.7884C34.7241 32.7214 34.7614 32.6605 34.8084 32.6091C34.8553 32.5578 34.9111 32.5171 34.9725 32.4893C35.0339 32.4616 35.0997 32.4473 35.1662 32.4473H52.3428C52.477 32.4473 52.6057 32.5055 52.7006 32.6091C52.7955 32.7128 52.8488 32.8534 52.8488 32.9999C52.8488 33.1465 52.7955 33.2871 52.7006 33.3907C52.6057 33.4944 52.477 33.5526 52.3428 33.5526Z" fill="#E6E6E6"/>
<path opacity="0.5" d="M52.3436 36.1483H35.167C35.1004 36.1484 35.0346 36.1342 34.9731 36.1065C34.9116 36.0788 34.8557 36.0381 34.8086 35.9867C34.7616 35.9354 34.7242 35.8744 34.6988 35.8073C34.6733 35.7402 34.6602 35.6683 34.6602 35.5956C34.6602 35.523 34.6733 35.451 34.6988 35.3839C34.7242 35.3168 34.7616 35.2559 34.8086 35.2045C34.8557 35.1532 34.9116 35.1125 34.9731 35.0848C35.0346 35.0571 35.1004 35.0429 35.167 35.043H52.3436C52.4777 35.0432 52.6062 35.1015 52.7009 35.2051C52.7956 35.3088 52.8488 35.4492 52.8488 35.5956C52.8488 35.7421 52.7956 35.8825 52.7009 35.9861C52.6062 36.0897 52.4777 36.1481 52.3436 36.1483Z" fill="#E6E6E6"/>
<path opacity="0.5" d="M52.3428 38.742H35.1662C35.032 38.742 34.9033 38.6838 34.8084 38.5802C34.7135 38.4765 34.6602 38.336 34.6602 38.1894C34.6602 38.0428 34.7135 37.9022 34.8084 37.7986C34.9033 37.6949 35.032 37.6367 35.1662 37.6367H52.3428C52.477 37.6367 52.6057 37.6949 52.7006 37.7986C52.7955 37.9022 52.8488 38.0428 52.8488 38.1894C52.8488 38.336 52.7955 38.4765 52.7006 38.5802C52.6057 38.6838 52.477 38.742 52.3428 38.742Z" fill="#E6E6E6"/>
<path d="M74.6255 79.656L72.8941 79.6558L72.0703 72.3613L74.6259 72.3615L74.6255 79.656Z" fill="#FFB6B6"/>
<path d="M74.6863 81.6275L69.3618 81.6273V81.5538C69.3619 80.9535 69.5802 80.3777 69.9689 79.9533C70.3575 79.5288 70.8846 79.2903 71.4343 79.2903L72.407 78.4844L74.2216 79.2904L74.6864 79.2904L74.6863 81.6275Z" fill="#2F2E41"/>
<path d="M86.7603 76.1782L85.344 77.2658L80.8286 71.8164L82.9191 70.2109L86.7603 76.1782Z" fill="#FFB6B6"/>
<path d="M87.8505 77.7517L83.4949 81.0966L83.4562 81.0364C83.1401 80.5454 83.0155 79.9372 83.1099 79.3458C83.2043 78.7544 83.5098 78.2282 83.9594 77.8829L83.9595 77.8828L84.3307 76.6125L86.2396 76.1318L86.6198 75.8398L87.8505 77.7517Z" fill="#2F2E41"/>
<path d="M81.5228 43.3673L81.6667 43.703C82.6124 45.9096 82.8542 48.3763 82.4867 50.7794C82.4594 50.8731 82.4646 50.9746 82.5013 51.0645C82.7292 51.3565 82.3717 52.625 82.1667 53.3333L81.982 54.5858C81.982 54.5858 82.2883 55.7491 81.823 55.6636C81.3577 55.5781 82.0506 56.819 81.6067 57.1298L80.4554 64.9361L85.2589 73.583L83.4798 76.4005L76.3635 66.3934L76.2746 57.3578L75.2071 64.6446L75.1182 76.109L71.8816 75.7333L70.6958 64.6183L71.8269 49.2468L73.606 42.582L81.5228 43.3673Z" fill="#2F2E41"/>
<path d="M61.479 40.6963C61.6468 40.4916 61.8811 40.3666 62.1321 40.3478C62.383 40.329 62.6308 40.4178 62.8226 40.5955C62.8611 40.6323 62.8967 40.6725 62.9291 40.7157L66.101 39.4766L67.243 41.0132L62.7299 42.1976C62.5554 42.3305 62.3457 42.3966 62.1332 42.3855C61.9208 42.3745 61.7177 42.287 61.5556 42.1367C61.4641 42.0501 61.3891 41.9448 61.3349 41.8266C61.2807 41.7084 61.2484 41.5798 61.2397 41.4479C61.231 41.3161 61.2462 41.1837 61.2844 41.0583C61.3225 40.9328 61.383 40.8169 61.4622 40.7169C61.4677 40.71 61.4733 40.7031 61.479 40.6963Z" fill="#FFB6B6"/>
<path d="M79.2995 23.3555L76.6811 23.4917L75.429 25.8542L73.6499 26.4372L72.1377 30.5177L73.0652 43.2382C73.0652 43.2382 73.2512 44.0076 72.9088 43.8953C72.5665 43.783 72.706 44.7472 72.706 44.7472L71.4443 50.0474L82.9154 48.9579L82.2784 43.3424C82.2784 43.3424 83.164 43.3736 82.5413 42.6935C81.9187 42.0134 81.6158 42.2301 82.214 41.426C82.8122 40.622 82.9011 40.0391 82.9011 40.0391L83.168 36.0556L83.6079 30.4496C83.6777 29.5601 83.544 28.6655 83.2188 27.8464C82.8936 27.0273 82.387 26.3093 81.7447 25.7571L79.2995 23.3555Z" fill="#0060B8"/>
<path d="M85.4804 51.1225C85.6211 50.8947 85.6748 50.616 85.6301 50.3456C85.5854 50.0752 85.4459 49.8346 85.2413 49.6748C85.1992 49.6431 85.1548 49.6152 85.1086 49.5914L85.4328 45.9292L83.7893 45.0957L83.8417 50.165C83.7664 50.3822 83.759 50.6205 83.8208 50.8428C83.8825 51.065 84.0099 51.2587 84.183 51.3936C84.2822 51.4694 84.394 51.523 84.5122 51.5515C84.6304 51.58 84.7525 51.5828 84.8717 51.5598C84.9908 51.5367 85.1047 51.4882 85.2067 51.4171C85.3087 51.346 85.3969 51.2537 85.4662 51.1453C85.4711 51.1378 85.4758 51.1302 85.4804 51.1225Z" fill="#FFB6B6"/>
<path d="M83.0003 27.3438C83.0003 27.3438 86.7709 37.1541 86.657 40.9214L85.4102 47.8667L83.6646 47.7306L83.7892 41.4661C84.4262 40.7549 81.7605 36.738 80.8818 33.911L83.0003 27.3438Z" fill="#0060B8"/>
<path d="M73.8277 26.3379C73.8277 26.3379 69.1468 35.6472 67.3341 38.3853L65.958 39.5592V41.4657L69.1576 41.5429C69.1576 41.5429 73.9166 37.2194 73.7387 35.082C73.5608 32.9445 73.8277 26.3379 73.8277 26.3379Z" fill="#0060B8"/>
<path d="M77.9417 22.6989C79.7756 22.6989 81.2623 21.0751 81.2623 19.0721C81.2623 17.0691 79.7756 15.4453 77.9417 15.4453C76.1078 15.4453 74.6211 17.0691 74.6211 19.0721C74.6211 21.0751 76.1078 22.6989 77.9417 22.6989Z" fill="#FFB6B6"/>
<path d="M79.2249 22.3989C78.272 22.3648 78.1855 22.0899 77.2326 22.0558C76.9292 22.0449 76.5711 21.9995 76.4244 21.7092C76.32 21.5024 76.368 21.2421 76.46 21.0283C76.5687 20.8243 76.6667 20.6138 76.7535 20.3976C76.8058 20.2281 76.8196 20.0472 76.7935 19.8707C76.7675 19.6941 76.7024 19.527 76.604 19.3841C76.5056 19.2411 76.3769 19.1264 76.2288 19.05C76.0807 18.9735 75.9179 18.9376 75.7542 18.9453C75.4643 18.959 75.1919 19.1079 74.9028 19.1352C74.5062 19.1725 73.6292 17.7423 73.8118 17.356C73.9895 16.9799 74.3472 16.6962 74.4034 16.2775C74.4402 16.0036 74.3367 15.7315 74.3226 15.4552C74.3016 15.0454 75.2526 15.9693 75.0784 15.6057C74.6512 14.7136 78.6773 13.6077 79.3401 14.7251C79.5878 15.1427 80.0293 15.1142 80.4228 15.365C80.6807 15.5294 81.3319 16.0965 81.48 16.45C81.616 16.8106 81.6803 17.1988 81.6685 17.5887C81.6745 19.4018 81.4216 21.0697 80.0826 22.1415" fill="#2F2E41"/>
<path d="M63.7081 80.875C62.8077 80.9617 61.9009 80.8276 61.0541 80.4826C60.2072 80.1375 59.4415 79.5902 58.8131 78.8806C57.9913 77.9343 57.4274 76.7163 56.8821 75.5384C56.7233 75.1957 56.5592 74.8412 56.3923 74.5015C56.2062 74.1311 56.1258 73.7084 56.1616 73.2877C56.1975 72.8671 56.3478 72.4677 56.5932 72.1412C56.8285 71.8148 57.1478 71.5727 57.5101 71.4463C57.8724 71.3199 58.261 71.3149 58.626 71.4319L58.7056 71.457L59.4218 74.5094C59.5286 74.0541 59.758 73.0283 59.9028 72.0232L59.915 71.939L59.9863 71.9737C60.7341 72.3351 61.4373 72.798 62.0793 73.3513C63.2165 74.3476 64.1415 75.6025 64.7898 77.0286C65.4382 78.4548 65.7945 80.0181 65.8338 81.6098L65.8357 81.7048L63.7081 80.875Z" fill="#F2F2F2"/>
</svg>
