<svg width="241" height="131" viewBox="0 0 241 131" fill="none" xmlns="http://www.w3.org/2000/svg">
<path d="M186.564 114.424C188.63 114.553 189.771 111.987 188.208 110.491L188.053 109.872C188.073 109.823 188.094 109.774 188.115 109.724C190.204 104.742 197.284 104.777 199.356 109.766C201.195 114.194 203.535 118.63 204.112 123.312C204.37 125.379 204.254 127.484 203.795 129.512C208.103 120.102 210.37 109.826 210.37 99.4915C210.37 96.895 210.228 94.2985 209.938 91.7086C209.699 89.59 209.369 87.4844 208.943 85.3982C206.637 74.121 201.644 63.38 194.443 54.4086C190.981 52.5161 188.094 49.5579 186.35 46.0121C185.723 44.7331 185.233 43.3574 185 41.9559C185.394 42.0076 186.486 36.0072 186.188 35.6391C186.737 34.8059 187.72 34.3917 188.32 33.5787C191.302 29.5353 195.411 30.2413 197.556 35.736C202.138 38.0487 202.183 41.8841 199.371 45.5729C197.582 47.9197 197.336 51.0952 195.767 53.6076C195.928 53.8143 196.096 54.0146 196.258 54.2213C199.219 58.0192 201.78 62.1013 203.939 66.3899C203.329 61.6237 204.23 55.8817 205.765 52.1803C207.513 47.963 210.79 44.4112 213.676 40.7653C217.142 36.3861 224.249 38.2972 224.86 43.8486C224.866 43.9024 224.871 43.9561 224.877 44.0098C224.448 44.2516 224.029 44.5085 223.618 44.7797C221.279 46.327 222.087 49.9536 224.859 50.3815L224.922 50.3911C224.767 51.9348 224.502 53.4656 224.115 54.9705C227.817 69.2863 219.825 74.5004 208.413 74.7346C208.162 74.8638 207.916 74.9929 207.664 75.1157C208.82 78.3709 209.744 81.7102 210.429 85.0946C211.042 88.085 211.468 91.1078 211.707 94.1435C212.005 97.9736 211.979 101.823 211.656 105.647L211.675 105.511C212.495 101.3 214.782 97.3665 218.102 94.6408C223.047 90.5782 230.035 89.0822 235.37 85.8166C237.938 84.2446 241.229 86.276 240.781 89.2537L240.759 89.3963C239.965 89.7192 239.19 90.0938 238.441 90.5136C238.012 90.7555 237.592 91.0123 237.182 91.2835C234.843 92.8308 235.651 96.4574 238.423 96.8853L238.486 96.895C238.531 96.9014 238.57 96.9079 238.615 96.9144C237.252 100.15 235.353 103.154 232.976 105.744C230.662 118.241 220.72 119.426 210.086 115.787H210.08C208.917 120.851 207.218 125.798 205.035 130.513H187.015C186.951 130.313 186.892 130.106 186.834 129.906C188.501 130.01 190.18 129.913 191.821 129.609C190.484 127.969 189.147 126.315 187.81 124.675C187.777 124.642 187.751 124.61 187.726 124.578C187.047 123.738 186.363 122.905 185.685 122.065L185.684 122.064C185.642 119.487 185.951 116.917 186.564 114.424Z" fill="#F2F2F2"/>
<path d="M106.154 34H41.8462C40.2962 33.9983 38.8102 33.4093 37.7142 32.3621C36.6182 31.315 36.0017 29.8952 36 28.4143V5.58571C36.0018 4.10481 36.6183 2.68504 37.7142 1.63788C38.8102 0.590718 40.2962 0.00168407 41.8462 0H106.154C107.704 0.00168343 109.19 0.590718 110.286 1.63788C111.382 2.68504 111.998 4.10481 112 5.58571V28.4143C111.998 29.8952 111.382 31.315 110.286 32.3621C109.19 33.4093 107.704 33.9983 106.154 34Z" fill="white"/>
<path opacity="0.5" d="M106.154 34H41.8462C40.2962 33.9983 38.8102 33.4093 37.7142 32.3621C36.6182 31.315 36.0017 29.8952 36 28.4143V5.58571C36.0018 4.10481 36.6183 2.68504 37.7142 1.63788C38.8102 0.590718 40.2962 0.00168407 41.8462 0H106.154C107.704 0.00168343 109.19 0.590718 110.286 1.63788C111.382 2.68504 111.998 4.10481 112 5.58571V28.4143C111.998 29.8952 111.382 31.315 110.286 32.3621C109.19 33.4093 107.704 33.9983 106.154 34ZM41.8462 0.485714C40.431 0.487231 39.0742 1.02504 38.0735 1.98114C37.0728 2.93725 36.5099 4.23358 36.5084 5.58571V28.4143C36.51 29.7664 37.0729 31.0627 38.0735 32.0188C39.0742 32.9749 40.431 33.5127 41.8462 33.5143H106.154C107.569 33.5127 108.926 32.9749 109.926 32.0188C110.927 31.0627 111.49 29.7664 111.492 28.4143V5.58571C111.49 4.23358 110.927 2.93725 109.926 1.98114C108.926 1.02504 107.569 0.487231 106.154 0.485714H41.8462Z" fill="#3F3D56"/>
<path opacity="0.5" d="M129.1 36.9558H96.5843C96.3791 36.9538 96.1749 36.9321 95.9756 36.8911C95.3807 36.7713 94.8514 36.4866 94.4734 36.0832C94.0954 35.6799 93.8908 35.1813 93.8926 34.6683V25.4007C93.8937 24.7945 94.1816 24.2134 94.693 23.785C95.2044 23.3565 95.8976 23.1156 96.6206 23.1152H129.1C129.538 23.1143 129.969 23.2028 130.357 23.3733C130.511 23.4404 130.658 23.5203 130.793 23.6118C131.117 23.8242 131.378 24.0958 131.557 24.4058C131.737 24.7158 131.829 25.0561 131.828 25.4007V34.6683C131.827 35.2748 131.539 35.8562 131.028 36.2851C130.517 36.7139 129.823 36.9552 129.1 36.9558Z" fill="white"/>
<path d="M126.919 36.7537C128.396 33.7449 129.951 30.7658 131.585 27.8164V32.8169C130.471 34.2385 129.182 35.558 127.739 36.7537H126.919Z" fill="#E6E6E6"/>
<path opacity="0.5" d="M130.641 23.7734C127.72 28.1681 124.663 32.496 121.471 36.757H120.916C124.161 32.4291 127.27 28.029 130.245 23.5566C130.385 23.6177 130.518 23.6903 130.641 23.7734Z" fill="#E6E6E6"/>
<path opacity="0.5" d="M109.205 28.5675C107.296 31.3978 105.189 34.1311 102.896 36.7531H99.5835C101.753 34.5365 103.925 32.3199 106.098 30.1033C106.721 29.4651 107.398 28.7965 108.333 28.5371L109.205 28.5675Z" fill="#E6E6E6"/>
<path opacity="0.5" d="M104.804 28.1138C104.458 28.4157 104.127 28.7298 103.815 29.056C103.129 29.7489 102.453 30.4479 101.774 31.1449C101.351 31.5785 100.928 32.0121 100.51 32.4457C100.377 32.3742 100.251 32.2943 100.133 32.2066C99.4654 31.7207 99.0513 31.0348 98.9794 30.2959C98.9076 29.557 99.1838 28.824 99.7487 28.2538C100.314 27.6836 101.123 27.3216 102.002 27.2455C102.881 27.1693 103.761 27.385 104.453 27.8464C104.578 27.9279 104.695 28.0173 104.804 28.1138Z" fill="#1890FF"/>
<path opacity="0.5" d="M123.487 30.0859L117.137 28.1388L113.984 27.1723C112.957 26.8582 111.932 26.4996 110.871 26.2727C109.949 26.0516 108.969 26.0622 108.054 26.3031C107.238 26.5564 106.491 26.945 105.858 27.4458C105.577 27.6626 105.306 27.8862 105.043 28.1165C104.698 28.4184 104.367 28.7324 104.055 29.0586C103.369 29.7516 102.692 30.4506 102.013 31.1476C101.591 31.5812 101.168 32.0148 100.75 32.4484C99.3532 33.8809 97.9646 35.3167 96.5841 36.7559C96.3984 36.7541 96.2135 36.7344 96.0332 36.6972C97.4733 35.1978 98.9198 33.7019 100.373 32.2093C100.54 32.035 100.711 31.8588 100.88 31.6845C101.588 30.9571 102.297 30.2304 103.007 29.5044C103.555 28.9431 104.099 28.3779 104.693 27.849C104.746 27.8004 104.799 27.7538 104.855 27.7052C106.061 26.6597 107.566 25.7358 109.369 25.7115C110.429 25.6973 111.454 25.9789 112.44 26.2767C113.5 26.5989 114.559 26.9271 115.619 27.2533L122.013 29.2146L123.612 29.705C123.895 29.7901 123.774 30.175 123.487 30.0859Z" fill="#E6E6E6"/>
<path opacity="0.5" d="M129.1 36.9558H96.5843C96.3791 36.9538 96.1749 36.9321 95.9756 36.8911C95.3807 36.7713 94.8514 36.4866 94.4734 36.0832C94.0954 35.6799 93.8908 35.1813 93.8926 34.6683V25.4007C93.8937 24.7945 94.1816 24.2134 94.693 23.785C95.2044 23.3565 95.8976 23.1156 96.6206 23.1152H129.1C129.538 23.1143 129.969 23.2028 130.357 23.3733C130.511 23.4404 130.658 23.5203 130.793 23.6118C131.117 23.8242 131.378 24.0958 131.557 24.4058C131.737 24.7158 131.829 25.0561 131.828 25.4007V34.6683C131.827 35.2748 131.539 35.8562 131.028 36.2851C130.517 36.7139 129.823 36.9552 129.1 36.9558ZM96.6206 23.5205C96.0258 23.5208 95.4554 23.7189 95.0346 24.0714C94.6138 24.4239 94.3769 24.9019 94.3759 25.4007V34.6683C94.3744 35.0905 94.5428 35.5008 94.8539 35.8327C95.165 36.1647 95.6006 36.3989 96.0901 36.4976C96.2529 36.531 96.4197 36.5488 96.5873 36.5506H129.1C129.695 36.55 130.266 36.3515 130.686 35.9986C131.107 35.6458 131.344 35.1673 131.345 34.6683V25.4007C131.346 25.1171 131.269 24.8371 131.122 24.5821C130.974 24.327 130.759 24.1036 130.492 23.929C130.381 23.8538 130.261 23.7881 130.134 23.7329C129.815 23.5926 129.46 23.5197 129.1 23.5205H96.6206Z" fill="#3F3D56"/>
<path opacity="0.5" d="M63.2917 49H6.70833C4.92979 48.9984 3.22466 48.4223 1.96703 47.3983C0.709408 46.3742 0.00199788 44.9857 0 43.5375V35.4625C0.00202176 34.0143 0.70944 32.6258 1.96706 31.6017C3.22468 30.5777 4.92979 30.0016 6.70833 30H63.2917C65.0702 30.0016 66.7753 30.5777 68.0329 31.6017C69.2906 32.6258 69.998 34.0143 70 35.4625V43.5375C69.998 44.9857 69.2906 46.3742 68.033 47.3983C66.7753 48.4223 65.0702 48.9984 63.2917 49Z" fill="white"/>
<path opacity="0.5" d="M63.2917 49H6.70833C4.92979 48.9984 3.22466 48.4223 1.96703 47.3983C0.709408 46.3742 0.00199788 44.9857 0 43.5375V35.4625C0.00202176 34.0143 0.70944 32.6258 1.96706 31.6017C3.22468 30.5777 4.92979 30.0016 6.70833 30H63.2917C65.0702 30.0016 66.7753 30.5777 68.0329 31.6017C69.2906 32.6258 69.998 34.0143 70 35.4625V43.5375C69.998 44.9857 69.2906 46.3742 68.033 47.3983C66.7753 48.4223 65.0702 48.9984 63.2917 49ZM6.70833 30.475C5.08444 30.4765 3.52758 31.0024 2.37932 31.9374C1.23105 32.8725 0.585154 34.1402 0.583333 35.4625V43.5375C0.585178 44.8598 1.23108 46.1275 2.37934 47.0625C3.5276 47.9975 5.08445 48.5235 6.70833 48.525H63.2917C64.9156 48.5235 66.4724 47.9975 67.6207 47.0625C68.7689 46.1275 69.4148 44.8598 69.4167 43.5375V35.4625C69.4149 34.1402 68.769 32.8725 67.6207 31.9374C66.4724 31.0024 64.9156 30.4765 63.2917 30.475H6.70833Z" fill="#3F3D56"/>
<path opacity="0.5" d="M19.0553 42.4596H11.5193C11.1165 42.4592 10.7303 42.3248 10.4455 42.086C10.1607 41.8472 10.0004 41.5233 10 41.1855V35.274C10.0004 34.9363 10.1607 34.6124 10.4455 34.3736C10.7303 34.1347 11.1165 34.0004 11.5193 34H19.0553C19.4581 34.0004 19.8443 34.1347 20.1291 34.3736C20.4139 34.6124 20.5742 34.9363 20.5746 35.274V41.1855C20.5742 41.5233 20.4139 41.8472 20.1291 42.086C19.8443 42.3248 19.4581 42.4592 19.0553 42.4596Z" fill="#1890FF"/>
<path opacity="0.5" d="M44.7613 41.9381H37.2254C36.8226 41.9377 36.4364 41.8034 36.1516 41.5645C35.8667 41.3257 35.7065 41.0018 35.7061 40.664V34.7526C35.7065 34.4148 35.8667 34.0909 36.1516 33.8521C36.4364 33.6132 36.8226 33.4789 37.2254 33.4785H44.7613C45.1641 33.4789 45.5503 33.6132 45.8352 33.8521C46.12 34.0909 46.2802 34.4148 46.2807 34.7526V40.6641C46.2802 41.0018 46.12 41.3257 45.8352 41.5645C45.5503 41.8034 45.1641 41.9377 44.7613 41.9381Z" fill="#E6E6E6"/>
<path opacity="0.5" d="M58.2052 41.9381H50.6692C50.2664 41.9377 49.8802 41.8034 49.5954 41.5645C49.3106 41.3257 49.1504 41.0018 49.1499 40.664V34.7526C49.1504 34.4148 49.3106 34.0909 49.5954 33.8521C49.8802 33.6132 50.2664 33.4789 50.6692 33.4785H58.2052C58.608 33.4789 58.9942 33.6132 59.279 33.8521C59.5639 34.0909 59.7241 34.4148 59.7245 34.7526V40.6641C59.7241 41.0018 59.5638 41.3257 59.279 41.5645C58.9942 41.8034 58.608 41.9377 58.2052 41.9381Z" fill="#E6E6E6"/>
<path opacity="0.5" d="M71.6316 10.6209H61.9665C61.7102 10.6209 61.4643 10.5355 61.2831 10.3835C61.1018 10.2315 61 10.0254 61 9.81046C61 9.59551 61.1018 9.38937 61.2831 9.23738C61.4643 9.08539 61.7102 9 61.9665 9H71.6316C71.8879 9 72.1337 9.08539 72.315 9.23738C72.4962 9.38937 72.5981 9.59551 72.5981 9.81046C72.5981 10.0254 72.4962 10.2315 72.315 10.3835C72.1337 10.5355 71.8879 10.6209 71.6316 10.6209Z" fill="#CCCCCC"/>
<path opacity="0.5" d="M92.6531 16.6209H61.9665C61.7102 16.6209 61.4643 16.5355 61.2831 16.3835C61.1018 16.2315 61 16.0254 61 15.8105C61 15.5955 61.1018 15.3894 61.2831 15.2374C61.4643 15.0854 61.7102 15 61.9665 15H92.6531C92.9094 15 93.1552 15.0854 93.3365 15.2374C93.5177 15.3894 93.6196 15.5955 93.6196 15.8105C93.6196 16.0254 93.5177 16.2315 93.3365 16.3835C93.1552 16.5355 92.9094 16.6209 92.6531 16.6209Z" fill="#CCCCCC"/>
<path opacity="0.5" d="M49.4802 16.8678C53.059 16.8678 55.9603 14.4349 55.9603 11.4339C55.9603 8.43284 53.059 6 49.4802 6C45.9013 6 43 8.43284 43 11.4339C43 14.4349 45.9013 16.8678 49.4802 16.8678Z" fill="#1890FF"/>
<path opacity="0.5" d="M127.846 77H60.1538C58.5223 76.9982 56.9581 76.3746 55.8044 75.2658C54.6508 74.157 54.0018 72.6537 54 71.0857V46.9143C54.0019 45.3463 54.6508 43.843 55.8045 42.7342C56.9581 41.6255 58.5223 41.0018 60.1538 41H127.846C129.478 41.0018 131.042 41.6255 132.196 42.7342C133.349 43.843 133.998 45.3463 134 46.9143V71.0857C133.998 72.6537 133.349 74.157 132.196 75.2658C131.042 76.3746 129.478 76.9982 127.846 77Z" fill="white"/>
<path opacity="0.5" d="M127.846 77H60.1538C58.5223 76.9982 56.9581 76.3746 55.8044 75.2658C54.6508 74.157 54.0018 72.6537 54 71.0857V46.9143C54.0019 45.3463 54.6508 43.843 55.8045 42.7342C56.9581 41.6255 58.5223 41.0018 60.1538 41H127.846C129.478 41.0018 131.042 41.6255 132.196 42.7342C133.349 43.843 133.998 45.3463 134 46.9143V71.0857C133.998 72.6537 133.349 74.157 132.196 75.2658C131.042 76.3746 129.478 76.9982 127.846 77ZM60.1538 41.5143C58.6642 41.5159 57.236 42.0853 56.1826 43.0977C55.1293 44.11 54.5368 45.4826 54.5351 46.9143V71.0857C54.5368 72.5174 55.1293 73.89 56.1827 74.9023C57.236 75.9146 58.6642 76.4841 60.1538 76.4857H127.846C129.336 76.4841 130.764 75.9146 131.817 74.9023C132.871 73.89 133.463 72.5174 133.465 71.0857V46.9143C133.463 45.4826 132.871 44.11 131.817 43.0977C130.764 42.0853 129.336 41.5159 127.846 41.5143H60.1538Z" fill="#3F3D56" fill-opacity="0.8"/>
<path opacity="0.5" d="M79.2504 48.6445H68.9821C68.8532 48.6447 68.7255 48.6236 68.6064 48.5823C68.4872 48.5411 68.379 48.4805 68.2878 48.4041C68.1965 48.3278 68.1242 48.2371 68.0748 48.1372C68.0254 48.0374 68 47.9304 68 47.8223C68 47.7142 68.0254 47.6071 68.0748 47.5073C68.1242 47.4075 68.1965 47.3168 68.2878 47.2404C68.379 47.164 68.4872 47.1035 68.6064 47.0622C68.7255 47.021 68.8532 46.9998 68.9821 47H79.2504C79.5102 47.0003 79.7593 47.0871 79.9428 47.2413C80.1264 47.3955 80.2295 47.6044 80.2295 47.8223C80.2295 48.0401 80.1264 48.2491 79.9428 48.4032C79.7593 48.5574 79.5102 48.6442 79.2504 48.6445Z" fill="#1890FF"/>
<path opacity="0.5" d="M102.267 53.6445H68.9806C68.7205 53.6445 68.4711 53.5579 68.2872 53.4037C68.1033 53.2495 68 53.0403 68 52.8223C68 52.6042 68.1033 52.395 68.2872 52.2408C68.4711 52.0866 68.7205 52 68.9806 52H102.267C102.527 52 102.777 52.0866 102.96 52.2408C103.144 52.395 103.248 52.6042 103.248 52.8223C103.248 53.0403 103.144 53.2495 102.96 53.4037C102.777 53.5579 102.527 53.6445 102.267 53.6445Z" fill="#E6E6E6"/>
<path opacity="0.5" d="M102.267 57.6445H68.9806C68.8518 57.6445 68.7243 57.6232 68.6053 57.5819C68.4864 57.5406 68.3783 57.48 68.2872 57.4037C68.1961 57.3273 68.1239 57.2367 68.0746 57.1369C68.0254 57.0372 68 56.9302 68 56.8223C68 56.7143 68.0254 56.6074 68.0746 56.5076C68.1239 56.4078 68.1961 56.3172 68.2872 56.2408C68.3783 56.1645 68.4864 56.1039 68.6053 56.0626C68.7243 56.0213 68.8518 56 68.9806 56H102.267C102.527 56 102.777 56.0866 102.96 56.2408C103.144 56.395 103.248 56.6042 103.248 56.8223C103.248 57.0403 103.144 57.2495 102.96 57.4037C102.777 57.5579 102.527 57.6445 102.267 57.6445Z" fill="#E6E6E6"/>
<path opacity="0.5" d="M102.269 61.6445H68.9821C68.8532 61.6447 68.7255 61.6236 68.6064 61.5823C68.4872 61.5411 68.379 61.4805 68.2878 61.4041C68.1965 61.3278 68.1242 61.2371 68.0748 61.1372C68.0254 61.0374 68 60.9304 68 60.8223C68 60.7142 68.0254 60.6071 68.0748 60.5073C68.1242 60.4075 68.1965 60.3168 68.2878 60.2404C68.379 60.164 68.4872 60.1035 68.6064 60.0622C68.7255 60.021 68.8532 59.9998 68.9821 60H102.269C102.528 60.0003 102.777 60.0871 102.961 60.2413C103.145 60.3955 103.248 60.6044 103.248 60.8223C103.248 61.0401 103.145 61.2491 102.961 61.4032C102.777 61.5574 102.528 61.6442 102.269 61.6445Z" fill="#E6E6E6"/>
<path opacity="0.5" d="M102.267 65.6445H68.9806C68.7205 65.6445 68.4711 65.5579 68.2872 65.4037C68.1033 65.2495 68 65.0403 68 64.8223C68 64.6042 68.1033 64.395 68.2872 64.2408C68.4711 64.0866 68.7205 64 68.9806 64H102.267C102.527 64 102.777 64.0866 102.96 64.2408C103.144 64.395 103.248 64.6042 103.248 64.8223C103.248 65.0403 103.144 65.2495 102.96 65.4037C102.777 65.5579 102.527 65.6445 102.267 65.6445Z" fill="#E6E6E6"/>
<path d="M156.616 124.513L153.26 124.513L151.664 113.66L156.616 113.66L156.616 124.513Z" fill="#FFB6B6"/>
<path d="M156.734 127.446L146.416 127.446V127.336C146.416 126.443 146.839 125.586 147.592 124.955C148.345 124.323 149.367 123.969 150.432 123.969L152.317 122.77L155.833 123.969L156.734 123.969L156.734 127.446Z" fill="#2F2E41"/>
<path d="M180.132 119.339L177.387 120.957L168.637 112.85L172.688 110.461L180.132 119.339Z" fill="#FFB6B6"/>
<path d="M182.245 121.678L173.804 126.655L173.729 126.566C173.116 125.835 172.875 124.93 173.058 124.05C173.241 123.17 173.833 122.387 174.704 121.874L174.704 121.873L175.424 119.984L179.123 119.268L179.859 118.834L182.245 121.678Z" fill="#2F2E41"/>
<path d="M169.982 70.5219L170.261 71.0213C172.093 74.3043 172.562 77.9742 171.85 81.5495C171.797 81.6891 171.807 81.8401 171.878 81.9738C172.32 82.4082 171.627 84.2955 171.23 85.3493L170.872 87.2129C170.872 87.2129 171.465 88.9436 170.564 88.8164C169.662 88.6892 171.005 90.5353 170.145 90.9978L167.914 102.612L177.222 115.477L173.775 119.669L159.984 104.78L159.812 91.337L157.743 102.178L157.571 119.235L151.298 118.676L149 102.139L151.192 79.2694L154.64 69.3535L169.982 70.5219Z" fill="#2F2E41"/>
<path d="M131.139 66.5491C131.465 66.2446 131.919 66.0586 132.405 66.0306C132.891 66.0026 133.371 66.1348 133.743 66.3991C133.818 66.4538 133.887 66.5136 133.949 66.5779L140.096 64.7344L142.309 67.0207L133.563 68.7827C133.225 68.9804 132.819 69.0788 132.407 69.0624C131.995 69.046 131.602 68.9158 131.288 68.6921C131.11 68.5634 130.965 68.4066 130.86 68.2308C130.755 68.055 130.692 67.8635 130.675 67.6674C130.659 67.4712 130.688 67.2742 130.762 67.0876C130.836 66.901 130.953 66.7285 131.107 66.5798C131.117 66.5694 131.128 66.5592 131.139 66.5491Z" fill="#FFB6B6"/>
<path d="M165.674 40.748L160.599 40.9507L158.173 44.4657L154.725 45.333L151.795 51.4041L153.592 70.3297C153.592 70.3297 153.953 71.4744 153.289 71.3073C152.626 71.1402 152.896 72.5748 152.896 72.5748L150.451 80.4604L172.681 78.8395L171.446 70.4847C171.446 70.4847 173.163 70.5311 171.956 69.5193C170.749 68.5074 170.162 68.8297 171.322 67.6335C172.481 66.4373 172.653 65.57 172.653 65.57L173.17 59.6434L174.023 51.3027C174.158 49.9793 173.899 48.6483 173.269 47.4297C172.638 46.211 171.657 45.1428 170.412 44.3211L165.674 40.748Z" fill="#0060B8"/>
<path d="M177.652 82.0604C177.924 81.7215 178.028 81.3068 177.942 80.9046C177.855 80.5023 177.585 80.1443 177.188 79.9066C177.107 79.8594 177.021 79.8179 176.931 79.7825L177.559 74.3339L174.374 73.0938L174.476 80.6358C174.33 80.959 174.316 81.3136 174.435 81.6443C174.555 81.975 174.802 82.2632 175.137 82.4639C175.329 82.5765 175.546 82.6563 175.775 82.6987C176.004 82.7411 176.241 82.7453 176.472 82.711C176.703 82.6767 176.923 82.6046 177.121 82.4988C177.319 82.393 177.49 82.2556 177.624 82.0944C177.633 82.0832 177.643 82.0719 177.652 82.0604Z" fill="#FFB6B6"/>
<path d="M172.845 46.6816C172.845 46.6816 180.152 61.2775 179.931 66.8825L177.515 77.2158L174.132 77.0132L174.374 67.693C175.608 66.6348 170.443 60.6584 168.74 56.4524L172.845 46.6816Z" fill="#0060B8"/>
<path d="M155.07 45.1855C155.07 45.1855 145.999 59.036 142.486 63.1097L139.819 64.8562V67.6928L146.02 67.8076C146.02 67.8076 155.242 61.3751 154.898 58.195C154.553 55.0149 155.07 45.1855 155.07 45.1855Z" fill="#0060B8"/>
<path d="M163.042 39.7724C166.596 39.7724 169.477 37.3565 169.477 34.3764C169.477 31.3963 166.596 28.9805 163.042 28.9805C159.488 28.9805 156.607 31.3963 156.607 34.3764C156.607 37.3565 159.488 39.7724 163.042 39.7724Z" fill="#FFB6B6"/>
<path d="M165.529 39.3253C163.682 39.2745 163.515 38.8655 161.668 38.8147C161.08 38.7985 160.386 38.7309 160.102 38.299C159.9 37.9914 159.993 37.604 160.171 37.286C160.382 36.9826 160.572 36.6693 160.74 36.3477C160.841 36.0955 160.868 35.8264 160.817 35.5637C160.767 35.3009 160.641 35.0524 160.45 34.8397C160.259 34.6269 160.01 34.4563 159.723 34.3426C159.436 34.2289 159.12 34.1755 158.803 34.1869C158.241 34.2073 157.714 34.4289 157.153 34.4694C156.385 34.5249 154.685 32.3971 155.039 31.8223C155.383 31.2628 156.077 30.8407 156.186 30.2178C156.257 29.8103 156.056 29.4054 156.029 28.9943C155.988 28.3846 157.831 29.7593 157.494 29.2182C156.666 27.891 164.468 26.2456 165.752 27.908C166.232 28.5294 167.088 28.487 167.85 28.8601C168.35 29.1047 169.612 29.9485 169.899 30.4743C170.163 31.011 170.287 31.5884 170.265 32.1685C170.276 34.8662 169.786 37.3476 167.191 38.9422" fill="#2F2E41"/>
<path d="M135.459 126.327C133.714 126.456 131.957 126.257 130.316 125.743C128.675 125.23 127.191 124.416 125.973 123.36C124.381 121.952 123.288 120.14 122.231 118.387C121.923 117.877 121.605 117.35 121.282 116.845C120.921 116.294 120.766 115.665 120.835 115.039C120.904 114.413 121.196 113.819 121.671 113.333C122.127 112.847 122.746 112.487 123.448 112.299C124.15 112.111 124.903 112.104 125.611 112.278L125.765 112.315L127.153 116.856C127.36 116.179 127.804 114.653 128.085 113.157L128.108 113.032L128.247 113.084C129.696 113.622 131.059 114.31 132.303 115.133C134.507 116.616 136.299 118.483 137.555 120.605C138.812 122.726 139.502 125.052 139.579 127.42L139.582 127.562L135.459 126.327Z" fill="#F2F2F2"/>
</svg>
