<svg width="345" height="198" viewBox="0 0 345 198" fill="none" xmlns="http://www.w3.org/2000/svg">
<path d="M129.069 110.636C129.378 110.651 129.64 110.412 129.654 110.103C129.661 109.938 129.596 109.779 129.475 109.667L129.436 109.514L129.452 109.478C129.775 108.713 130.657 108.356 131.421 108.68C131.784 108.833 132.072 109.124 132.223 109.488C132.677 110.58 133.254 111.673 133.396 112.828C133.458 113.338 133.432 113.855 133.318 114.357C134.383 112.034 134.935 109.51 134.939 106.955C134.939 106.314 134.904 105.673 134.832 105.036C134.773 104.513 134.692 103.995 134.587 103.48C134.016 100.686 132.791 98.0673 131.012 95.8389C130.151 95.369 129.454 94.6465 129.016 93.7686C128.858 93.453 128.746 93.1162 128.684 92.7685C128.781 92.7812 128.879 92.7892 128.977 92.7956C129.007 92.7972 129.039 92.7988 129.069 92.8004L129.08 92.8009C129.386 92.8146 129.645 92.5778 129.659 92.2719C129.665 92.1363 129.621 92.0031 129.536 91.8977C129.494 91.8461 129.452 91.7945 129.41 91.7429C129.346 91.6633 129.281 91.5853 129.217 91.5056C129.21 91.4981 129.203 91.4901 129.196 91.4817C129.123 91.391 129.05 91.3018 128.977 91.211C129.11 91.0035 129.29 90.8296 129.502 90.703C130.236 90.273 131.249 90.5708 131.779 91.2349C132.283 91.9363 132.447 92.8255 132.227 93.6603C132.045 94.3663 131.745 95.0362 131.338 95.6414C131.378 95.6924 131.42 95.7417 131.459 95.7927C132.187 96.7285 132.821 97.7335 133.353 98.793C133.224 97.606 133.378 96.4052 133.804 95.2895C134.235 94.2496 135.043 93.3739 135.754 92.4749C136.28 91.8005 137.252 91.6798 137.927 92.2054C138.251 92.4576 138.461 92.828 138.512 93.2352L138.516 93.2749C138.41 93.3345 138.307 93.3978 138.205 93.4647C137.857 93.6976 137.763 94.1689 137.996 94.5175C138.114 94.6944 138.301 94.8135 138.511 94.8459L138.527 94.8483C138.489 95.2292 138.423 95.6066 138.328 95.9774C137.772 98.0699 136.369 99.836 134.457 100.851C134.394 100.882 134.334 100.914 134.272 100.944C134.806 102.459 135.141 104.036 135.269 105.636C135.341 106.58 135.337 107.529 135.256 108.472L135.261 108.439C135.465 107.39 136.024 106.443 136.845 105.759C138.065 104.757 139.787 104.388 141.103 103.583C141.508 103.323 142.047 103.44 142.307 103.845C142.418 104.019 142.464 104.226 142.437 104.43L142.432 104.466C142.236 104.545 142.045 104.637 141.86 104.741C141.754 104.801 141.651 104.864 141.55 104.931C141.201 105.164 141.107 105.635 141.34 105.984C141.459 106.161 141.646 106.28 141.856 106.312L141.871 106.314C141.882 106.316 141.892 106.318 141.903 106.319C141.568 107.119 141.098 107.856 140.513 108.496C139.052 110.063 137.011 110.959 134.869 110.973H134.867C134.58 112.223 134.163 113.44 133.624 114.604H129.18C129.165 114.554 129.15 114.503 129.136 114.454C129.547 114.48 129.96 114.455 130.365 114.381C130.036 113.976 129.706 113.568 129.376 113.164C129.369 113.156 129.362 113.148 129.356 113.14C129.188 112.933 129.02 112.728 128.852 112.521C128.843 111.886 128.916 111.252 129.069 110.636Z" fill="#F2F2F2"/>
<path d="M115.627 69.8719C115.627 72.3177 116.85 74.8065 119.296 74.8065C121.742 74.8065 125.117 73.0351 124.357 69.2392C123.878 66.8409 122.501 65.4434 120.055 65.4434C117.61 65.4433 115.627 67.4261 115.627 69.8719Z" fill="#2F2E41"/>
<path d="M125.887 104.819C125.383 104.261 125.428 103.4 125.986 102.896C126.046 102.843 126.11 102.794 126.178 102.752L125.107 98.0332L127.461 98.9186L128.117 103.264C128.473 103.931 128.222 104.76 127.555 105.116C126.997 105.415 126.307 105.292 125.887 104.819Z" fill="#FFB8B8"/>
<path d="M120.893 88.0924L122.535 88.2596C122.535 88.2596 122.106 90.6929 122.777 91.2409C123.449 91.789 123.178 91.7864 123.174 92.1926C123.216 92.7823 123.506 93.3266 123.973 93.6898C124.51 94.1012 125.628 101.428 125.628 101.428L128.066 101.451C127.993 100.821 127.999 100.184 128.084 99.5556C128.228 98.6091 128.959 96.225 128.692 95.8162C128.425 95.4074 128.565 94.6557 128.573 93.8433C128.581 93.0309 127.419 93.9286 127.432 92.5746C127.445 91.2206 125.954 82.7247 126.101 81.5074C126.248 80.2901 124.769 79.1927 124.769 79.1927L123.415 79.1797L120.893 88.0924Z" fill="#E6E6E6"/>
<path d="M103.453 76.668C103.298 77.3635 103.736 78.0528 104.432 78.2076C104.506 78.2241 104.582 78.234 104.657 78.2372L105.975 82.6283L107.503 80.8004L106.018 76.9109C106.001 76.1947 105.406 75.6279 104.69 75.6449C104.091 75.6591 103.579 76.0821 103.453 76.668Z" fill="#FFB8B8"/>
<path d="M117.366 78.0952C117.366 78.0952 114.181 76.9009 112.454 83.4416L110.161 85.816L108.235 82.3357L108.49 81.5101L107.001 78.1354L104.449 79.6001L105.077 81.917L104.971 83.0623L105.581 83.7747L106.58 87.4564L107.204 88.6593C107.204 88.6593 107.992 90.1994 109.367 90.4531C109.733 90.5218 110.108 90.5324 110.478 90.4847C111.357 90.3471 112.172 89.9402 112.811 89.32C114.511 87.8041 116.118 86.1879 117.625 84.48L117.366 78.0952Z" fill="#E6E6E6"/>
<path d="M121.641 89.0497L121.867 90.1235L122.058 94.0844L114.361 93.0421L113.77 88.4556L114.586 87.1133L121.641 89.0497Z" fill="#FFB8B8"/>
<path d="M119.141 74.7431C121.153 74.7431 122.784 73.1121 122.784 71.1001C122.784 69.0881 121.153 67.457 119.141 67.457C117.129 67.457 115.498 69.0881 115.498 71.1001C115.498 73.1121 117.129 74.7431 119.141 74.7431Z" fill="#FFB8B8"/>
<path d="M125.245 79.6202C124.644 78.2021 123.4 77.1578 121.899 76.8116L121.885 76.8088L121.164 75.8379L118.238 76.1314L117.703 77.2285L116.315 78.0541H116.312L116.309 78.0568L115.583 78.4902L113.172 81.3125L113.169 81.3152C112.453 81.7929 111.968 82.5456 111.828 83.3943C111.791 83.6366 111.779 83.8819 111.792 84.1266C111.872 85.6269 112.81 86.9626 112.938 87.1409L113.254 88.9155L113.317 89.2803L113.885 89.3626L121.883 90.5063L122.105 90.5392L122.171 90.5475L122.401 89.9523V89.9468L124.631 84.1129L125.632 81.51C125.635 80.8601 125.503 80.2167 125.245 79.6202Z" fill="#E6E6E6"/>
<path d="M122.956 72.0561C122.923 72.0509 122.89 72.0439 122.857 72.0387C122.289 71.9379 121.72 71.8388 121.154 71.7363L121.102 70.4521L120.415 71.6025C118.85 72.1221 117.385 71.8284 116.007 71.1802C115.552 70.9644 115.111 70.7213 114.686 70.4521C114.389 68.6431 115.137 67.2175 117.058 67.0356C117.118 67.0299 117.16 66.98 117.213 66.9539L117.214 66.9522C117.303 66.9105 117.393 66.8705 117.484 66.834C118.928 66.2696 120.568 66.5876 121.696 67.6507C122.836 68.8105 123.31 70.469 122.956 72.0561Z" fill="#2F2E41"/>
<path d="M126.544 101.436C126.383 100.36 126.118 99.3021 125.754 98.2767V98.274C125.449 97.4069 125.069 96.5681 124.619 95.7671C124.617 95.7671 124.616 95.7659 124.616 95.7645C123.967 94.557 123.121 93.4667 122.112 92.5388L122.005 92.4264H121.977L114.254 92.2371H114.174L114.086 92.2344C114.086 92.2344 114.054 92.3304 113.99 92.5114C113.988 92.5227 113.984 92.5338 113.979 92.5443C113.958 92.6156 113.93 92.6979 113.897 92.7884C113.878 92.8488 113.856 92.9119 113.834 92.9804C113.809 93.0545 113.782 93.1313 113.755 93.2136C113.541 93.8526 113.228 94.7797 112.844 95.9289C112.786 96.1045 112.726 96.2855 112.663 96.4747C111.198 100.882 108.842 108.085 106.785 114.912H114.081C114.789 112.866 115.54 109.947 115.54 109.947C115.834 109.599 115.817 108.653 115.817 108.653L118.11 106.245L119.761 114.912H126.69L126.742 105.265V105.183C126.796 103.931 126.73 102.676 126.544 101.436Z" fill="#CCCCCC"/>
<path d="M121.559 66.8597V66.8628C121.558 67.0535 121.582 67.2434 121.631 67.4278C121.639 67.4601 121.648 67.494 121.659 67.5263V67.5279C121.868 68.1955 122.378 68.7265 123.037 68.9628C123.084 68.9813 123.134 68.9967 123.183 69.0105C123.287 69.0406 123.393 69.0622 123.5 69.0752C123.596 69.0888 123.694 69.0955 123.791 69.0952C123.867 69.0955 123.943 69.0919 124.019 69.0844C124.196 69.0665 124.37 69.0267 124.538 68.9659C124.564 68.9583 124.59 68.949 124.615 68.9382C124.627 68.9337 124.64 68.9286 124.652 68.9228C125.79 68.4462 126.327 67.137 125.85 65.9986C125.836 65.9645 125.821 65.9308 125.805 65.8975L125.803 65.8959C125.694 65.6668 125.545 65.4584 125.364 65.2801C124.961 64.8783 124.783 63.8712 124.171 63.8712C124.141 63.8707 124.112 63.8717 124.083 63.8743C123.672 63.8882 122.912 64.7751 122.589 64.9845C122.348 65.1362 122.14 65.3334 121.976 65.5649C121.804 65.8031 121.682 66.0732 121.616 66.3594C121.578 66.5235 121.559 66.6913 121.559 66.8597Z" fill="#2F2E41"/>
<path d="M124.287 66.0829C124.634 66.4865 125.176 66.6434 125.666 66.8534C127.421 67.6231 128.682 69.2094 129.037 71.0921C129.172 71.8475 129.154 72.6295 129.368 73.3659C129.581 74.1023 130.107 74.8248 130.863 74.9525C131.374 75.0398 131.886 74.8425 132.367 74.6476C132.631 74.5413 132.896 74.4346 133.16 74.3275C132.884 73.6354 132.609 72.9433 132.334 72.2511C132.776 72.9043 133.29 73.5057 133.866 74.0441C134.814 73.6619 135.763 73.2798 136.712 72.8977C134.376 72.9066 134.775 70.6392 134.252 68.3642C133.965 67.1141 131.519 66.2676 131.04 65.0782C130.291 63.2135 128.172 62.3091 126.307 63.0581C125.504 63.3808 124.842 63.9796 124.44 64.7467C123.96 64.9378 123.946 65.6843 124.287 66.0829Z" fill="#2F2E41"/>
<path d="M114.363 92.7934C113.272 93.0779 112.39 93.8776 111.999 94.9351C111.861 95.2339 111.864 95.579 112.009 95.8749C112.122 96.0861 112.373 96.1815 112.598 96.0982C112.824 95.9767 113.003 95.785 113.111 95.5523C113.268 95.2535 113.403 94.9437 113.515 94.6252C113.698 94.1447 114.089 93.3425 113.531 92.9668C113.061 92.6508 112.44 92.7736 111.912 92.7519C111.341 92.7285 110.706 92.5099 110.504 91.9183C110.306 91.3429 110.769 90.8017 111.267 90.583C111.876 90.3307 112.57 90.3968 113.12 90.7594C113.655 91.1304 114.037 91.6833 114.195 92.3151C114.219 92.4172 114.157 92.5197 114.054 92.5441C113.957 92.5673 113.859 92.5114 113.829 92.416C113.689 91.8298 113.32 91.3242 112.804 91.0123C112.292 90.7167 111.655 90.7415 111.168 91.0762C110.912 91.2355 110.793 91.5454 110.877 91.835C111.005 92.0919 111.247 92.2733 111.53 92.3244C112.132 92.4701 112.762 92.2816 113.363 92.474C113.921 92.6172 114.278 93.1643 114.182 93.7332C114.12 94.0745 114.019 94.4077 113.881 94.7261C113.764 95.0536 113.627 95.3735 113.471 95.6843C113.232 96.1348 112.803 96.6224 112.235 96.4903C111.589 96.3397 111.436 95.5851 111.574 95.0301C111.949 93.7494 112.97 92.7606 114.262 92.4274C114.364 92.4031 114.467 92.4661 114.491 92.5681C114.514 92.6652 114.458 92.7636 114.363 92.7934Z" fill="#CCCCCC"/>
<path d="M142.902 115.184H97.92C96.8601 115.183 96.0012 114.324 96 113.264V52.0996C96.0012 51.0398 96.8601 50.1809 97.92 50.1797H142.902C143.962 50.1809 144.82 51.0398 144.822 52.0996V113.264C144.82 114.324 143.962 115.183 142.902 115.184ZM97.92 50.7282C97.1629 50.7291 96.5494 51.3426 96.5486 52.0996V113.264C96.5494 114.021 97.1629 114.634 97.92 114.635H142.902C143.659 114.634 144.272 114.021 144.273 113.264V52.0996C144.272 51.3426 143.659 50.7291 142.902 50.7282H97.92Z" fill="#3F3D56"/>
<path d="M174.841 86.6605H160.304C158.335 86.6605 156.738 85.0642 156.738 83.0949C156.738 81.1257 158.335 79.5293 160.304 79.5293H174.841C176.81 79.5293 178.406 81.1257 178.406 83.0949C178.406 85.0642 176.81 86.6605 174.841 86.6605Z" fill="#1677FF"/>
<path d="M125.172 81.6272L125.164 82.1758L153.255 82.5816L153.263 82.033L125.172 81.6272Z" fill="#3F3D56"/>
<path d="M123.992 83.3902C123.233 83.392 122.617 82.7783 122.615 82.0196C122.613 81.2608 123.227 80.6443 123.986 80.6426C124.745 80.6408 125.361 81.2545 125.363 82.0132C125.364 82.5393 125.065 83.0199 124.592 83.2508C124.405 83.3421 124.2 83.3898 123.992 83.3902ZM123.99 81.1948C123.536 81.1948 123.167 81.5634 123.167 82.0182C123.167 82.473 123.535 82.8417 123.99 82.8417C124.445 82.8417 124.814 82.4731 124.814 82.0183C124.814 81.8933 124.785 81.7699 124.731 81.6575C124.592 81.3747 124.305 81.1951 123.99 81.1948Z" fill="#3F3D56"/>
<path d="M125.172 109.877L125.164 110.426L153.255 110.832L153.263 110.283L125.172 109.877Z" fill="#3F3D56"/>
<path d="M123.994 111.638C123.237 111.639 122.622 111.025 122.621 110.268C122.62 109.51 123.234 108.895 123.991 108.895C124.516 108.894 124.996 109.193 125.226 109.665C125.557 110.347 125.274 111.168 124.592 111.5C124.406 111.59 124.201 111.638 123.994 111.638ZM123.992 109.443C123.538 109.443 123.169 109.811 123.169 110.266C123.169 110.721 123.537 111.09 123.992 111.09C124.447 111.09 124.816 110.721 124.816 110.266C124.816 110.141 124.787 110.018 124.733 109.906C124.594 109.623 124.307 109.443 123.992 109.443Z" fill="#3F3D56"/>
<path d="M174.841 114.912H160.304C158.335 114.912 156.738 113.316 156.738 111.347C156.738 109.378 158.335 107.781 160.304 107.781H174.841C176.81 107.781 178.406 109.378 178.406 111.347C178.406 113.316 176.81 114.912 174.841 114.912Z" fill="#1677FF"/>
<rect width="68.3288" height="89.6815" rx="1.70822" transform="matrix(-1 0 0 1 283.029 0)" fill="white" fill-opacity="0.55"/>
<path d="M234.938 75.6787C235.899 74.8951 236.041 73.484 235.253 72.5268C235.17 72.4247 235.077 72.3303 234.976 72.2445L240.062 59.0078L235.997 59.8649L231.682 72.5969C230.933 73.5929 231.138 75.0041 232.139 75.7489C232.976 76.3721 234.133 76.343 234.938 75.6787Z" fill="#FFB8B8"/>
<path d="M232.848 61.1818L237.412 42.273L239.376 36.7732C239.378 36.7711 239.379 36.7685 239.38 36.7655C239.699 35.8672 240.368 35.1341 241.235 34.7309C242.103 34.3172 243.102 34.2703 244.006 34.6008C244.083 34.6275 244.158 34.6581 244.232 34.6926C244.39 34.7643 244.543 34.8461 244.69 34.9374C245.537 35.469 246.125 36.326 246.315 37.3048L246.661 39.11L246.807 39.8788L241.416 58.6346V58.6423L239.541 65.1747L238.673 68.1885V68.1923L237.666 71.6995L237.643 71.7722L235.226 71.6115H235.222L234.857 71.5848L232.091 71.4012L231.691 71.3744L232.848 61.1818Z" fill="#2F2E41"/>
<path d="M251.376 29.6113L241.209 50.0785L234.777 71.8418C248.328 74.472 265.331 80.0986 266.555 72.029C265.801 49.5305 263.425 42.354 258.52 32.6004L251.376 29.6113Z" fill="#2F2E41"/>
<path d="M237.784 90.2602H246.133L249.518 78.8744L251.901 90.1149C251.908 90.1646 251.912 90.2105 251.92 90.2602H260.818C260.53 86.7416 260.004 80.6222 259.754 79.7541C259.401 78.5225 259.754 78.5225 260.461 77.8188C260.619 77.662 260.672 77.0348 260.657 76.1589C260.615 73.1413 259.789 67.1635 259.789 67.1635L258.809 65.3582L258.471 64.731L241.019 64.1191L240.869 64.1152L240.547 65.515L240.151 67.2399L239.456 70.2652L238.814 72.6785L238.779 72.8009V73.5161C238.889 73.7653 238.939 74.0362 238.925 74.3078C238.925 74.5526 238.372 82.1789 237.784 90.2602Z" fill="#2F2E41"/>
<path d="M252.568 32.6465L251.37 29.793L247.662 29.8578L243.795 35.3024L239.736 52.2923C239.736 52.2923 238.279 64.7034 239.736 65.3586C241.194 66.0138 258.846 65.6651 258.846 65.6651C258.028 58.9627 257.419 52.1444 256.777 48.0713C254.656 34.6096 253.654 37.4426 252.568 32.6465Z" fill="#1677FF"/>
<path d="M247.664 29.8574C247.664 29.8574 239.676 34.4539 239.363 36.8532C239.051 39.2526 238.005 68.6193 238.005 68.6193L240.83 66.8023L241.602 56.0992C241.063 46.5886 242.378 39.4996 245.049 34.1857L247.664 29.8574Z" fill="#2F2E41"/>
<path d="M244.173 23.9689C243.691 21.0146 245.707 18.231 248.675 17.7516C251.643 17.2722 254.439 19.2785 254.921 22.2328C255.403 25.1871 253.387 27.9707 250.419 28.4501C247.451 28.9295 244.655 26.9232 244.173 23.9689Z" fill="#FFB8B8"/>
<path d="M256.253 22.7803C256.01 23.8783 255.572 24.9241 254.959 25.8684C254.796 26.1903 254.553 26.4652 254.252 26.6666C253.939 26.867 253.526 26.8156 253.271 26.5445L253.139 26.4371C253.399 26.2778 253.63 26.0775 253.826 25.8439C254.021 25.6062 254.09 25.2889 254.009 24.992C253.912 24.6921 253.593 24.5228 253.288 24.6087C252.97 24.7332 252.776 25.1921 252.442 25.1214C252.173 25.0628 252.116 24.7088 252.116 24.4305C252.126 22.9756 251.42 20.9079 250.873 20.9714C250.32 21.0015 249.767 20.9278 249.242 20.7542C248.716 20.5802 248.161 20.5097 247.609 20.5466C247.569 20.5515 247.53 20.5589 247.489 20.5662C247.4 20.2898 247.278 20.025 247.126 19.7777C247.143 20.0762 247.128 20.3757 247.081 20.6711C246.642 20.8516 246.187 20.9945 245.723 21.0984C245.218 21.1692 244.107 22.6729 244.055 22.5191C243.966 22.2427 243.845 21.9779 243.692 21.7306C243.709 22.0291 243.695 22.3287 243.648 22.6241C243.646 22.6363 243.646 22.646 243.643 22.6582C243.398 22.3336 243.248 21.9381 243.332 22.2408C242.51 20.3904 242.829 19.0649 244.121 17.505C244.373 17.1696 244.707 16.9033 245.09 16.7311C245.481 16.5603 245.932 16.6048 246.282 16.8483C247.355 15.8687 248.878 15.5453 250.26 16.0037C251.606 16.4699 252.643 16.7433 252.849 18.1495C253.996 18.0247 255.113 18.5657 255.721 19.5409C256.301 20.5157 256.491 21.6723 256.253 22.7803Z" fill="#2F2E41"/>
<path d="M271.512 74.3402C271.974 73.192 271.414 71.8881 270.26 71.428C270.137 71.3789 270.01 71.3408 269.88 71.314L267.917 57.2773L264.773 59.9809L267.166 73.2053C266.993 74.4371 267.857 75.5748 269.094 75.7464C270.13 75.8899 271.129 75.3086 271.512 74.3402Z" fill="#FFB8B8"/>
<path d="M254.187 36.8723L254.337 35.5108C254.478 34.2533 255.271 33.1617 256.427 32.6347C256.866 32.432 257.342 32.3213 257.826 32.3096H257.829C259.285 32.2758 260.619 33.1138 261.214 34.4361L263.612 39.7714L269.663 58.2634L271.619 68.3221L269.506 68.6319L266.444 69.0794L266.421 69.0832L265.717 69.1864L255.893 43.0109L255.889 43.0032L254.052 38.1115L254.187 36.8723Z" fill="#2F2E41"/>
<path d="M217.388 90.5356H280.342C281.826 90.5339 283.028 89.3377 283.029 87.8616V2.67405C283.028 1.1979 281.826 0.00165409 280.342 0H217.388C215.904 0.00165409 214.702 1.1979 214.701 2.67405V87.8616C214.702 89.3377 215.904 90.5339 217.388 90.5356ZM280.342 0.764014C281.402 0.765248 282.26 1.61968 282.262 2.67405V87.8616C282.26 88.916 281.402 89.7704 280.342 89.7716H217.388C216.328 89.7704 215.469 88.916 215.468 87.8616V2.67405C215.469 1.61968 216.328 0.765248 217.388 0.764014H280.342Z" fill="#6E6C82"/>
<path d="M318.837 64.0579H339.466C342.26 64.0579 344.525 61.7635 344.525 58.9333C344.525 56.103 342.26 53.8086 339.466 53.8086H318.837C316.043 53.8086 313.777 56.103 313.777 58.9333C313.777 61.7635 316.043 64.0579 318.837 64.0579Z" fill="#D2D2D2"/>
<path d="M309.303 83.7024H329.358C332.075 83.7024 334.277 81.4081 334.277 78.5778C334.277 75.7475 332.075 73.4531 329.358 73.4531H309.303C306.586 73.4531 304.383 75.7475 304.383 78.5778C304.383 81.4081 306.586 83.7024 309.303 83.7024Z" fill="#D2D2D2"/>
<path d="M298.405 79.7312L298.416 80.4961L259.064 81.0619L259.053 80.297L298.405 79.7312Z" fill="#D2D2D2"/>
<path d="M306.858 59.4577L306.869 60.2227L267.517 60.7885L267.506 60.0236L306.858 59.4577Z" fill="#D2D2D2"/>
<path d="M265.529 62.4857C266.396 62.4863 267.188 61.9926 267.569 61.2135C268.118 60.0888 267.651 58.7321 266.526 58.1832C265.402 57.6343 264.045 58.1011 263.496 59.2258C262.948 60.3505 263.414 61.7072 264.539 62.2561C264.847 62.4067 265.186 62.4852 265.529 62.4857ZM266.754 60.8162C266.425 61.4906 265.612 61.7706 264.938 61.4415C264.263 61.1125 263.983 60.299 264.312 59.6246C264.641 58.9502 265.455 58.6703 266.129 58.9993C266.453 59.1572 266.701 59.4373 266.818 59.7778C266.935 60.1187 266.912 60.4922 266.754 60.8162Z" fill="#D2D2D2"/>
<path d="M250.635 43.3841C251.502 43.3848 252.293 42.891 252.674 42.1119C253.223 40.9872 252.756 39.6305 251.632 39.0816C250.507 38.5328 249.151 38.9995 248.602 40.1242C248.053 41.2489 248.52 42.6056 249.644 43.1545C249.953 43.3051 250.291 43.3836 250.635 43.3841ZM251.86 41.7146C251.531 42.389 250.717 42.669 250.043 42.34C249.369 42.0109 249.089 41.1975 249.418 40.5231C249.747 39.8487 250.56 39.5687 251.235 39.8977C251.558 40.0557 251.806 40.3357 251.923 40.6763C252.041 41.0171 252.018 41.3906 251.86 41.7146Z" fill="#D2D2D2"/>
<path d="M303.464 44.4128H324.093C326.887 44.4128 329.152 42.3096 329.152 39.7152C329.152 37.1208 326.887 35.0176 324.093 35.0176H303.464C300.67 35.0176 298.404 37.1208 298.404 39.7152C298.404 42.3096 300.67 44.4128 303.464 44.4128Z" fill="#D2D2D2"/>
<path d="M291.489 40.3347L291.5 41.0996L252.148 41.6655L252.137 40.9005L291.489 40.3347Z" fill="#D2D2D2"/>
<path d="M257.83 82.8487C258.647 82.8493 259.393 82.3841 259.752 81.65C260.269 80.5903 259.829 79.3121 258.77 78.7949C257.71 78.2778 256.432 78.7176 255.915 79.7772C255.398 80.8369 255.838 82.1152 256.897 82.6324C257.188 82.7742 257.507 82.8482 257.83 82.8487ZM258.985 81.2757C258.675 81.9111 257.908 82.1749 257.273 81.8649C256.638 81.5549 256.374 80.7884 256.684 80.153C256.994 79.5176 257.76 79.2538 258.396 79.5638C258.701 79.7126 258.934 79.9765 259.044 80.2974C259.155 80.6185 259.133 80.9704 258.985 81.2757Z" fill="#D2D2D2"/>
</svg>
