<svg width="345" height="198" viewBox="0 0 345 198" fill="none" xmlns="http://www.w3.org/2000/svg">
<g clip-path="url(#clip0_2320_14344)">
<path d="M332.818 158.294C332.818 172.777 258.314 198.44 166.409 198.44C74.5037 198.44 0 172.777 0 158.294C0 143.811 74.5037 145.992 166.409 145.992C258.314 145.992 332.818 143.811 332.818 158.294Z" fill="#3F3D56"/>
<path opacity="0.1" d="M332.818 158.294C332.818 172.777 258.314 198.44 166.409 198.44C74.5037 198.44 0 172.777 0 158.294C0 143.811 74.5037 145.992 166.409 145.992C258.314 145.992 332.818 143.811 332.818 158.294Z" fill="black"/>
<path d="M166.409 184.52C258.314 184.52 332.818 172.779 332.818 158.296C332.818 143.813 258.314 132.072 166.409 132.072C74.5037 132.072 0 143.813 0 158.296C0 172.779 74.5037 184.52 166.409 184.52Z" fill="#3F3D56"/>
<path opacity="0.2" d="M33.8051 152.775C29.1507 152.813 22.9903 152.05 21.7503 151.295C20.8059 150.72 20.4296 148.655 20.3036 147.703C20.2164 147.707 20.166 147.708 20.166 147.708C20.166 147.708 20.4271 151.033 21.6672 151.789C22.9073 152.544 29.0676 153.307 33.722 153.269C35.0655 153.258 35.5296 152.78 35.5041 152.072C35.3175 152.5 34.8051 152.767 33.8051 152.775Z" fill="black"/>
<line x1="21.1848" y1="165.417" x2="290.869" y2="171.621" stroke="white" stroke-width="1.29501"/>
<line x1="39.6269" y1="144.698" x2="264.311" y2="145.351" stroke="white" stroke-width="1.29501"/>
<line x1="198.278" y1="136.376" x2="267.885" y2="179.111" stroke="white" stroke-width="1.29501"/>
<line x1="108.809" y1="129.61" x2="167.854" y2="186.047" stroke="white" stroke-width="1.29501"/>
<path d="M114.412 126.407C114.412 136.51 96.1201 159.015 96.1201 159.015C96.1201 159.015 77.8281 136.51 77.8281 126.407C77.8281 121.556 79.7553 116.903 83.1857 113.473C86.6162 110.042 91.2688 108.115 96.1201 108.115C100.971 108.115 105.624 110.042 109.055 113.473C112.485 116.903 114.412 121.556 114.412 126.407Z" fill="white"/>
<path d="M104.482 125.612C104.482 127.266 103.992 128.883 103.073 130.258C102.154 131.633 100.848 132.705 99.3199 133.338C97.7919 133.971 96.1106 134.136 94.4885 133.813C92.8664 133.491 91.3765 132.694 90.207 131.525C89.0375 130.355 88.2411 128.866 87.9185 127.243C87.5958 125.621 87.7614 123.94 88.3943 122.412C89.0272 120.884 90.099 119.578 91.4742 118.659C92.8493 117.74 94.466 117.25 96.1199 117.25C97.2181 117.249 98.3057 117.465 99.3205 117.885C100.335 118.306 101.257 118.921 102.034 119.698C102.81 120.475 103.426 121.397 103.846 122.411C104.267 123.426 104.482 124.514 104.482 125.612Z" fill="#1677FF"/>
<path d="M96.1203 172.217C98.8436 172.217 101.051 170.01 101.051 167.286C101.051 164.563 98.8436 162.355 96.1203 162.355C93.3971 162.355 91.1895 164.563 91.1895 167.286C91.1895 170.01 93.3971 172.217 96.1203 172.217Z" fill="white"/>
<path d="M232.797 91.551C232.797 105.11 208.246 135.316 208.246 135.316C208.246 135.316 183.695 105.11 183.695 91.551C183.695 85.0397 186.282 78.795 190.886 74.1908C195.49 69.5866 201.735 67 208.246 67C214.758 67 221.002 69.5866 225.607 74.1908C230.211 78.795 232.797 85.0397 232.797 91.551Z" fill="#1677FF"/>
<path d="M219.472 90.4831C219.472 92.7029 218.814 94.8728 217.581 96.7184C216.347 98.5641 214.594 100.003 212.544 100.852C210.493 101.702 208.236 101.924 206.059 101.491C203.882 101.058 201.882 99.9888 200.313 98.4192C198.743 96.8496 197.674 94.8498 197.241 92.6727C196.808 90.4955 197.03 88.2389 197.88 86.1881C198.729 84.1373 200.168 82.3845 202.013 81.1512C203.859 79.918 206.029 79.2598 208.249 79.2598C209.723 79.2591 211.183 79.5489 212.545 80.1127C213.906 80.6765 215.144 81.5032 216.186 82.5455C217.229 83.5878 218.055 84.8253 218.619 86.1873C219.183 87.5493 219.473 89.009 219.472 90.4831Z" fill="white"/>
<path d="M208.245 153.035C211.9 153.035 214.863 150.072 214.863 146.417C214.863 142.762 211.9 139.799 208.245 139.799C204.59 139.799 201.627 142.762 201.627 146.417C201.627 150.072 204.59 153.035 208.245 153.035Z" fill="#1677FF"/>
<path d="M46.2904 128.384C46.2431 129.053 46.1691 129.8 46.0547 130.586L48.121 128.295L48.1324 128.333C48.006 127.781 47.8025 127.251 47.528 126.756L47.5412 126.792L46.2904 128.384Z" fill="#FFC200"/>
<path d="M46.2949 128.268L47.5066 126.726C47.2488 126.256 46.8759 125.858 46.4228 125.571C46.4006 125.558 46.3783 125.546 46.356 125.533C46.3626 125.715 46.3944 126.784 46.2949 128.268Z" fill="#FFC200"/>
<path d="M45.204 134.313C45.1508 134.475 45.0958 134.634 45.0391 134.79L48.0821 133.006L48.0863 133.051C48.1499 132.774 48.2029 132.496 48.2452 132.219L45.2068 134.333L45.204 134.313Z" fill="#FFC200"/>
<path d="M45.6289 132.815L48.3696 130.555L48.3774 130.597C48.387 129.85 48.3081 129.104 48.1424 128.375L46.0367 130.71C45.9261 131.446 45.7902 132.148 45.6289 132.815Z" fill="#FFC200"/>
<path d="M45.9881 130.667L42.7088 127.008L42.7263 126.967C42.418 127.401 42.1544 127.865 41.9395 128.352L45.6817 132.336C45.8099 131.755 45.91 131.192 45.9881 130.667Z" fill="#FFC200"/>
<path d="M41.9023 128.432L41.9025 128.432C41.9084 128.419 41.9135 128.404 41.9195 128.391L41.9023 128.432Z" fill="#FFC200"/>
<path d="M45.6591 132.432L41.9032 128.434C41.8397 128.579 41.7789 128.729 41.7207 128.882L45.5595 132.855C45.5944 132.714 45.6276 132.573 45.6591 132.432Z" fill="#FFC200"/>
<path d="M41.722 128.881L41.7051 128.923C41.7104 128.908 41.7165 128.895 41.722 128.881Z" fill="#FFC200"/>
<path d="M48.2515 132.165C48.3262 131.662 48.367 131.155 48.3734 130.646L45.5957 132.937C45.4857 133.382 45.3646 133.809 45.2324 134.219L48.2456 132.122L48.2515 132.165Z" fill="#FFC200"/>
<path d="M41.2234 132.452L44.2637 136.419C44.5135 135.936 44.7341 135.439 44.9243 134.93L41.2146 131.033C41.1778 131.52 41.1738 132.009 41.2024 132.497L41.2234 132.452Z" fill="#FFC200"/>
<path d="M46.3042 125.53L46.3314 125.517C45.6656 125.162 44.9448 125.2 44.2539 125.561L46.2451 128.265C46.3523 126.66 46.3049 125.546 46.3042 125.53Z" fill="#FFC200"/>
<path d="M44.9409 135.056C44.7664 135.514 44.567 135.962 44.3438 136.399L47.4019 134.816L47.405 134.86C47.6354 134.471 47.8156 134.054 47.9412 133.62C47.9898 133.449 48.0341 133.277 48.0742 133.105L44.9949 134.911C44.9769 134.959 44.9592 135.008 44.9409 135.056Z" fill="#FFC200"/>
<path d="M46.2347 128.386L44.1978 125.619L44.217 125.58C43.634 125.917 43.133 126.38 42.75 126.934L46.0026 130.563C46.1152 129.786 46.1881 129.047 46.2347 128.386Z" fill="#FFC200"/>
<path d="M44.9585 134.838C45.1852 134.219 45.3785 133.589 45.5375 132.95L41.6892 128.967C41.5976 129.216 41.5134 129.474 41.4368 129.743C41.3304 130.128 41.2594 130.523 41.2246 130.921L44.9555 134.84L44.9585 134.838Z" fill="#FFC200"/>
<path d="M48.9104 139.135C48.4475 139.619 47.9135 140.148 47.3242 140.68L50.3773 140.233L50.3616 140.27C50.616 139.765 50.7979 139.226 50.902 138.67L50.889 138.706L48.9104 139.135Z" fill="#FFC200"/>
<path d="M50.8108 137.054C50.8021 137.03 50.7929 137.006 50.7835 136.982C50.6725 137.127 50.0151 137.971 48.9922 139.05L50.9089 138.635C51.0104 138.108 50.9766 137.564 50.8108 137.054Z" fill="#FFC200"/>
<path d="M44.2949 143.008C44.1505 143.099 44.0066 143.186 43.8633 143.27L47.345 143.837L47.3197 143.874C47.5457 143.701 47.7634 143.521 47.9729 143.335L44.2841 143.025L44.2949 143.008Z" fill="#FFC200"/>
<path d="M45.5762 142.127L49.1286 142.134L49.1076 142.172C49.5917 141.602 50.0067 140.978 50.3439 140.311L47.2326 140.766C46.678 141.262 46.1259 141.716 45.5762 142.127Z" fill="#FFC200"/>
<path d="M44.377 142.956L48.0351 143.263L48.0117 143.301C48.3901 142.961 48.7452 142.596 49.0745 142.208L45.474 142.201C45.1058 142.473 44.7402 142.725 44.377 142.956Z" fill="#FFC200"/>
<path d="M39.8969 144.765C39.9228 144.739 39.9502 144.71 39.9772 144.683C40.7232 144.564 41.4521 144.356 42.1482 144.062L42.2476 141.426C42.2771 141.359 42.3057 141.291 42.3336 141.223L42.2278 144.029C42.7281 143.817 43.2152 143.574 43.6866 143.303L43.3468 138.402C43.373 138.389 43.3994 138.375 43.4266 138.36L43.7659 143.255L43.7692 143.256C44.3384 142.924 44.8893 142.562 45.4195 142.171L45.0496 137.348C45.0758 137.329 45.1019 137.31 45.1281 137.29L45.498 142.113C45.6154 142.026 45.7309 141.939 45.8446 141.851L45.5394 136.968C45.5656 136.947 45.5917 136.925 45.6177 136.904L45.9231 141.79C46.3928 141.424 46.829 141.054 47.2237 140.7L47.0317 135.79L47.0716 135.769C46.9353 135.805 46.7967 135.847 46.657 135.893C46.9198 135.593 47.1561 135.271 47.3634 134.93L44.276 136.527C44.0623 136.933 43.8219 137.325 43.5565 137.699C43.5013 137.751 43.4461 137.803 43.3917 137.857L43.3958 137.916C43.3706 137.949 43.3455 137.983 43.32 138.015L43.3145 137.936C43.2756 137.976 43.2376 138.018 43.199 138.06C43.59 137.571 43.9332 137.047 44.2237 136.493L41.2057 132.555C41.2263 132.907 41.2607 133.262 41.3049 133.613C41.0247 133.157 40.6844 132.742 40.2932 132.377L40.317 132.407L39.6195 134.308C39.7812 134.958 39.942 135.692 40.076 136.475L41.3156 133.696C41.3212 133.739 41.3272 133.782 41.3332 133.826L40.0967 136.598C40.219 137.332 40.3066 138.041 40.3594 138.726L41.8435 136.395C41.852 136.428 41.8605 136.462 41.869 136.495L40.3689 138.851C40.4015 139.307 40.4183 139.751 40.4194 140.182L42.2336 137.788C42.2433 137.82 42.2527 137.85 42.2621 137.88L40.4287 140.299L40.4198 140.281C40.4193 140.451 40.4162 140.62 40.4106 140.786L42.457 138.482C42.4678 138.514 42.4779 138.544 42.4872 138.571L40.4054 140.915C40.4033 140.966 40.4014 141.018 40.3988 141.069C40.3745 141.559 40.3234 142.047 40.246 142.531L40.4435 142.331C40.4061 142.408 40.3697 142.485 40.3342 142.56L40.2218 142.674C40.209 142.748 40.1943 142.82 40.1801 142.893C40.1386 142.984 40.0987 143.073 40.0602 143.16C40.0974 142.993 40.132 142.826 40.1615 142.658L36.0742 139.846C37.1406 142.574 39.1486 145.169 39.2772 145.334C39.3815 145.139 39.4763 144.938 39.5634 144.733C39.5887 144.731 39.614 144.729 39.6393 144.726C39.6288 144.751 39.6179 144.776 39.6073 144.801C39.5946 144.802 39.5817 144.804 39.5689 144.806C39.5789 144.808 39.5907 144.812 39.6015 144.815C39.5402 144.957 39.4766 145.098 39.4085 145.234C39.4977 145.154 39.6336 145.027 39.796 144.866C40.7571 145.111 43.3464 145.636 45.5634 144.861L42.1666 144.122C41.4397 144.43 40.6772 144.646 39.8969 144.765ZM42.2837 140.467L42.3652 140.385L42.3606 140.508L42.2791 140.591L42.2837 140.467Z" fill="#FFC200"/>
<path d="M50.7434 136.946L50.7721 136.954C50.4862 136.255 49.9067 135.825 49.1445 135.662L48.9531 139.015C50.0595 137.847 50.7337 136.959 50.7434 136.946Z" fill="#FFC200"/>
<path d="M43.6173 143.413C43.1906 143.654 42.7511 143.873 42.3008 144.066L45.6653 144.798L45.6397 144.834C46.0654 144.681 46.47 144.475 46.8439 144.221C46.9904 144.12 47.1339 144.016 47.2744 143.909L43.7512 143.336C43.7065 143.362 43.6618 143.388 43.6173 143.413Z" fill="#FFC200"/>
<path d="M47.3017 140.628C47.884 140.101 48.4115 139.579 48.8688 139.1L49.0647 135.67L49.1045 135.651C48.4404 135.539 47.7597 135.576 47.1113 135.758L47.3017 140.628Z" fill="#FFC200"/>
<path d="M40.2657 132.353C39.8751 131.985 39.3977 131.723 38.878 131.59C38.8528 131.584 38.8278 131.579 38.8027 131.574C38.8653 131.745 39.226 132.752 39.59 134.194L40.2657 132.353Z" fill="#FFC200"/>
<path d="M40.0387 136.57L35.7889 134.103L35.7928 134.059C35.6338 134.567 35.5266 135.089 35.4727 135.619L40.2632 138.252C40.2054 137.659 40.1266 137.093 40.0387 136.57Z" fill="#FFC200"/>
<path d="M40.2706 138.351L35.4626 135.709C35.4471 135.867 35.4355 136.028 35.4277 136.192L40.3066 138.784C40.296 138.639 40.284 138.494 40.2706 138.351Z" fill="#FFC200"/>
<path d="M40.3457 140.952L35.6133 138.393C35.7289 138.867 35.8762 139.334 36.0541 139.788L36.0603 139.74L40.1778 142.572C40.2661 142.036 40.3222 141.495 40.3457 140.952Z" fill="#FFC200"/>
<path d="M38.7509 131.587L38.773 131.567C38.0298 131.435 37.3561 131.694 36.8105 132.25L39.5402 134.207C39.146 132.647 38.7565 131.602 38.7509 131.587Z" fill="#FFC200"/>
<path d="M39.5677 134.324L36.7754 132.323L36.7814 132.279C36.3312 132.78 35.9976 133.375 35.8047 134.02L40.0198 136.466C39.8867 135.692 39.7276 134.967 39.5677 134.324Z" fill="#FFC200"/>
<path d="M40.3477 140.856C40.3721 140.198 40.3611 139.539 40.3147 138.882L35.4237 136.283C35.4135 136.548 35.4134 136.82 35.4236 137.1C35.4416 137.499 35.4959 137.896 35.5859 138.285L40.3454 140.859L40.3477 140.856Z" fill="#FFC200"/>
<path d="M287.323 162.137C290.058 162.137 292.276 159.92 292.276 157.185C292.276 154.45 290.058 152.232 287.323 152.232C284.588 152.232 282.371 154.45 282.371 157.185C282.371 159.92 284.588 162.137 287.323 162.137Z" fill="white"/>
<path d="M287.801 172.1H286.787L287.249 156.438L287.801 172.1Z" fill="#CBCBCB"/>
<path d="M287.339 159.407L288.428 157.9L287.324 159.78L287.205 159.571L287.339 159.407Z" fill="#CBCBCB"/>
<path d="M287.22 160.926L286.131 159.42L287.235 161.299L287.354 161.09L287.22 160.926Z" fill="#CBCBCB"/>
<path d="M273.242 157.384C277.281 157.384 280.556 154.109 280.556 150.07C280.556 146.03 277.281 142.756 273.242 142.756C269.202 142.756 265.928 146.03 265.928 150.07C265.928 154.109 269.202 157.384 273.242 157.384Z" fill="white"/>
<path d="M273.947 172.101H272.449L273.132 148.969L273.947 172.101Z" fill="#CBCBCB"/>
<path d="M273.265 153.352L274.873 151.127L273.243 153.903L273.066 153.594L273.265 153.352Z" fill="#CBCBCB"/>
<path d="M151.205 166.316C151.205 166.316 151.339 163.506 154.088 163.833Z" fill="#57B894"/>
<path d="M150.429 163.644C151.188 163.644 151.804 163.028 151.804 162.268C151.804 161.509 151.188 160.893 150.429 160.893C149.669 160.893 149.053 161.509 149.053 162.268C149.053 163.028 149.669 163.644 150.429 163.644Z" fill="#FFC200"/>
<path d="M150.593 164.584H150.205V167.303H150.593V164.584Z" fill="#4EA685"/>
<path d="M156.844 166.31C156.844 166.31 156.978 163.501 159.727 163.827Z" fill="#57B894"/>
<path d="M156.069 163.636C156.829 163.636 157.445 163.02 157.445 162.261C157.445 161.501 156.829 160.885 156.069 160.885C155.309 160.885 154.693 161.501 154.693 162.261C154.693 163.02 155.309 163.636 156.069 163.636Z" fill="#FFC200"/>
<path d="M156.234 164.576H155.846V167.295H156.234V164.576Z" fill="#4EA685"/>
<path d="M155.414 168.582C155.414 168.582 155.548 165.772 158.297 166.099Z" fill="#57B894"/>
<path d="M154.638 165.91C155.397 165.91 156.013 165.294 156.013 164.534C156.013 163.774 155.397 163.158 154.638 163.158C153.878 163.158 153.262 163.774 153.262 164.534C153.262 165.294 153.878 165.91 154.638 165.91Z" fill="#FFC200"/>
<path d="M154.802 166.852H154.414V169.57H154.802V166.852Z" fill="#4EA685"/>
<path d="M161.055 168.578C161.055 168.578 161.189 165.768 163.938 166.095Z" fill="#57B894"/>
<path d="M160.276 165.904C161.036 165.904 161.652 165.288 161.652 164.528C161.652 163.768 161.036 163.152 160.276 163.152C159.516 163.152 158.9 163.768 158.9 164.528C158.9 165.288 159.516 165.904 160.276 165.904Z" fill="#FFC200"/>
<path d="M160.441 166.844H160.053V169.562H160.441V166.844Z" fill="#4EA685"/>
<path d="M236.265 137.827C238.103 137.827 239.592 136.337 239.592 134.499C239.592 132.662 238.103 131.172 236.265 131.172C234.427 131.172 232.938 132.662 232.938 134.499C232.938 136.337 234.427 137.827 236.265 137.827Z" fill="#FF6584"/>
<path d="M246.699 144.751H230.375C230.355 144.751 230.335 144.75 230.314 144.746L238.035 131.374C238.082 131.291 238.15 131.221 238.233 131.173C238.315 131.125 238.409 131.1 238.505 131.1C238.601 131.1 238.695 131.125 238.777 131.173C238.86 131.221 238.928 131.291 238.975 131.374L244.157 140.348L244.405 140.777L246.699 144.751Z" fill="white"/>
<path opacity="0.2" d="M246.7 144.753H241.127L243.863 140.779L244.06 140.493L244.158 140.35L244.406 140.779L246.7 144.753Z" fill="black"/>
<path d="M255.788 144.751H241.67L244.406 140.778L244.603 140.491L248.168 135.313C248.401 134.973 248.964 134.952 249.238 135.249C249.257 135.269 249.274 135.29 249.29 135.313L255.788 144.751Z" fill="white"/>
<path d="M254.922 143.221C254.922 144.104 255.476 144.818 256.16 144.818Z" fill="#3B8A6D"/>
<path d="M256.16 144.818C256.16 143.926 256.778 143.203 257.542 143.203Z" fill="#3B8A6D"/>
<path d="M255.371 143.301C255.371 144.139 255.724 144.818 256.161 144.818Z" fill="#57B894"/>
<path d="M256.16 144.818C256.16 143.677 256.875 142.754 257.757 142.754Z" fill="#57B894"/>
</g>
<defs>
<clipPath id="clip0_2320_14344">
<rect width="345" height="198" fill="white"/>
</clipPath>
</defs>
</svg>
