<svg width="346" height="195" viewBox="0 0 346 195" fill="none" xmlns="http://www.w3.org/2000/svg">
<path d="M129.999 110.636C130.307 110.651 130.569 110.412 130.583 110.103C130.591 109.938 130.525 109.779 130.404 109.667L130.366 109.514L130.381 109.478C130.705 108.713 131.587 108.356 132.351 108.68C132.714 108.833 133.002 109.124 133.153 109.488C133.606 110.58 134.183 111.673 134.326 112.828C134.388 113.338 134.362 113.855 134.248 114.357C135.312 112.034 135.865 109.51 135.869 106.955C135.869 106.314 135.833 105.673 135.762 105.036C135.703 104.513 135.621 103.995 135.517 103.48C134.946 100.686 133.721 98.0673 131.942 95.8389C131.08 95.369 130.384 94.6465 129.946 93.7686C129.788 93.453 129.675 93.1162 129.613 92.7685C129.71 92.7812 129.809 92.7892 129.906 92.7956C129.937 92.7972 129.968 92.7988 129.999 92.8004L130.01 92.8009C130.316 92.8146 130.575 92.5778 130.589 92.2719C130.595 92.1363 130.551 92.0031 130.465 91.8977C130.423 91.8461 130.381 91.7945 130.339 91.7429C130.276 91.6633 130.21 91.5853 130.147 91.5056C130.139 91.4981 130.133 91.4901 130.126 91.4817C130.053 91.391 129.98 91.3018 129.906 91.211C130.04 91.0035 130.22 90.8296 130.432 90.703C131.166 90.273 132.179 90.5708 132.709 91.2349C133.212 91.9363 133.376 92.8255 133.157 93.6603C132.975 94.3663 132.674 95.0362 132.268 95.6414C132.308 95.6924 132.349 95.7417 132.389 95.7927C133.117 96.7285 133.751 97.7335 134.283 98.793C134.154 97.606 134.308 96.4052 134.733 95.2895C135.164 94.2496 135.972 93.3739 136.684 92.4749C137.209 91.8005 138.182 91.6798 138.857 92.2054C139.18 92.4576 139.391 92.828 139.441 93.2352L139.446 93.2749C139.34 93.3345 139.236 93.3978 139.135 93.4647C138.787 93.6976 138.693 94.1689 138.926 94.5175C139.044 94.6944 139.231 94.8135 139.441 94.8459L139.457 94.8483C139.419 95.2292 139.352 95.6066 139.258 95.9774C138.702 98.0699 137.299 99.836 135.386 100.851C135.324 100.882 135.264 100.914 135.201 100.944C135.736 102.459 136.071 104.036 136.198 105.636C136.271 106.58 136.266 107.529 136.186 108.472L136.19 108.439C136.394 107.39 136.954 106.443 137.775 105.759C138.994 104.757 140.717 104.388 142.033 103.583C142.437 103.323 142.976 103.44 143.236 103.845C143.348 104.019 143.394 104.226 143.367 104.43L143.361 104.466C143.165 104.545 142.974 104.637 142.79 104.741C142.684 104.801 142.581 104.864 142.479 104.931C142.131 105.164 142.037 105.635 142.27 105.984C142.388 106.161 142.575 106.28 142.785 106.312L142.801 106.314C142.812 106.316 142.822 106.318 142.833 106.319C142.498 107.119 142.027 107.856 141.443 108.496C139.982 110.063 137.941 110.959 135.799 110.973H135.797C135.509 112.223 135.092 113.44 134.553 114.604H130.11C130.094 114.554 130.08 114.503 130.066 114.454C130.477 114.48 130.89 114.455 131.295 114.381C130.965 113.976 130.636 113.568 130.306 113.164C130.299 113.156 130.292 113.148 130.285 113.14C130.118 112.933 129.949 112.728 129.782 112.521C129.773 111.886 129.846 111.252 129.999 110.636Z" fill="#F2F2F2"/>
<path d="M116.557 69.8719C116.557 72.3177 117.78 74.8065 120.226 74.8065C122.672 74.8065 126.046 73.0351 125.287 69.2392C124.807 66.8409 123.431 65.4434 120.985 65.4434C118.539 65.4433 116.557 67.4261 116.557 69.8719Z" fill="#2F2E41"/>
<path d="M126.816 104.819C126.313 104.261 126.357 103.4 126.916 102.896C126.976 102.843 127.04 102.794 127.108 102.752L126.037 98.0332L128.39 98.9186L129.046 103.264C129.403 103.931 129.151 104.76 128.484 105.116C127.927 105.415 127.237 105.292 126.816 104.819Z" fill="#FFB8B8"/>
<path d="M121.822 88.0924L123.465 88.2596C123.465 88.2596 123.035 90.6929 123.707 91.2409C124.379 91.789 124.108 91.7864 124.104 92.1926C124.146 92.7823 124.436 93.3266 124.902 93.6898C125.44 94.1012 126.558 101.428 126.558 101.428L128.995 101.451C128.923 100.821 128.929 100.184 129.013 99.5556C129.158 98.6091 129.888 96.225 129.621 95.8162C129.355 95.4074 129.495 94.6557 129.503 93.8433C129.511 93.0309 128.349 93.9286 128.362 92.5746C128.375 91.2206 126.884 82.7247 127.031 81.5074C127.178 80.2901 125.699 79.1927 125.699 79.1927L124.345 79.1797L121.822 88.0924Z" fill="#E6E6E6"/>
<path d="M104.383 76.668C104.228 77.3635 104.666 78.0528 105.362 78.2076C105.436 78.2241 105.511 78.234 105.587 78.2372L106.905 82.6283L108.433 80.8004L106.947 76.9109C106.93 76.1947 106.336 75.6279 105.62 75.6449C105.021 75.6591 104.509 76.0821 104.383 76.668Z" fill="#FFB8B8"/>
<path d="M118.296 78.0952C118.296 78.0952 115.111 76.9009 113.384 83.4416L111.091 85.816L109.165 82.3357L109.42 81.5101L107.931 78.1354L105.379 79.6001L106.007 81.917L105.901 83.0623L106.511 83.7747L107.509 87.4564L108.134 88.6593C108.134 88.6593 108.921 90.1994 110.296 90.4531C110.663 90.5218 111.038 90.5324 111.408 90.4847C112.287 90.3471 113.102 89.9402 113.74 89.32C115.44 87.8041 117.048 86.1879 118.555 84.48L118.296 78.0952Z" fill="#E6E6E6"/>
<path d="M122.571 89.0497L122.796 90.1235L122.988 94.0844L115.29 93.0421L114.699 88.4556L115.516 87.1133L122.571 89.0497Z" fill="#FFB8B8"/>
<path d="M120.071 74.7431C122.083 74.7431 123.714 73.1121 123.714 71.1001C123.714 69.0881 122.083 67.457 120.071 67.457C118.059 67.457 116.428 69.0881 116.428 71.1001C116.428 73.1121 118.059 74.7431 120.071 74.7431Z" fill="#FFB8B8"/>
<path d="M126.175 79.6202C125.574 78.2021 124.33 77.1578 122.829 76.8116L122.815 76.8088L122.094 75.8379L119.167 76.1314L118.632 77.2285L117.245 78.0541H117.242L117.239 78.0568L116.512 78.4902L114.101 81.3125L114.099 81.3152C113.383 81.7929 112.898 82.5456 112.757 83.3943C112.721 83.6366 112.709 83.8819 112.722 84.1266C112.801 85.6269 113.739 86.9626 113.868 87.1409L114.184 88.9155L114.247 89.2803L114.814 89.3626L122.812 90.5063L123.035 90.5392L123.1 90.5475L123.331 89.9523V89.9468L125.561 84.1129L126.562 81.51C126.564 80.8601 126.433 80.2167 126.175 79.6202Z" fill="#E6E6E6"/>
<path d="M123.886 72.0561C123.853 72.0509 123.82 72.0439 123.787 72.0387C123.218 71.9379 122.65 71.8388 122.084 71.7363L122.031 70.4521L121.345 71.6025C119.779 72.1221 118.314 71.8284 116.936 71.1802C116.482 70.9644 116.041 70.7213 115.615 70.4521C115.319 68.6431 116.067 67.2175 117.988 67.0356C118.047 67.0299 118.09 66.98 118.142 66.9539L118.144 66.9522C118.233 66.9105 118.323 66.8705 118.413 66.834C119.857 66.2696 121.497 66.5876 122.626 67.6507C123.766 68.8105 124.24 70.469 123.886 72.0561Z" fill="#2F2E41"/>
<path d="M127.474 101.436C127.313 100.36 127.048 99.3021 126.684 98.2767V98.274C126.379 97.4069 125.999 96.5681 125.548 95.7671C125.547 95.7671 125.546 95.7659 125.546 95.7645C124.897 94.557 124.05 93.4667 123.042 92.5388L122.935 92.4264H122.907L115.183 92.2371H115.104L115.016 92.2344C115.016 92.2344 114.983 92.3304 114.92 92.5114C114.918 92.5227 114.914 92.5338 114.909 92.5443C114.887 92.6156 114.86 92.6979 114.827 92.7884C114.808 92.8488 114.786 92.9119 114.764 92.9804C114.739 93.0545 114.712 93.1313 114.684 93.2136C114.47 93.8526 114.158 94.7797 113.774 95.9289C113.716 96.1045 113.656 96.2855 113.593 96.4747C112.128 100.882 109.772 108.085 107.715 114.912H115.011C115.718 112.866 116.47 109.947 116.47 109.947C116.763 109.599 116.747 108.653 116.747 108.653L119.04 106.245L120.691 114.912H127.619L127.671 105.265V105.183C127.725 103.931 127.659 102.676 127.474 101.436Z" fill="#CCCCCC"/>
<path d="M122.488 66.8597V66.8628C122.488 67.0535 122.512 67.2434 122.561 67.4278C122.568 67.4601 122.578 67.494 122.588 67.5263V67.5279C122.798 68.1955 123.308 68.7265 123.966 68.9628C124.014 68.9813 124.063 68.9967 124.113 69.0105C124.216 69.0406 124.322 69.0622 124.43 69.0752C124.526 69.0888 124.623 69.0955 124.721 69.0952C124.797 69.0955 124.873 69.0919 124.949 69.0844C125.126 69.0665 125.3 69.0267 125.467 68.9659C125.494 68.9583 125.519 68.949 125.544 68.9382C125.557 68.9337 125.569 68.9286 125.581 68.9228C126.72 68.4462 127.256 67.137 126.78 65.9986C126.766 65.9645 126.75 65.9308 126.734 65.8975L126.733 65.8959C126.623 65.6668 126.475 65.4584 126.294 65.2801C125.891 64.8783 125.713 63.8712 125.1 63.8712C125.071 63.8707 125.042 63.8717 125.012 63.8743C124.601 63.8882 123.842 64.7751 123.518 64.9845C123.278 65.1362 123.07 65.3334 122.905 65.5649C122.734 65.8031 122.611 66.0732 122.545 66.3594C122.507 66.5235 122.488 66.6913 122.488 66.8597Z" fill="#2F2E41"/>
<path d="M125.217 66.0829C125.563 66.4865 126.106 66.6434 126.596 66.8534C128.35 67.6231 129.612 69.2094 129.966 71.0921C130.102 71.8475 130.084 72.6295 130.298 73.3659C130.511 74.1023 131.037 74.8248 131.792 74.9525C132.303 75.0398 132.816 74.8425 133.297 74.6476C133.561 74.5413 133.826 74.4346 134.09 74.3275C133.814 73.6354 133.539 72.9433 133.264 72.2511C133.706 72.9043 134.22 73.5057 134.796 74.0441C135.744 73.6619 136.692 73.2798 137.642 72.8977C135.306 72.9066 135.705 70.6392 135.182 68.3642C134.895 67.1141 132.449 66.2676 131.969 65.0782C131.22 63.2135 129.102 62.3091 127.237 63.0581C126.433 63.3808 125.771 63.9796 125.37 64.7467C124.89 64.9378 124.876 65.6843 125.217 66.0829Z" fill="#2F2E41"/>
<path d="M115.293 92.7934C114.202 93.0779 113.319 93.8776 112.929 94.9351C112.79 95.2339 112.794 95.579 112.939 95.8749C113.052 96.0861 113.303 96.1815 113.528 96.0982C113.753 95.9767 113.933 95.785 114.04 95.5523C114.197 95.2535 114.333 94.9437 114.444 94.6252C114.628 94.1447 115.019 93.3425 114.46 92.9668C113.991 92.6508 113.37 92.7736 112.841 92.7519C112.27 92.7285 111.636 92.5099 111.433 91.9183C111.236 91.3429 111.698 90.8017 112.197 90.583C112.805 90.3307 113.499 90.3968 114.049 90.7594C114.584 91.1304 114.967 91.6833 115.125 92.3151C115.149 92.4172 115.086 92.5197 114.984 92.5441C114.887 92.5673 114.788 92.5114 114.759 92.416C114.619 91.8298 114.25 91.3242 113.734 91.0123C113.222 90.7167 112.585 90.7415 112.097 91.0762C111.841 91.2355 111.723 91.5454 111.806 91.835C111.935 92.0919 112.177 92.2733 112.46 92.3244C113.062 92.4701 113.692 92.2816 114.292 92.474C114.851 92.6172 115.207 93.1643 115.112 93.7332C115.05 94.0745 114.948 94.4077 114.81 94.7261C114.693 95.0536 114.556 95.3735 114.4 95.6843C114.162 96.1348 113.732 96.6224 113.165 96.4903C112.519 96.3397 112.365 95.5851 112.504 95.0301C112.879 93.7494 113.9 92.7606 115.192 92.4274C115.294 92.4031 115.397 92.4661 115.421 92.5681C115.444 92.6652 115.388 92.7636 115.293 92.7934Z" fill="#CCCCCC"/>
<path d="M143.831 115.184H98.8496C97.7898 115.183 96.9309 114.324 96.9297 113.264V52.0996C96.9309 51.0398 97.7898 50.1809 98.8496 50.1797H143.831C144.891 50.1809 145.75 51.0398 145.751 52.0996V113.264C145.75 114.324 144.891 115.183 143.831 115.184ZM98.8496 50.7282C98.0926 50.7291 97.4791 51.3426 97.4782 52.0996V113.264C97.4791 114.021 98.0926 114.634 98.8496 114.635H143.831C144.588 114.634 145.202 114.021 145.203 113.264V52.0996C145.202 51.3426 144.588 50.7291 143.831 50.7282H98.8496Z" fill="#3F3D56"/>
<path d="M175.77 86.6605H161.234C159.264 86.6605 157.668 85.0642 157.668 83.0949C157.668 81.1257 159.264 79.5293 161.234 79.5293H175.77C177.74 79.5293 179.336 81.1257 179.336 83.0949C179.336 85.0642 177.74 86.6605 175.77 86.6605Z" fill="#1677FF"/>
<path d="M126.102 81.6272L126.094 82.1758L154.185 82.5816L154.193 82.033L126.102 81.6272Z" fill="#3F3D56"/>
<path d="M124.922 83.3902C124.163 83.392 123.547 82.7783 123.545 82.0196C123.543 81.2608 124.157 80.6443 124.916 80.6426C125.674 80.6408 126.291 81.2545 126.293 82.0132C126.294 82.5393 125.994 83.0199 125.522 83.2508C125.335 83.3421 125.13 83.3898 124.922 83.3902ZM124.92 81.1948C124.465 81.1948 124.097 81.5634 124.097 82.0182C124.096 82.473 124.465 82.8417 124.92 82.8417C125.375 82.8417 125.743 82.4731 125.743 82.0183C125.743 81.8933 125.715 81.7699 125.66 81.6575C125.522 81.3747 125.235 81.1951 124.92 81.1948Z" fill="#3F3D56"/>
<path d="M126.102 109.877L126.094 110.426L154.185 110.832L154.193 110.283L126.102 109.877Z" fill="#3F3D56"/>
<path d="M124.924 111.638C124.166 111.639 123.552 111.025 123.551 110.268C123.55 109.51 124.164 108.895 124.921 108.895C125.446 108.894 125.925 109.193 126.155 109.665C126.487 110.347 126.203 111.168 125.522 111.5C125.335 111.59 125.131 111.638 124.924 111.638ZM124.922 109.443C124.467 109.443 124.099 109.811 124.099 110.266C124.098 110.721 124.467 111.09 124.922 111.09C125.377 111.09 125.745 110.721 125.745 110.266C125.745 110.141 125.717 110.018 125.662 109.906C125.524 109.623 125.237 109.443 124.922 109.443Z" fill="#3F3D56"/>
<path d="M175.77 114.912H161.234C159.264 114.912 157.668 113.316 157.668 111.347C157.668 109.378 159.264 107.781 161.234 107.781H175.77C177.74 107.781 179.336 109.378 179.336 111.347C179.336 113.316 177.74 114.912 175.77 114.912Z" fill="#1677FF"/>
<rect width="68.3288" height="89.6815" rx="1.70822" transform="matrix(-1 0 0 1 283.959 0)" fill="white" fill-opacity="0.55"/>
<path d="M235.867 75.6787C236.829 74.8951 236.97 73.484 236.183 72.5268C236.099 72.4247 236.006 72.3303 235.906 72.2445L240.992 59.0078L236.927 59.8649L232.611 72.5969C231.863 73.5929 232.068 75.0041 233.068 75.7489C233.905 76.3721 235.063 76.343 235.867 75.6787Z" fill="#FFB8B8"/>
<path d="M233.777 61.1818L238.342 42.273L240.305 36.7732C240.308 36.7711 240.309 36.7685 240.309 36.7655C240.629 35.8672 241.298 35.1341 242.165 34.7309C243.033 34.3172 244.032 34.2703 244.935 34.6008C245.012 34.6275 245.088 34.6581 245.162 34.6926C245.32 34.7643 245.472 34.8461 245.619 34.9374C246.466 35.469 247.055 36.326 247.245 37.3048L247.59 39.11L247.736 39.8788L242.346 58.6346V58.6423L240.471 65.1747L239.602 68.1885V68.1923L238.596 71.6995L238.573 71.7722L236.156 71.6115H236.152L235.787 71.5848L233.021 71.4012L232.621 71.3744L233.777 61.1818Z" fill="#2F2E41"/>
<path d="M252.306 29.6113L242.139 50.0785L235.707 71.8418C249.258 74.472 266.261 80.0986 267.484 72.029C266.73 49.5305 264.354 42.354 259.45 32.6004L252.306 29.6113Z" fill="#2F2E41"/>
<path d="M238.714 90.2602H247.063L250.448 78.8744L252.83 90.1149C252.838 90.1646 252.842 90.2105 252.849 90.2602H261.748C261.46 86.7416 260.933 80.6222 260.684 79.7541C260.33 78.5225 260.684 78.5225 261.391 77.8188C261.548 77.662 261.602 77.0348 261.587 76.1589C261.544 73.1413 260.718 67.1635 260.718 67.1635L259.739 65.3582L259.4 64.731L241.949 64.1191L241.799 64.1152L241.476 65.515L241.081 67.2399L240.385 70.2652L239.744 72.6785L239.709 72.8009V73.5161C239.818 73.7653 239.868 74.0362 239.855 74.3078C239.855 74.5526 239.302 82.1789 238.714 90.2602Z" fill="#2F2E41"/>
<path d="M253.498 32.6465L252.3 29.793L248.591 29.8578L244.725 35.3024L240.666 52.2923C240.666 52.2923 239.208 64.7034 240.666 65.3586C242.124 66.0138 259.775 65.6651 259.775 65.6651C258.958 58.9627 258.349 52.1444 257.707 48.0713C255.585 34.6096 254.584 37.4426 253.498 32.6465Z" fill="#1677FF"/>
<path d="M248.594 29.8574C248.594 29.8574 240.606 34.4539 240.293 36.8532C239.981 39.2526 238.935 68.6193 238.935 68.6193L241.76 66.8023L242.532 56.0992C241.993 46.5886 243.307 39.4996 245.979 34.1857L248.594 29.8574Z" fill="#2F2E41"/>
<path d="M245.103 23.9689C244.621 21.0146 246.637 18.231 249.605 17.7516C252.573 17.2722 255.369 19.2785 255.851 22.2328C256.332 25.1871 254.317 27.9707 251.349 28.4501C248.381 28.9295 245.584 26.9232 245.103 23.9689Z" fill="#FFB8B8"/>
<path d="M257.183 22.7803C256.94 23.8783 256.501 24.9241 255.888 25.8684C255.725 26.1903 255.482 26.4652 255.182 26.6666C254.868 26.867 254.455 26.8156 254.201 26.5445L254.069 26.4371C254.328 26.2778 254.56 26.0775 254.755 25.8439C254.951 25.6062 255.02 25.2889 254.939 24.992C254.841 24.6921 254.523 24.5228 254.218 24.6087C253.899 24.7332 253.706 25.1921 253.372 25.1214C253.102 25.0628 253.046 24.7088 253.046 24.4305C253.056 22.9756 252.349 20.9079 251.802 20.9714C251.25 21.0015 250.697 20.9278 250.172 20.7542C249.646 20.5802 249.091 20.5097 248.538 20.5466C248.499 20.5515 248.46 20.5589 248.418 20.5662C248.33 20.2898 248.208 20.025 248.055 19.7777C248.072 20.0762 248.058 20.3757 248.011 20.6711C247.571 20.8516 247.117 20.9945 246.652 21.0984C246.147 21.1692 245.036 22.6729 244.985 22.5191C244.896 22.2427 244.774 21.9779 244.622 21.7306C244.639 22.0291 244.624 22.3287 244.578 22.6241C244.575 22.6363 244.575 22.646 244.573 22.6582C244.328 22.3336 244.178 21.9381 244.261 22.2408C243.44 20.3904 243.759 19.0649 245.051 17.505C245.303 17.1696 245.636 16.9033 246.02 16.7311C246.41 16.5603 246.862 16.6048 247.212 16.8483C248.285 15.8687 249.808 15.5453 251.189 16.0037C252.536 16.4699 253.573 16.7433 253.779 18.1495C254.926 18.0247 256.042 18.5657 256.651 19.5409C257.231 20.5157 257.421 21.6723 257.183 22.7803Z" fill="#2F2E41"/>
<path d="M272.441 74.3402C272.904 73.192 272.343 71.8881 271.19 71.428C271.067 71.3789 270.94 71.3408 270.81 71.314L268.847 57.2773L265.702 59.9809L268.095 73.2053C267.923 74.4371 268.787 75.5748 270.024 75.7464C271.059 75.8899 272.059 75.3086 272.441 74.3402Z" fill="#FFB8B8"/>
<path d="M255.117 36.8723L255.266 35.5108C255.408 34.2533 256.201 33.1617 257.357 32.6347C257.796 32.432 258.272 32.3213 258.755 32.3096H258.759C260.214 32.2758 261.548 33.1138 262.144 34.4361L264.542 39.7714L270.593 58.2634L272.549 68.3221L270.436 68.6319L267.373 69.0794L267.35 69.0832L266.647 69.1864L256.823 43.0109L256.819 43.0032L254.982 38.1115L255.117 36.8723Z" fill="#2F2E41"/>
<path d="M218.317 90.5356H281.272C282.755 90.5339 283.957 89.3377 283.959 87.8616V2.67405C283.957 1.1979 282.755 0.00165409 281.272 0H218.317C216.834 0.00165409 215.632 1.1979 215.63 2.67405V87.8616C215.632 89.3377 216.834 90.5339 218.317 90.5356ZM281.272 0.764014C282.331 0.765248 283.19 1.61968 283.191 2.67405V87.8616C283.19 88.916 282.331 89.7704 281.272 89.7716H218.317C217.258 89.7704 216.399 88.916 216.398 87.8616V2.67405C216.399 1.61968 217.258 0.765248 218.317 0.764014H281.272Z" fill="#E6E6E6"/>
<path d="M319.767 64.0579H340.395C343.19 64.0579 345.455 61.7635 345.455 58.9333C345.455 56.103 343.19 53.8086 340.395 53.8086H319.767C316.972 53.8086 314.707 56.103 314.707 58.9333C314.707 61.7635 316.972 64.0579 319.767 64.0579Z" fill="#D2D2D2"/>
<path d="M310.232 83.7024H330.288C333.005 83.7024 335.207 81.4081 335.207 78.5778C335.207 75.7475 333.005 73.4531 330.288 73.4531H310.232C307.516 73.4531 305.313 75.7475 305.313 78.5778C305.313 81.4081 307.516 83.7024 310.232 83.7024Z" fill="#D2D2D2"/>
<path d="M299.335 79.7312L299.346 80.4961L259.994 81.0619L259.983 80.297L299.335 79.7312Z" fill="#D2D2D2"/>
<path d="M307.788 59.4577L307.799 60.2227L268.447 60.7885L268.436 60.0236L307.788 59.4577Z" fill="#D2D2D2"/>
<path d="M266.459 62.4857C267.326 62.4863 268.118 61.9926 268.498 61.2135C269.047 60.0888 268.581 58.7321 267.456 58.1832C266.331 57.6343 264.975 58.1011 264.426 59.2258C263.877 60.3505 264.344 61.7072 265.469 62.2561C265.777 62.4067 266.116 62.4852 266.459 62.4857ZM267.684 60.8162C267.355 61.4906 266.542 61.7706 265.867 61.4415C265.193 61.1125 264.913 60.299 265.242 59.6246C265.571 58.9502 266.384 58.6703 267.059 58.9993C267.382 59.1572 267.63 59.4373 267.748 59.7778C267.865 60.1187 267.842 60.4922 267.684 60.8162Z" fill="#D2D2D2"/>
<path d="M251.564 43.3841C252.431 43.3848 253.223 42.891 253.604 42.1119C254.153 40.9872 253.686 39.6305 252.561 39.0816C251.437 38.5328 250.08 38.9995 249.532 40.1242C248.983 41.2489 249.449 42.6056 250.574 43.1545C250.882 43.3051 251.221 43.3836 251.564 43.3841ZM252.79 41.7146C252.461 42.389 251.647 42.669 250.973 42.34C250.299 42.0109 250.019 41.1975 250.348 40.5231C250.677 39.8487 251.49 39.5687 252.164 39.8977C252.488 40.0557 252.736 40.3357 252.853 40.6763C252.97 41.0171 252.947 41.3906 252.79 41.7146Z" fill="#D2D2D2"/>
<path d="M304.394 44.4128H325.022C327.817 44.4128 330.082 42.3096 330.082 39.7152C330.082 37.1208 327.817 35.0176 325.022 35.0176H304.394C301.599 35.0176 299.334 37.1208 299.334 39.7152C299.334 42.3096 301.599 44.4128 304.394 44.4128Z" fill="#D2D2D2"/>
<path d="M292.419 40.3347L292.43 41.0996L253.078 41.6655L253.067 40.9005L292.419 40.3347Z" fill="#D2D2D2"/>
<path d="M258.76 82.8487C259.577 82.8493 260.323 82.3841 260.682 81.65C261.199 80.5903 260.759 79.3121 259.699 78.7949C258.64 78.2778 257.362 78.7176 256.845 79.7772C256.328 80.8369 256.767 82.1152 257.827 82.6324C258.118 82.7742 258.437 82.8482 258.76 82.8487ZM259.914 81.2757C259.604 81.9111 258.838 82.1749 258.203 81.8649C257.567 81.5549 257.304 80.7884 257.614 80.153C257.924 79.5176 258.69 79.2538 259.325 79.5638C259.63 79.7126 259.864 79.9765 259.974 80.2974C260.085 80.6185 260.063 80.9704 259.914 81.2757Z" fill="#D2D2D2"/>
<path d="M332.818 154.429C332.818 168.912 258.314 194.574 166.409 194.574C74.5037 194.574 0 168.912 0 154.429C0 139.946 74.5037 142.127 166.409 142.127C258.314 142.127 332.818 139.946 332.818 154.429Z" fill="#3F3D56"/>
<path opacity="0.1" d="M332.818 154.429C332.818 168.912 258.314 194.574 166.409 194.574C74.5037 194.574 0 168.912 0 154.429C0 139.946 74.5037 142.127 166.409 142.127C258.314 142.127 332.818 139.946 332.818 154.429Z" fill="black"/>
<path d="M166.409 180.655C258.314 180.655 332.818 168.914 332.818 154.431C332.818 139.948 258.314 128.207 166.409 128.207C74.5037 128.207 0 139.948 0 154.431C0 168.914 74.5037 180.655 166.409 180.655Z" fill="#3F3D56"/>
<path opacity="0.2" d="M33.8051 148.91C29.1507 148.948 22.9903 148.185 21.7503 147.43C20.8059 146.854 20.4296 144.79 20.3036 143.838C20.2164 143.842 20.166 143.843 20.166 143.843C20.166 143.843 20.4271 147.168 21.6672 147.924C22.9073 148.679 29.0676 149.441 33.722 149.404C35.0655 149.393 35.5296 148.915 35.5041 148.207C35.3175 148.635 34.8051 148.902 33.8051 148.91Z" fill="black"/>
<line x1="21.1848" y1="161.552" x2="290.869" y2="167.755" stroke="white" stroke-width="1.29501"/>
<line x1="39.6269" y1="140.833" x2="264.311" y2="141.486" stroke="white" stroke-width="1.29501"/>
<line x1="198.278" y1="132.511" x2="267.885" y2="175.246" stroke="white" stroke-width="1.29501"/>
<line x1="108.809" y1="125.745" x2="167.854" y2="182.181" stroke="white" stroke-width="1.29501"/>
<path d="M114.412 122.542C114.412 132.644 96.1201 155.15 96.1201 155.15C96.1201 155.15 77.8281 132.644 77.8281 122.542C77.8281 117.691 79.7553 113.038 83.1857 109.608C86.6162 106.177 91.2688 104.25 96.1201 104.25C100.971 104.25 105.624 106.177 109.055 109.608C112.485 113.038 114.412 117.691 114.412 122.542Z" fill="white"/>
<path d="M104.482 121.747C104.482 123.401 103.992 125.017 103.073 126.393C102.154 127.768 100.848 128.839 99.3199 129.472C97.7919 130.105 96.1106 130.271 94.4885 129.948C92.8664 129.626 91.3765 128.829 90.207 127.66C89.0375 126.49 88.2411 125 87.9185 123.378C87.5958 121.756 87.7614 120.075 88.3943 118.547C89.0272 117.019 90.099 115.713 91.4742 114.794C92.8493 113.875 94.466 113.385 96.1199 113.385C97.2181 113.384 98.3057 113.6 99.3205 114.02C100.335 114.44 101.257 115.056 102.034 115.833C102.81 116.609 103.426 117.531 103.846 118.546C104.267 119.561 104.482 120.649 104.482 121.747Z" fill="#1677FF"/>
<path d="M96.1203 168.352C98.8436 168.352 101.051 166.144 101.051 163.421C101.051 160.698 98.8436 158.49 96.1203 158.49C93.3971 158.49 91.1895 160.698 91.1895 163.421C91.1895 166.144 93.3971 168.352 96.1203 168.352Z" fill="white"/>
<path d="M232.797 87.6858C232.797 101.245 208.246 131.451 208.246 131.451C208.246 131.451 183.695 101.245 183.695 87.6858C183.695 81.1744 186.282 74.9298 190.886 70.3256C195.49 65.7214 201.735 63.1348 208.246 63.1348C214.758 63.1348 221.002 65.7214 225.607 70.3256C230.211 74.9298 232.797 81.1744 232.797 87.6858Z" fill="#1677FF"/>
<path d="M219.472 86.6179C219.472 88.8376 218.814 91.0075 217.581 92.8532C216.347 94.6989 214.594 96.1374 212.544 96.9869C210.493 97.8363 208.236 98.0586 206.059 97.6255C203.882 97.1925 201.882 96.1236 200.313 94.5539C198.743 92.9843 197.674 90.9845 197.241 88.8074C196.808 86.6303 197.03 84.3737 197.88 82.3229C198.729 80.2721 200.168 78.5192 202.013 77.286C203.859 76.0528 206.029 75.3945 208.249 75.3945C209.723 75.3939 211.183 75.6837 212.545 76.2475C213.906 76.8113 215.144 77.6379 216.186 78.6803C217.229 79.7226 218.055 80.9601 218.619 82.3221C219.183 83.6841 219.473 85.1438 219.472 86.6179Z" fill="white"/>
<path d="M208.245 149.17C211.9 149.17 214.863 146.207 214.863 142.552C214.863 138.897 211.9 135.934 208.245 135.934C204.59 135.934 201.627 138.897 201.627 142.552C201.627 146.207 204.59 149.17 208.245 149.17Z" fill="#1677FF"/>
<path d="M46.2904 124.519C46.2431 125.187 46.1691 125.935 46.0547 126.721L48.121 124.429L48.1324 124.468C48.006 123.916 47.8025 123.385 47.528 122.891L47.5412 122.927L46.2904 124.519Z" fill="#FFC200"/>
<path d="M46.2949 124.403L47.5066 122.861C47.2488 122.39 46.8759 121.993 46.4228 121.706C46.4006 121.693 46.3783 121.68 46.356 121.668C46.3626 121.85 46.3944 122.919 46.2949 124.403Z" fill="#FFC200"/>
<path d="M45.204 130.448C45.1508 130.61 45.0958 130.769 45.0391 130.925L48.0821 129.141L48.0863 129.186C48.1499 128.908 48.2029 128.631 48.2452 128.354L45.2068 130.468L45.204 130.448Z" fill="#FFC200"/>
<path d="M45.6289 128.95L48.3696 126.689L48.3774 126.732C48.387 125.984 48.3081 125.239 48.1424 124.51L46.0367 126.845C45.9261 127.581 45.7902 128.283 45.6289 128.95Z" fill="#FFC200"/>
<path d="M45.9881 126.802L42.7088 123.143L42.7263 123.102C42.418 123.536 42.1544 124 41.9395 124.487L45.6817 128.471C45.8099 127.89 45.91 127.326 45.9881 126.802Z" fill="#FFC200"/>
<path d="M41.9023 124.567L41.9025 124.567C41.9084 124.554 41.9135 124.539 41.9195 124.525L41.9023 124.567Z" fill="#FFC200"/>
<path d="M45.6591 128.567L41.9032 124.568C41.8397 124.714 41.7789 124.863 41.7207 125.017L45.5595 128.99C45.5944 128.848 45.6276 128.707 45.6591 128.567Z" fill="#FFC200"/>
<path d="M41.722 125.016L41.7051 125.057C41.7104 125.043 41.7165 125.03 41.722 125.016Z" fill="#FFC200"/>
<path d="M48.2515 128.3C48.3262 127.797 48.367 127.29 48.3734 126.781L45.5957 129.072C45.4857 129.516 45.3646 129.943 45.2324 130.353L48.2456 128.256L48.2515 128.3Z" fill="#FFC200"/>
<path d="M41.2234 128.587L44.2637 132.554C44.5135 132.071 44.7341 131.574 44.9243 131.064L41.2146 127.168C41.1778 127.655 41.1738 128.144 41.2024 128.632L41.2234 128.587Z" fill="#FFC200"/>
<path d="M46.3042 121.664L46.3314 121.652C45.6656 121.297 44.9448 121.335 44.2539 121.695L46.2451 124.4C46.3523 122.795 46.3049 121.68 46.3042 121.664Z" fill="#FFC200"/>
<path d="M44.9409 131.19C44.7664 131.649 44.567 132.097 44.3438 132.533L47.4019 130.951L47.405 130.995C47.6354 130.606 47.8156 130.189 47.9412 129.755C47.9898 129.584 48.0341 129.412 48.0742 129.24L44.9949 131.046C44.9769 131.094 44.9592 131.143 44.9409 131.19Z" fill="#FFC200"/>
<path d="M46.2347 124.521L44.1978 121.754L44.217 121.715C43.634 122.052 43.133 122.514 42.75 123.068L46.0026 126.698C46.1152 125.921 46.1881 125.182 46.2347 124.521Z" fill="#FFC200"/>
<path d="M44.9585 130.973C45.1852 130.354 45.3785 129.724 45.5375 129.085L41.6892 125.102C41.5976 125.35 41.5134 125.609 41.4368 125.878C41.3304 126.263 41.2594 126.658 41.2246 127.056L44.9555 130.974L44.9585 130.973Z" fill="#FFC200"/>
<path d="M48.9104 135.269C48.4475 135.754 47.9135 136.283 47.3242 136.815L50.3773 136.368L50.3616 136.405C50.616 135.9 50.7979 135.361 50.902 134.805L50.889 134.841L48.9104 135.269Z" fill="#FFC200"/>
<path d="M50.8108 133.189C50.8021 133.165 50.7929 133.141 50.7835 133.117C50.6725 133.262 50.0151 134.105 48.9922 135.185L50.9089 134.77C51.0104 134.243 50.9766 133.699 50.8108 133.189Z" fill="#FFC200"/>
<path d="M44.2949 139.143C44.1505 139.233 44.0066 139.321 43.8633 139.405L47.345 139.972L47.3197 140.009C47.5457 139.836 47.7634 139.656 47.9729 139.469L44.2841 139.16L44.2949 139.143Z" fill="#FFC200"/>
<path d="M45.5762 138.262L49.1286 138.269L49.1076 138.307C49.5917 137.737 50.0067 137.112 50.3439 136.445L47.2326 136.901C46.678 137.397 46.1259 137.851 45.5762 138.262Z" fill="#FFC200"/>
<path d="M44.377 139.091L48.0351 139.398L48.0117 139.435C48.3901 139.096 48.7452 138.731 49.0745 138.343L45.474 138.336C45.1058 138.608 44.7402 138.86 44.377 139.091Z" fill="#FFC200"/>
<path d="M39.8969 140.9C39.9228 140.874 39.9502 140.845 39.9772 140.817C40.7232 140.699 41.4521 140.49 42.1482 140.197L42.2476 137.561C42.2771 137.494 42.3057 137.426 42.3336 137.358L42.2278 140.164C42.7281 139.951 43.2152 139.709 43.6866 139.438L43.3468 134.537C43.373 134.523 43.3994 134.51 43.4266 134.495L43.7659 139.39L43.7692 139.39C44.3384 139.059 44.8893 138.697 45.4195 138.306L45.0496 133.483C45.0758 133.463 45.1019 133.445 45.1281 133.425L45.498 138.248C45.6154 138.161 45.7309 138.073 45.8446 137.985L45.5394 133.103C45.5656 133.082 45.5917 133.06 45.6177 133.038L45.9231 137.924C46.3928 137.558 46.829 137.189 47.2237 136.834L47.0317 131.925L47.0716 131.904C46.9353 131.94 46.7967 131.982 46.657 132.028C46.9198 131.728 47.1561 131.405 47.3634 131.065L44.276 132.662C44.0623 133.068 43.8219 133.459 43.5565 133.834C43.5013 133.886 43.4461 133.938 43.3917 133.992L43.3958 134.051C43.3706 134.084 43.3455 134.117 43.32 134.15L43.3145 134.071C43.2756 134.111 43.2376 134.153 43.199 134.194C43.59 133.706 43.9332 133.182 44.2237 132.628L41.2057 128.69C41.2263 129.042 41.2607 129.396 41.3049 129.748C41.0247 129.292 40.6844 128.876 40.2932 128.512L40.317 128.542L39.6195 130.443C39.7812 131.093 39.942 131.827 40.076 132.61L41.3156 129.831C41.3212 129.874 41.3272 129.917 41.3332 129.96L40.0967 132.733C40.219 133.467 40.3066 134.176 40.3594 134.861L41.8435 132.529C41.852 132.563 41.8605 132.596 41.869 132.629L40.3689 134.986C40.4015 135.442 40.4183 135.886 40.4194 136.317L42.2336 133.923C42.2433 133.954 42.2527 133.985 42.2621 134.015L40.4287 136.434L40.4198 136.416C40.4193 136.586 40.4162 136.755 40.4106 136.921L42.457 134.617C42.4678 134.649 42.4779 134.678 42.4872 134.705L40.4054 137.049C40.4033 137.101 40.4014 137.153 40.3988 137.204C40.3745 137.693 40.3234 138.181 40.246 138.665L40.4435 138.465C40.4061 138.543 40.3697 138.62 40.3342 138.695L40.2218 138.809C40.209 138.883 40.1943 138.955 40.1801 139.028C40.1386 139.119 40.0987 139.208 40.0602 139.294C40.0974 139.128 40.132 138.961 40.1615 138.792L36.0742 135.98C37.1406 138.709 39.1486 141.304 39.2772 141.468C39.3815 141.274 39.4763 141.073 39.5634 140.868C39.5887 140.866 39.614 140.863 39.6393 140.861C39.6288 140.886 39.6179 140.911 39.6073 140.936C39.5946 140.937 39.5817 140.939 39.5689 140.94C39.5789 140.943 39.5907 140.946 39.6015 140.949C39.5402 141.092 39.4766 141.233 39.4085 141.369C39.4977 141.289 39.6336 141.162 39.796 141.001C40.7571 141.246 43.3464 141.771 45.5634 140.996L42.1666 140.257C41.4397 140.565 40.6772 140.781 39.8969 140.9ZM42.2837 136.602L42.3652 136.519L42.3606 136.643L42.2791 136.725L42.2837 136.602Z" fill="#FFC200"/>
<path d="M50.7434 133.081L50.7721 133.089C50.4862 132.39 49.9067 131.96 49.1445 131.797L48.9531 135.15C50.0595 133.982 50.7337 133.094 50.7434 133.081Z" fill="#FFC200"/>
<path d="M43.6173 139.548C43.1906 139.789 42.7511 140.007 42.3008 140.201L45.6653 140.933L45.6397 140.969C46.0654 140.816 46.47 140.61 46.8439 140.355C46.9904 140.255 47.1339 140.151 47.2744 140.044L43.7512 139.471C43.7065 139.496 43.6618 139.523 43.6173 139.548Z" fill="#FFC200"/>
<path d="M47.3017 136.763C47.884 136.236 48.4115 135.714 48.8688 135.234L49.0647 131.804L49.1045 131.786C48.4404 131.674 47.7597 131.711 47.1113 131.893L47.3017 136.763Z" fill="#FFC200"/>
<path d="M40.2657 128.488C39.8751 128.12 39.3977 127.857 38.878 127.724C38.8528 127.719 38.8278 127.714 38.8027 127.709C38.8653 127.88 39.226 128.887 39.59 130.329L40.2657 128.488Z" fill="#FFC200"/>
<path d="M40.0387 132.704L35.7889 130.238L35.7928 130.193C35.6338 130.701 35.5266 131.224 35.4727 131.754L40.2632 134.386C40.2054 133.794 40.1266 133.227 40.0387 132.704Z" fill="#FFC200"/>
<path d="M40.2706 134.486L35.4626 131.844C35.4471 132.002 35.4355 132.163 35.4277 132.327L40.3066 134.919C40.296 134.773 40.284 134.629 40.2706 134.486Z" fill="#FFC200"/>
<path d="M40.3457 137.086L35.6133 134.527C35.7289 135.002 35.8762 135.468 36.0541 135.923L36.0603 135.874L40.1778 138.707C40.2661 138.171 40.3222 137.629 40.3457 137.086Z" fill="#FFC200"/>
<path d="M38.7509 127.722L38.773 127.702C38.0298 127.57 37.3561 127.829 36.8105 128.385L39.5402 130.342C39.146 128.782 38.7565 127.737 38.7509 127.722Z" fill="#FFC200"/>
<path d="M39.5677 130.459L36.7754 128.457L36.7814 128.414C36.3312 128.915 35.9976 129.51 35.8047 130.155L40.0198 132.601C39.8867 131.827 39.7276 131.102 39.5677 130.459Z" fill="#FFC200"/>
<path d="M40.3477 136.991C40.3721 136.333 40.3611 135.674 40.3147 135.016L35.4237 132.418C35.4135 132.683 35.4134 132.955 35.4236 133.234C35.4416 133.634 35.4959 134.031 35.5859 134.42L40.3454 136.994L40.3477 136.991Z" fill="#FFC200"/>
<path d="M287.323 158.272C290.058 158.272 292.276 156.055 292.276 153.319C292.276 150.584 290.058 148.367 287.323 148.367C284.588 148.367 282.371 150.584 282.371 153.319C282.371 156.055 284.588 158.272 287.323 158.272Z" fill="white"/>
<path d="M287.801 168.235H286.787L287.249 152.572L287.801 168.235Z" fill="#CBCBCB"/>
<path d="M287.339 155.542L288.428 154.035L287.324 155.915L287.205 155.706L287.339 155.542Z" fill="#CBCBCB"/>
<path d="M287.22 157.061L286.131 155.555L287.235 157.434L287.354 157.225L287.22 157.061Z" fill="#CBCBCB"/>
<path d="M273.242 153.519C277.281 153.519 280.556 150.244 280.556 146.205C280.556 142.165 277.281 138.891 273.242 138.891C269.202 138.891 265.928 142.165 265.928 146.205C265.928 150.244 269.202 153.519 273.242 153.519Z" fill="white"/>
<path d="M273.947 168.236H272.449L273.132 145.104L273.947 168.236Z" fill="#CBCBCB"/>
<path d="M273.265 149.487L274.873 147.262L273.243 150.038L273.066 149.729L273.265 149.487Z" fill="#CBCBCB"/>
<path d="M151.205 162.451C151.205 162.451 151.339 159.641 154.088 159.968Z" fill="#57B894"/>
<path d="M150.429 159.779C151.188 159.779 151.804 159.163 151.804 158.403C151.804 157.643 151.188 157.027 150.429 157.027C149.669 157.027 149.053 157.643 149.053 158.403C149.053 159.163 149.669 159.779 150.429 159.779Z" fill="#FFC200"/>
<path d="M150.593 160.719H150.205V163.437H150.593V160.719Z" fill="#4EA685"/>
<path d="M156.844 162.445C156.844 162.445 156.978 159.635 159.727 159.962Z" fill="#57B894"/>
<path d="M156.069 159.771C156.829 159.771 157.445 159.155 157.445 158.395C157.445 157.636 156.829 157.02 156.069 157.02C155.309 157.02 154.693 157.636 154.693 158.395C154.693 159.155 155.309 159.771 156.069 159.771Z" fill="#FFC200"/>
<path d="M156.234 160.711H155.846V163.43H156.234V160.711Z" fill="#4EA685"/>
<path d="M155.414 164.717C155.414 164.717 155.548 161.907 158.297 162.233Z" fill="#57B894"/>
<path d="M154.638 162.045C155.397 162.045 156.013 161.429 156.013 160.669C156.013 159.909 155.397 159.293 154.638 159.293C153.878 159.293 153.262 159.909 153.262 160.669C153.262 161.429 153.878 162.045 154.638 162.045Z" fill="#FFC200"/>
<path d="M154.802 162.986H154.414V165.705H154.802V162.986Z" fill="#4EA685"/>
<path d="M161.055 164.713C161.055 164.713 161.189 161.903 163.938 162.23Z" fill="#57B894"/>
<path d="M160.276 162.039C161.036 162.039 161.652 161.423 161.652 160.663C161.652 159.903 161.036 159.287 160.276 159.287C159.516 159.287 158.9 159.903 158.9 160.663C158.9 161.423 159.516 162.039 160.276 162.039Z" fill="#FFC200"/>
<path d="M160.441 162.979H160.053V165.697H160.441V162.979Z" fill="#4EA685"/>
<path d="M236.265 133.961C238.103 133.961 239.592 132.472 239.592 130.634C239.592 128.796 238.103 127.307 236.265 127.307C234.427 127.307 232.938 128.796 232.938 130.634C232.938 132.472 234.427 133.961 236.265 133.961Z" fill="#FF6584"/>
<path d="M246.699 140.886H230.375C230.355 140.886 230.335 140.884 230.314 140.881L238.035 127.509C238.082 127.425 238.15 127.356 238.233 127.308C238.315 127.26 238.409 127.234 238.505 127.234C238.601 127.234 238.695 127.26 238.777 127.308C238.86 127.356 238.928 127.425 238.975 127.509L244.157 136.483L244.405 136.912L246.699 140.886Z" fill="white"/>
<path opacity="0.2" d="M246.7 140.888H241.127L243.863 136.914L244.06 136.627L244.158 136.484L244.406 136.914L246.7 140.888Z" fill="black"/>
<path d="M255.788 140.886H241.67L244.406 136.912L244.603 136.626L248.168 131.447C248.401 131.108 248.964 131.087 249.238 131.383C249.257 131.404 249.274 131.425 249.29 131.447L255.788 140.886Z" fill="white"/>
<path d="M254.922 139.355C254.922 140.238 255.476 140.953 256.16 140.953Z" fill="#3B8A6D"/>
<path d="M256.16 140.953C256.16 140.06 256.778 139.338 257.542 139.338Z" fill="#3B8A6D"/>
<path d="M255.371 139.436C255.371 140.274 255.724 140.953 256.161 140.953Z" fill="#57B894"/>
<path d="M256.16 140.952C256.16 139.812 256.875 138.889 257.757 138.889Z" fill="#57B894"/>
</svg>
