<svg width="1367" height="395" viewBox="0 0 1367 395" fill="none" xmlns="http://www.w3.org/2000/svg">
<g clip-path="url(#clip0_2403_19342)">
<rect width="165.789" height="209.648" rx="5.27631" transform="matrix(-1 0 0 1 1217.79 0)" fill="white"/>
<path d="M1101.1 176.911C1103.44 175.079 1103.78 171.78 1101.87 169.543C1101.67 169.304 1101.44 169.083 1101.2 168.883L1113.54 137.939L1103.68 139.943L1093.2 169.706C1091.39 172.035 1091.88 175.334 1094.31 177.075C1096.34 178.532 1099.15 178.464 1101.1 176.911Z" fill="#FFB8B8"/>
<path d="M1096.03 143.021L1107.1 98.8178L1111.87 85.961C1111.87 85.9562 1111.88 85.9499 1111.88 85.9432C1112.65 83.843 1114.28 82.1294 1116.38 81.1867C1118.49 80.2196 1120.91 80.11 1123.1 80.8827C1123.29 80.9449 1123.47 81.0166 1123.65 81.0972C1124.03 81.2649 1124.41 81.456 1124.76 81.6695C1126.82 82.9122 1128.24 84.9156 1128.71 87.2038L1129.54 91.4238L1129.9 93.2209L1116.82 137.066V137.084L1112.27 152.355L1110.16 159.4V159.409L1107.72 167.608L1107.66 167.778L1101.8 167.402H1101.79L1100.91 167.34L1094.19 166.911L1093.22 166.848L1096.03 143.021Z" fill="#2F2E41"/>
<path d="M1140.98 69.2188L1116.32 117.065L1100.71 167.941C1133.59 174.089 1174.84 187.243 1177.81 168.378C1175.98 115.784 1170.22 99.0072 1158.32 76.2062L1140.98 69.2188Z" fill="#2F2E41"/>
<path d="M1108.01 210.996H1128.26L1136.48 184.379L1142.26 210.656C1142.28 210.772 1142.28 210.88 1142.3 210.996H1163.89C1163.2 202.77 1161.92 188.465 1161.31 186.436C1160.45 183.557 1161.31 183.557 1163.03 181.912C1163.41 181.545 1163.54 180.079 1163.5 178.031C1163.4 170.977 1161.4 157.003 1161.4 157.003L1159.02 152.783L1158.2 151.316L1115.86 149.886L1115.49 149.877L1114.71 153.149L1113.75 157.182L1112.06 164.254L1110.5 169.895L1110.42 170.181V171.853C1110.69 172.436 1110.81 173.069 1110.77 173.704C1110.77 174.276 1109.43 192.104 1108.01 210.996Z" fill="#2F2E41"/>
<path d="M1143.88 76.3152L1140.97 69.6445L1131.98 69.796L1122.59 82.524L1112.75 122.241C1112.75 122.241 1109.21 151.254 1112.75 152.786C1116.28 154.318 1159.11 153.503 1159.11 153.503C1157.13 137.834 1155.65 121.895 1154.09 112.374C1148.95 80.9045 1146.52 87.527 1143.88 76.3152Z" fill="#1677FF"/>
<path d="M1131.98 69.7949C1131.98 69.7949 1112.6 80.54 1111.84 86.149C1111.08 91.7579 1108.54 160.408 1108.54 160.408L1115.4 156.161L1117.27 131.14C1115.97 108.907 1119.15 92.3355 1125.64 79.9131L1131.98 69.7949Z" fill="#2F2E41"/>
<path d="M1123.51 56.0302C1122.34 49.1239 1127.24 42.6168 1134.44 41.496C1141.64 40.3753 1148.42 45.0654 1149.59 51.9717C1150.76 58.8779 1145.87 65.3851 1138.67 66.5058C1131.47 67.6266 1124.68 62.9365 1123.51 56.0302Z" fill="#FFB8B8"/>
<path d="M1152.82 53.2502C1152.23 55.817 1151.17 58.2619 1149.68 60.4692C1149.29 61.2218 1148.7 61.8644 1147.97 62.3352C1147.21 62.8037 1146.21 62.6836 1145.59 62.0499L1145.27 61.7988C1145.9 61.4264 1146.46 60.958 1146.93 60.4121C1147.41 59.8562 1147.57 59.1145 1147.38 58.4205C1147.14 57.7194 1146.37 57.3236 1145.63 57.5245C1144.86 57.8155 1144.39 58.8884 1143.58 58.7229C1142.92 58.5859 1142.79 57.7585 1142.79 57.108C1142.81 53.7068 1141.1 48.8732 1139.77 49.0216C1138.43 49.0919 1137.09 48.9196 1135.81 48.5137C1134.54 48.1071 1133.19 47.9424 1131.85 48.0286C1131.75 48.04 1131.66 48.0572 1131.56 48.0743C1131.34 47.4281 1131.05 46.8092 1130.68 46.2311C1130.72 46.9289 1130.68 47.6291 1130.57 48.3197C1129.5 48.7416 1128.4 49.0757 1127.27 49.3183C1126.05 49.4839 1123.35 52.9992 1123.23 52.6396C1123.01 51.9934 1122.72 51.3745 1122.35 50.7964C1122.39 51.4943 1122.35 52.1944 1122.24 52.885C1122.23 52.9135 1122.23 52.9364 1122.23 52.9649C1121.63 52.2059 1121.27 51.2814 1121.47 51.989C1119.48 47.6634 1120.25 44.5647 1123.39 40.9181C1124 40.1341 1124.81 39.5116 1125.74 39.1091C1126.68 38.7099 1127.78 38.8137 1128.63 39.3831C1131.23 37.0929 1134.93 36.3371 1138.28 37.4086C1141.55 38.4985 1144.06 39.1377 1144.56 42.4247C1147.35 42.133 1150.06 43.3979 1151.53 45.6775C1152.94 47.9562 1153.4 50.6601 1152.82 53.2502Z" fill="#2F2E41"/>
<path d="M1189.84 173.784C1190.96 171.1 1189.6 168.052 1186.8 166.976C1186.51 166.862 1186.2 166.772 1185.88 166.71L1181.12 133.896L1173.49 140.217L1179.3 171.131C1178.88 174.011 1180.97 176.67 1183.98 177.071C1186.49 177.407 1188.91 176.048 1189.84 173.784Z" fill="#FFB8B8"/>
<path d="M1147.81 86.194L1148.17 83.0111C1148.52 80.0716 1150.44 77.5197 1153.24 76.2877C1154.31 75.8139 1155.46 75.5552 1156.64 75.5277H1156.65C1160.18 75.4487 1163.41 77.4077 1164.86 80.4988L1170.68 92.9711L1185.36 136.2L1190.11 159.714L1184.98 160.438L1177.55 161.484L1177.49 161.493L1175.79 161.735L1151.95 100.544L1151.94 100.526L1147.48 89.0909L1147.81 86.194Z" fill="#2F2E41"/>
<path d="M1058.52 211.645H1211.27C1214.87 211.641 1217.78 208.844 1217.79 205.394V6.25111C1217.79 2.80032 1214.87 0.00386676 1211.27 0H1058.52C1054.92 0.00386676 1052 2.80032 1052 6.25111V205.394C1052 208.844 1054.92 211.641 1058.52 211.645ZM1211.27 1.78603C1213.84 1.78891 1215.92 3.78632 1215.93 6.25111V205.394C1215.92 207.858 1213.84 209.856 1211.27 209.859H1058.52C1055.95 209.856 1053.87 207.858 1053.86 205.394V6.25111C1053.87 3.78632 1055.95 1.78891 1058.52 1.78603H1211.27Z" fill="#E6E6E6"/>
<path d="M1304.67 149.749H1354.72C1361.5 149.749 1367 144.385 1367 137.769C1367 131.153 1361.5 125.789 1354.72 125.789H1304.67C1297.89 125.789 1292.39 131.153 1292.39 137.769C1292.39 144.385 1297.89 149.749 1304.67 149.749Z" fill="#D2D2D2"/>
<path d="M1281.53 195.671H1330.19C1336.79 195.671 1342.13 190.307 1342.13 183.691C1342.13 177.075 1336.79 171.711 1330.19 171.711H1281.53C1274.94 171.711 1269.6 177.075 1269.6 183.691C1269.6 190.307 1274.94 195.671 1281.53 195.671Z" fill="#D2D2D2"/>
<path d="M1255.09 186.384L1255.12 188.172L1159.64 189.495L1159.61 187.706L1255.09 186.384Z" fill="#D2D2D2"/>
<path d="M1275.6 138.995L1275.63 140.783L1180.15 142.106L1180.12 140.318L1275.6 138.995Z" fill="#D2D2D2"/>
<path d="M1175.32 146.068C1177.43 146.07 1179.35 144.916 1180.27 143.094C1181.6 140.465 1180.47 137.294 1177.74 136.011C1175.01 134.727 1171.72 135.819 1170.39 138.448C1169.06 141.077 1170.19 144.249 1172.92 145.532C1173.67 145.884 1174.49 146.067 1175.32 146.068ZM1178.29 142.166C1177.5 143.742 1175.52 144.397 1173.89 143.627C1172.25 142.858 1171.57 140.957 1172.37 139.38C1173.17 137.804 1175.14 137.149 1176.78 137.918C1177.56 138.288 1178.16 138.942 1178.45 139.738C1178.73 140.535 1178.68 141.408 1178.29 142.166Z" fill="#D2D2D2"/>
<path d="M1139.19 101.416C1141.29 101.418 1143.21 100.263 1144.14 98.442C1145.47 95.8128 1144.34 92.6413 1141.61 91.3582C1138.88 90.0751 1135.59 91.1663 1134.26 93.7955C1132.92 96.4246 1134.06 99.5962 1136.79 100.879C1137.53 101.231 1138.36 101.415 1139.19 101.416ZM1142.16 97.5133C1141.36 99.0898 1139.39 99.7443 1137.75 98.9751C1136.12 98.2059 1135.44 96.3043 1136.24 94.7278C1137.03 93.1512 1139.01 92.4967 1140.64 93.2659C1141.43 93.6352 1142.03 94.2898 1142.32 95.0859C1142.6 95.8828 1142.54 96.7558 1142.16 97.5133Z" fill="#D2D2D2"/>
<path d="M1267.37 103.824H1317.42C1324.2 103.824 1329.7 98.9078 1329.7 92.8429C1329.7 86.778 1324.2 81.8613 1317.42 81.8613H1267.37C1260.59 81.8613 1255.09 86.778 1255.09 92.8429C1255.09 98.9078 1260.59 103.824 1267.37 103.824Z" fill="#D2D2D2"/>
<path d="M1238.32 94.2919L1238.34 96.0801L1142.86 97.4029L1142.84 95.6147L1238.32 94.2919Z" fill="#D2D2D2"/>
<path d="M1156.65 193.675C1158.63 193.676 1160.44 192.589 1161.31 190.873C1162.56 188.395 1161.5 185.407 1158.93 184.198C1156.36 182.989 1153.25 184.017 1152 186.495C1150.75 188.972 1151.81 191.96 1154.38 193.169C1155.09 193.501 1155.86 193.674 1156.65 193.675ZM1159.45 189.998C1158.7 191.483 1156.84 192.1 1155.3 191.375C1153.75 190.65 1153.11 188.858 1153.87 187.373C1154.62 185.888 1156.48 185.271 1158.02 185.996C1158.76 186.344 1159.33 186.96 1159.59 187.71C1159.86 188.461 1159.81 189.284 1159.45 189.998Z" fill="#D2D2D2"/>
</g>
<defs>
<clipPath id="clip0_2403_19342">
<rect width="1367" height="395" fill="white"/>
</clipPath>
</defs>
</svg>
