<svg width="1369" height="395" viewBox="0 0 1369 395" fill="none" xmlns="http://www.w3.org/2000/svg">
<path d="M629.374 295.891C535.684 286.548 437.107 277.689 336.405 269.561L331.35 269.153V296.721H637.692L629.374 295.891ZM333.222 295.804V270.283C429.022 278.042 527.651 286.938 617.107 295.804H333.222ZM1103.53 352.546C1063.01 346.778 1021.45 341.142 978.829 335.637C967.081 334.117 955.259 332.61 943.365 331.115C870.78 321.986 795.806 313.303 718.445 305.067L717.542 304.971H331.35V353.323H1108.99L1103.53 352.546ZM333.222 352.406V305.887H715.248C789.843 313.832 862.417 322.222 932.972 331.056C945.223 332.589 957.39 334.134 969.474 335.692C1011.72 341.127 1052.97 346.699 1093.24 352.406H333.222ZM1103.53 352.546C1063.01 346.778 1021.45 341.142 978.829 335.637C967.081 334.117 955.259 332.61 943.365 331.115C870.78 321.986 795.806 313.303 718.445 305.067L717.542 304.971H331.35V353.323H1108.99L1103.53 352.546ZM333.222 352.406V305.887H715.248C789.843 313.832 862.417 322.222 932.972 331.056C945.223 332.589 957.39 334.134 969.474 335.692C1011.72 341.127 1052.97 346.699 1093.24 352.406H333.222ZM629.374 295.891C535.684 286.548 437.107 277.689 336.405 269.561L331.35 269.153V296.721H637.692L629.374 295.891ZM333.222 295.804V270.283C429.022 278.042 527.651 286.938 617.107 295.804H333.222ZM629.374 295.891C535.684 286.548 437.107 277.689 336.405 269.561L331.35 269.153V296.721H637.692L629.374 295.891ZM333.222 295.804V270.283C429.022 278.042 527.651 286.938 617.107 295.804H333.222ZM1103.53 352.546C1063.01 346.778 1021.45 341.142 978.829 335.637C967.081 334.117 955.259 332.61 943.365 331.115C870.78 321.986 795.806 313.303 718.445 305.067L717.542 304.971H331.35V353.323H1108.99L1103.53 352.546ZM333.222 352.406V305.887H715.248C789.843 313.832 862.417 322.222 932.972 331.056C945.223 332.589 957.39 334.134 969.474 335.692C1011.72 341.127 1052.97 346.699 1093.24 352.406H333.222ZM0.00390625 361.573V362.489H269.05V375.781H0.00390625V376.697H271.099V361.573H0.00390625ZM331.35 386.196V394.235H333.222V387.307H1369V386.196H331.35ZM1369 362.489V361.573H331.35V376.697H1369V375.781H333.222V362.489H1369ZM743.818 295.804C615.386 282.239 474.931 269.239 333.222 258.432V250L331.35 250V259.353L333.222 259.543C474.353 270.32 612.719 283.105 740.637 296.625L741.541 296.721H1369V295.804L743.818 295.804ZM269.05 296.721L0.00390625 295.804V296.721H271.099V250.765H269.05V296.721ZM1369 304.971H817.391L824.604 305.782C892.52 313.433 959.203 321.549 1024.65 330.128C1033.96 331.347 1043.23 332.576 1052.47 333.815C1098.46 339.968 1143.55 346.321 1187.75 352.876L1193.27 353.323H1369V352.406H1193.69C1149.98 345.917 1105.31 339.615 1059.7 333.501C1050.58 332.277 1041.42 331.062 1032.24 329.855C968.201 321.442 902.801 313.453 836.034 305.887H1369V304.971ZM0.00390625 386.567V387.307H269.05V395H271.099L270.952 386.567H0.00390625ZM0.00390625 304.971V305.887H269.05V352.406H0.00390625V353.323H271.099V304.971H0.00390625ZM629.374 295.891C535.684 286.548 437.107 277.689 336.405 269.561L331.35 269.153V296.721H637.692L629.374 295.891ZM333.222 295.804V270.283C429.022 278.042 527.651 286.938 617.107 295.804H333.222ZM1103.53 352.546C1063.01 346.778 1021.45 341.142 978.829 335.637C967.081 334.117 955.259 332.61 943.365 331.115C870.78 321.986 795.806 313.303 718.445 305.067L717.542 304.971H331.35V353.323H1108.99L1103.53 352.546ZM333.222 352.406V305.887H715.248C789.843 313.832 862.417 322.222 932.972 331.056C945.223 332.589 957.39 334.134 969.474 335.692C1011.72 341.127 1052.97 346.699 1093.24 352.406H333.222ZM629.374 295.891C535.684 286.548 437.107 277.689 336.405 269.561L331.35 269.153V296.721H637.692L629.374 295.891ZM333.222 295.804V270.283C429.022 278.042 527.651 286.938 617.107 295.804H333.222ZM1103.53 352.546C1063.01 346.778 1021.45 341.142 978.829 335.637C967.081 334.117 955.259 332.61 943.365 331.115C870.78 321.986 795.806 313.303 718.445 305.067L717.542 304.971H331.35V353.323H1108.99L1103.53 352.546ZM333.222 352.406V305.887H715.248C789.843 313.832 862.417 322.222 932.972 331.056C945.223 332.589 957.39 334.134 969.474 335.692C1011.72 341.127 1052.97 346.699 1093.24 352.406H333.222Z" fill="#B1B1B1"/>
<line y1="250.523" x2="1369.01" y2="250.523" stroke="#B1B1B1"/>
<path d="M18.9018 218.741C18.8197 219.973 18.691 221.351 18.4922 222.799L22.0839 218.576L22.1037 218.647C21.884 217.63 21.5304 216.652 21.0531 215.74L21.0761 215.807L18.9018 218.741Z" fill="#FFC200"/>
<path d="M18.918 218.526L21.0241 215.685C20.5761 214.818 19.9279 214.085 19.1403 213.556C19.1017 213.532 19.0629 213.509 19.0241 213.486C19.0357 213.822 19.0908 215.792 18.918 218.526Z" fill="#FFC200"/>
<path d="M17.0172 229.666C16.9246 229.964 16.8291 230.258 16.7305 230.546L22.02 227.258L22.0274 227.34C22.1379 226.829 22.23 226.318 22.3035 225.807L17.022 229.703L17.0172 229.666Z" fill="#FFC200"/>
<path d="M17.7539 226.907L22.5178 222.741L22.5314 222.819C22.5482 221.442 22.4111 220.068 22.1229 218.725L18.4627 223.028C18.2705 224.384 18.0342 225.677 17.7539 226.907Z" fill="#FFC200"/>
<path d="M18.3813 222.946L12.681 216.203L12.7115 216.127C12.1756 216.927 11.7174 217.782 11.3438 218.679L17.8487 226.022C18.0716 224.95 18.2456 223.913 18.3813 222.946Z" fill="#FFC200"/>
<path d="M11.2812 218.829L11.2815 218.829C11.2917 218.804 11.3007 218.777 11.3111 218.752L11.2812 218.829Z" fill="#FFC200"/>
<path d="M17.8108 226.199L11.2821 218.83C11.1717 219.098 11.066 219.374 10.9648 219.657L17.6376 226.979C17.6983 226.717 17.756 226.458 17.8108 226.199Z" fill="#FFC200"/>
<path d="M10.9629 219.656L10.9336 219.733C10.9429 219.707 10.9535 219.683 10.9629 219.656Z" fill="#FFC200"/>
<path d="M22.3181 225.709C22.4481 224.782 22.519 223.847 22.5302 222.91L17.7018 227.132C17.5105 227.95 17.3 228.737 17.0703 229.493L22.3079 225.629L22.3181 225.709Z" fill="#FFC200"/>
<path d="M10.1004 226.233L15.3852 233.542C15.8194 232.652 16.2029 231.736 16.5336 230.798L10.0852 223.617C10.0212 224.515 10.0142 225.416 10.0639 226.315L10.1004 226.233Z" fill="#FFC200"/>
<path d="M18.9272 213.479L18.9745 213.457C17.8172 212.801 16.5642 212.872 15.3633 213.536L18.8245 218.52C19.0108 215.562 18.9284 213.509 18.9272 213.479Z" fill="#FFC200"/>
<path d="M16.5614 231.035C16.258 231.88 15.9115 232.706 15.5234 233.51L20.8393 230.594L20.8446 230.675C21.2451 229.958 21.5583 229.19 21.7767 228.389C21.8611 228.074 21.9382 227.758 22.0079 227.441L16.6553 230.769C16.6241 230.858 16.5932 230.947 16.5614 231.035Z" fill="#FFC200"/>
<path d="M18.8073 218.741L15.2667 213.643L15.2999 213.57C14.2866 214.192 13.4157 215.044 12.75 216.065L18.4039 222.753C18.5996 221.321 18.7263 219.959 18.8073 218.741Z" fill="#FFC200"/>
<path d="M16.5881 230.634C16.9822 229.494 17.3182 228.332 17.5945 227.154L10.9052 219.814C10.746 220.273 10.5997 220.75 10.4664 221.245C10.2815 221.955 10.1581 222.682 10.0977 223.416L16.583 230.637L16.5881 230.634Z" fill="#FFC200"/>
<path d="M23.4602 238.551C22.6557 239.445 21.7275 240.419 20.7031 241.4L26.0101 240.576L25.9828 240.644C26.4251 239.713 26.7413 238.72 26.9222 237.695L26.8997 237.762L23.4602 238.551Z" fill="#FFC200"/>
<path d="M26.7628 234.718C26.7477 234.674 26.7316 234.63 26.7154 234.586C26.5223 234.852 25.3796 236.407 23.6016 238.396L26.9333 237.631C27.1097 236.661 27.051 235.659 26.7628 234.718Z" fill="#FFC200"/>
<path d="M15.4378 245.689C15.1868 245.857 14.9367 246.018 14.6875 246.173L20.7396 247.218L20.6957 247.286C21.0884 246.967 21.4668 246.636 21.8311 246.292L15.4189 245.722L15.4378 245.689Z" fill="#FFC200"/>
<path d="M17.6641 244.062L23.8391 244.076L23.8026 244.145C24.6441 243.095 25.3655 241.944 25.9516 240.715L20.5434 241.554C19.5794 242.469 18.6196 243.305 17.6641 244.062Z" fill="#FFC200"/>
<path d="M15.582 245.591L21.9407 246.156L21.9002 246.225C22.5579 245.599 23.1751 244.927 23.7475 244.213L17.4889 244.199C16.849 244.7 16.2134 245.164 15.582 245.591Z" fill="#FFC200"/>
<path d="M7.79318 248.929C7.83821 248.88 7.88587 248.828 7.93287 248.777C9.22947 248.558 10.4965 248.174 11.7065 247.634L11.8793 242.775C11.9306 242.652 11.9804 242.527 12.0288 242.402L11.8449 247.572C12.7146 247.18 13.5613 246.734 14.3806 246.235L13.7901 237.203C13.8356 237.178 13.8814 237.152 13.9287 237.126L14.5184 246.146L14.5243 246.147C15.5136 245.536 16.4712 244.868 17.3929 244.148L16.7498 235.26C16.7954 235.224 16.8408 235.19 16.8864 235.154L17.5294 244.041C17.7334 243.881 17.9342 243.72 18.1318 243.558L17.6013 234.561C17.6467 234.521 17.6921 234.482 17.7375 234.441L18.2683 243.445C19.0846 242.771 19.8429 242.089 20.529 241.437L20.1953 232.389L20.2647 232.351C20.0277 232.416 19.7868 232.494 19.544 232.579C20.0007 232.026 20.4116 231.432 20.7719 230.804L15.4052 233.748C15.0337 234.496 14.6159 235.217 14.1544 235.907C14.0585 236.003 13.9626 236.099 13.8681 236.199L13.8751 236.307C13.8313 236.368 13.7878 236.43 13.7435 236.49L13.7339 236.344C13.6662 236.418 13.6001 236.496 13.5332 236.571C14.2128 235.672 14.8092 234.705 15.3143 233.685L10.0682 226.428C10.104 227.077 10.1638 227.73 10.2407 228.377C9.75363 227.538 9.16212 226.772 8.4821 226.1L8.52342 226.156L7.31098 229.658C7.59205 230.857 7.87154 232.209 8.10461 233.652L10.2592 228.53C10.269 228.61 10.2795 228.689 10.2898 228.769L8.14044 233.878C8.35309 235.231 8.50533 236.538 8.59719 237.799L11.177 233.503C11.1917 233.565 11.2064 233.627 11.2212 233.688L8.61361 238.03C8.67034 238.871 8.69961 239.689 8.70144 240.482L11.8549 236.071C11.8718 236.13 11.8882 236.186 11.9045 236.242L8.71768 240.699L8.70219 240.665C8.7013 240.979 8.69593 241.29 8.68613 241.596L12.2432 237.35C12.2621 237.409 12.2797 237.464 12.2959 237.513L8.6772 241.833C8.67348 241.928 8.67022 242.023 8.66565 242.117C8.62331 243.019 8.53465 243.919 8.40009 244.811L8.74336 244.442C8.67834 244.585 8.61503 244.726 8.5534 244.865L8.35806 245.075C8.33564 245.211 8.31011 245.345 8.28551 245.479C8.21343 245.646 8.14398 245.81 8.07714 245.97C8.14166 245.664 8.20182 245.356 8.25319 245.045L1.14844 239.863C3.00202 244.891 6.49249 249.673 6.71595 249.976C6.89734 249.617 7.06218 249.248 7.2135 248.87C7.25747 248.866 7.30144 248.861 7.34537 248.857C7.32722 248.903 7.30833 248.948 7.28982 248.994C7.26768 248.997 7.24525 249.001 7.22315 249.003C7.24037 249.008 7.26102 249.014 7.27974 249.02C7.17312 249.283 7.06265 249.542 6.94418 249.792C7.09923 249.645 7.33546 249.411 7.61785 249.115C9.28853 249.567 13.7893 250.534 17.643 249.105L11.7385 247.744C10.475 248.311 9.14963 248.709 7.79318 248.929ZM11.9422 241.008L12.0837 240.856L12.0757 241.084L11.9341 241.236L11.9422 241.008Z" fill="#FFC200"/>
<path d="M26.6431 234.514L26.6931 234.529C26.1961 233.242 25.1887 232.449 23.864 232.148L23.5312 238.327C25.4544 236.175 26.6264 234.538 26.6431 234.514Z" fill="#FFC200"/>
<path d="M14.2571 246.435C13.5155 246.88 12.7516 247.282 11.9688 247.639L17.8172 248.988L17.7726 249.054C18.5126 248.772 19.216 248.392 19.8659 247.923C20.1204 247.738 20.3698 247.547 20.6141 247.35L14.4899 246.293C14.4123 246.34 14.3346 246.389 14.2571 246.435Z" fill="#FFC200"/>
<path d="M20.663 241.306C21.6751 240.335 22.592 239.372 23.387 238.489L23.7274 232.168L23.7967 232.135C22.6422 231.928 21.459 231.995 20.332 232.332L20.663 241.306Z" fill="#FFC200"/>
<path d="M8.4336 226.054C7.75471 225.377 6.92481 224.893 6.02152 224.648C5.97772 224.637 5.93416 224.628 5.89062 224.619C5.99941 224.935 6.6263 226.79 7.25907 229.447L8.4336 226.054Z" fill="#FFC200"/>
<path d="M8.03847 233.826L0.651335 229.282L0.658113 229.199C0.38171 230.135 0.195247 231.099 0.101562 232.075L8.42869 236.926C8.32824 235.834 8.19121 234.79 8.03847 233.826Z" fill="#FFC200"/>
<path d="M8.44547 237.109L0.0878976 232.24C0.0610906 232.531 0.0409069 232.828 0.0273438 233.131L8.50802 237.907C8.48955 237.639 8.4687 237.373 8.44547 237.109Z" fill="#FFC200"/>
<path d="M8.56993 241.901L0.34375 237.186C0.544707 238.06 0.80071 238.92 1.11004 239.758L1.12085 239.668L8.278 244.888C8.43154 243.899 8.52902 242.902 8.56993 241.901Z" fill="#FFC200"/>
<path d="M5.79852 224.645L5.83704 224.608C4.54522 224.364 3.37411 224.841 2.42578 225.867L7.17062 229.472C6.48533 226.598 5.80831 224.672 5.79852 224.645Z" fill="#FFC200"/>
<path d="M7.2207 229.686L2.36704 225.998L2.37745 225.918C1.59493 226.841 1.0151 227.937 0.679688 229.126L8.00667 233.634C7.77529 232.208 7.4987 230.871 7.2207 229.686Z" fill="#FFC200"/>
<path d="M8.57633 241.724C8.61888 240.511 8.59977 239.296 8.51906 238.085L0.0172981 233.297C-0.000491578 233.785 -0.000557597 234.286 0.0171009 234.801C0.0482928 235.537 0.142733 236.269 0.299249 236.986L8.57242 241.729L8.57633 241.724Z" fill="#FFC200"/>
<path d="M1036.67 238.765C1036.67 246.92 1019.84 265.086 1019.84 265.086C1019.84 265.086 1003 246.92 1003 238.765C1003 234.849 1004.78 231.094 1007.93 228.325C1011.09 225.556 1015.37 224 1019.84 224C1024.3 224 1028.58 225.556 1031.74 228.325C1034.9 231.094 1036.67 234.849 1036.67 238.765Z" fill="#1677FF"/>
<path d="M1027.53 238.123C1027.53 239.458 1027.08 240.763 1026.23 241.873C1025.39 242.983 1024.19 243.848 1022.78 244.359C1021.37 244.87 1019.83 245.004 1018.33 244.743C1016.84 244.483 1015.47 243.84 1014.39 242.896C1013.32 241.952 1012.59 240.749 1012.29 239.44C1011.99 238.13 1012.14 236.773 1012.73 235.54C1013.31 234.306 1014.3 233.252 1015.56 232.511C1016.83 231.769 1018.31 231.373 1019.84 231.373C1020.85 231.373 1021.85 231.547 1022.78 231.886C1023.71 232.225 1024.56 232.722 1025.28 233.349C1025.99 233.976 1026.56 234.72 1026.95 235.539C1027.33 236.359 1027.53 237.236 1027.53 238.123Z" fill="white"/>
<path d="M1019.83 275.744C1022.34 275.744 1024.37 273.962 1024.37 271.763C1024.37 269.565 1022.34 267.783 1019.83 267.783C1017.33 267.783 1015.3 269.565 1015.3 271.763C1015.3 273.962 1017.33 275.744 1019.83 275.744Z" fill="#1677FF"/>
<path d="M1189 347C1189 347 1189.47 336.923 1199 338.095Z" fill="#57B894"/>
<path d="M1186 338C1188.77 338 1191 335.761 1191 333C1191 330.239 1188.77 328 1186 328C1183.24 328 1181 330.239 1181 333C1181 335.761 1183.24 338 1186 338Z" fill="#FFC200"/>
<path d="M1187 341H1185V351H1187V341Z" fill="#4EA685"/>
<path d="M1202 349C1202 349 1202.52 338.923 1213 340.095Z" fill="#57B894"/>
<path d="M1200 340C1202.77 340 1205 337.761 1205 335C1205 332.239 1202.77 330 1200 330C1197.24 330 1195 332.239 1195 335C1195 337.761 1197.24 340 1200 340Z" fill="#FFC200"/>
<path d="M1200 343H1199V353H1200V343Z" fill="#4EA685"/>
<path d="M1215 345C1215 345 1215.47 334.923 1225 336.095Z" fill="#57B894"/>
<path d="M1212 336C1214.77 336 1217 333.761 1217 331C1217 328.239 1214.77 326 1212 326C1209.24 326 1207 328.239 1207 331C1207 333.761 1209.24 336 1212 336Z" fill="#FFC200"/>
<path d="M1213 339H1211V350H1213V339Z" fill="#4EA685"/>
<path d="M1227 348C1227 348 1227.52 337.923 1238 339.095Z" fill="#57B894"/>
<path d="M1225 339C1227.77 339 1230 336.761 1230 334C1230 331.239 1227.77 329 1225 329C1222.24 329 1220 331.239 1220 334C1220 336.761 1222.24 339 1225 339Z" fill="#FFC200"/>
<path d="M1225 342H1224V352H1225V342Z" fill="#4EA685"/>
<path d="M221.504 345C225.646 345 229.004 339.376 229.004 332.438C229.004 325.5 224.123 321.745 220.75 320C216.608 320 214.004 325.5 214.004 332.438C214.004 339.376 217.362 345 221.504 345Z" fill="#4EA685"/>
<path d="M222.165 345C225.942 345 229.004 339.475 229.004 332.66C227.184 325.953 225.462 322.769 221.843 319C218.066 319 215.004 324.525 215.004 331.34C215.004 338.154 218.387 345 222.165 345Z" fill="#57B894"/>
<path d="M221.611 353C224.729 338.546 221.642 324.144 221.611 324L221.004 324.079C221.035 324.222 224.105 338.549 221.004 352.922L221.611 353Z" fill="#CACACA"/>
<path d="M215.837 330.108L215.57 330.533L222.029 333.486L222.295 333.06L215.837 330.108Z" fill="#CACACA"/>
<path d="M228.845 331.587L222.387 334.541L222.653 334.966L229.111 332.012L228.845 331.587Z" fill="#CACACA"/>
<path d="M211.504 344C215.646 344 219.004 337.251 219.004 328.925C219.004 320.6 214.123 316.094 210.75 314C206.608 314 204.004 320.6 204.004 328.925C204.004 337.251 207.362 344 211.504 344Z" fill="#4EA685"/>
<path d="M212.165 344C215.942 344 219.004 337.413 219.004 329.287C217.184 321.29 215.462 317.494 211.843 313C208.066 313 205.004 319.587 205.004 327.713C205.004 335.838 208.387 344 212.165 344Z" fill="#57B894"/>
<path d="M211.611 353C214.729 336.054 211.642 319.168 211.611 319L211.004 319.093C211.035 319.261 214.105 336.057 211.004 352.909L211.611 353Z" fill="#CACACA"/>
<path d="M205.837 326.068L205.57 326.568L212.029 330.042L212.295 329.541L205.837 326.068Z" fill="#CACACA"/>
<path d="M218.845 327.808L212.387 331.283L212.653 331.784L219.111 328.308L218.845 327.808Z" fill="#CACACA"/>
</svg>
