<svg width="1369" height="395" viewBox="0 0 1369 395" fill="none" xmlns="http://www.w3.org/2000/svg">
<g clip-path="url(#clip0_2403_19316)">
<rect width="119.605" height="160.498" rx="5.27631" transform="matrix(-1 0 0 1 217.398 98.8105)" fill="white"/>
<path d="M178.449 249.361C179.21 249.397 179.854 248.799 179.889 248.026C179.908 247.613 179.747 247.213 179.448 246.933L179.354 246.551L179.391 246.46C180.188 244.546 182.36 243.652 184.242 244.462C185.136 244.847 185.846 245.574 186.218 246.485C187.334 249.219 188.756 251.957 189.106 254.848C189.26 256.125 189.195 257.421 188.914 258.676C191.536 252.86 192.898 246.54 192.906 240.143C192.907 238.537 192.819 236.933 192.644 235.338C192.499 234.03 192.297 232.732 192.04 231.442C190.634 224.447 187.616 217.891 183.234 212.312C181.113 211.135 179.398 209.326 178.32 207.128C177.929 206.338 177.653 205.495 177.5 204.624C177.739 204.656 177.982 204.676 178.222 204.692C178.296 204.696 178.375 204.7 178.449 204.704L178.477 204.705C179.231 204.739 179.869 204.147 179.902 203.381C179.917 203.041 179.809 202.708 179.599 202.444C179.495 202.315 179.392 202.185 179.289 202.056C179.132 201.857 178.971 201.662 178.814 201.462C178.796 201.443 178.779 201.423 178.763 201.402C178.583 201.175 178.402 200.952 178.222 200.725C178.551 200.205 178.994 199.77 179.516 199.453C181.324 198.376 183.819 199.122 185.125 200.784C186.364 202.541 186.768 204.767 186.227 206.857C185.78 208.625 185.039 210.302 184.038 211.817C184.136 211.945 184.238 212.068 184.336 212.196C186.129 214.539 187.691 217.055 189.001 219.708C188.682 216.736 189.062 213.73 190.11 210.936C191.172 208.332 193.161 206.14 194.914 203.889C196.208 202.2 198.604 201.898 200.265 203.214C201.062 203.846 201.58 204.773 201.705 205.793L201.716 205.892C201.455 206.041 201.201 206.2 200.951 206.367C200.093 206.95 199.862 208.13 200.436 209.003C200.727 209.446 201.187 209.744 201.705 209.825L201.743 209.831C201.65 210.785 201.487 211.73 201.253 212.658C199.884 217.898 196.429 222.319 191.718 224.859C191.565 224.939 191.416 225.019 191.263 225.095C192.579 228.886 193.404 232.834 193.718 236.841C193.896 239.205 193.886 241.58 193.687 243.943L193.699 243.859C194.201 241.232 195.579 238.862 197.601 237.148C200.605 234.64 204.848 233.717 208.088 231.701C209.085 231.05 210.412 231.344 211.052 232.358C211.326 232.792 211.44 233.311 211.374 233.823L211.36 233.911C210.877 234.111 210.407 234.341 209.952 234.6C209.692 234.75 209.437 234.908 209.188 235.076C208.33 235.659 208.099 236.839 208.672 237.711C208.963 238.154 209.424 238.453 209.942 238.534L209.98 238.54C210.007 238.544 210.031 238.548 210.058 238.552C209.233 240.555 208.075 242.399 206.634 244.002C203.037 247.926 198.009 250.169 192.734 250.203H192.73C192.021 253.333 190.995 256.379 189.667 259.294H178.724C178.684 259.17 178.649 259.042 178.614 258.919C179.627 258.984 180.644 258.922 181.642 258.735C180.83 257.723 180.018 256.702 179.206 255.689C179.188 255.67 179.171 255.65 179.155 255.629C178.743 255.111 178.328 254.597 177.916 254.078C177.894 252.489 178.073 250.903 178.449 249.361Z" fill="#F2F2F2"/>
<path d="M145.344 147.301C145.344 153.424 148.357 159.656 154.381 159.656C160.405 159.656 168.716 155.221 166.846 145.717C165.665 139.712 162.274 136.213 156.251 136.213C150.227 136.213 145.344 141.177 145.344 147.301Z" fill="#2F2E41"/>
<path d="M170.611 234.795C169.371 233.397 169.48 231.241 170.856 229.981C171.003 229.846 171.161 229.725 171.328 229.619L168.691 217.805L174.487 220.022L176.103 230.901C176.981 232.57 176.361 234.647 174.719 235.539C173.345 236.286 171.646 235.979 170.611 234.795Z" fill="#FFB8B8"/>
<path d="M158.305 192.917L162.35 193.336C162.35 193.336 161.292 199.428 162.947 200.8C164.601 202.172 163.934 202.166 163.925 203.183C164.027 204.659 164.741 206.022 165.89 206.931C167.215 207.961 169.969 226.305 169.969 226.305L175.971 226.364C175.792 224.786 175.807 223.192 176.016 221.618C176.372 219.248 178.171 213.279 177.513 212.255C176.856 211.232 177.202 209.35 177.221 207.316C177.24 205.282 174.378 207.529 174.41 204.139C174.442 200.749 170.771 179.477 171.133 176.43C171.495 173.382 167.853 170.634 167.853 170.634L164.518 170.602L158.305 192.917Z" fill="#E6E6E6"/>
<path d="M115.358 164.313C114.977 166.054 116.056 167.78 117.769 168.167C117.952 168.209 118.137 168.233 118.324 168.241L121.57 179.236L125.333 174.659L121.674 164.921C121.632 163.128 120.169 161.708 118.405 161.751C116.929 161.787 115.669 162.846 115.358 164.313Z" fill="#FFB8B8"/>
<path d="M149.622 167.892C149.622 167.892 141.777 164.901 137.523 181.278L131.877 187.223L127.133 178.509L127.76 176.442L124.094 167.992L117.809 171.66L119.356 177.46L119.094 180.328L120.597 182.112L123.055 191.33L124.593 194.342C124.593 194.342 126.533 198.198 129.919 198.833C130.822 199.005 131.746 199.031 132.656 198.912C134.822 198.567 136.83 197.549 138.402 195.996C142.589 192.2 146.548 188.154 150.259 183.878L149.622 167.892Z" fill="#E6E6E6"/>
<path d="M160.152 195.313L160.708 198.002L161.179 207.919L142.221 205.309L140.766 193.826L142.777 190.465L160.152 195.313Z" fill="#FFB8B8"/>
<path d="M154 159.498C158.955 159.498 162.972 155.415 162.972 150.377C162.972 145.34 158.955 141.256 154 141.256C149.044 141.256 145.027 145.34 145.027 150.377C145.027 155.415 149.044 159.498 154 159.498Z" fill="#FFB8B8"/>
<path d="M169.033 171.706C167.552 168.156 164.488 165.541 160.792 164.674L160.758 164.667L158.981 162.236L151.773 162.971L150.456 165.718L147.038 167.785H147.031L147.025 167.792L145.234 168.877L139.297 175.943L139.29 175.95C137.528 177.146 136.332 179.031 135.987 181.156C135.897 181.762 135.868 182.377 135.899 182.989C136.095 186.746 138.405 190.09 138.722 190.536L139.499 194.979L139.655 195.893L141.053 196.099L160.751 198.962L161.298 199.045L161.46 199.065L162.028 197.575V197.562L167.52 182.955L169.985 176.438C169.992 174.811 169.668 173.2 169.033 171.706Z" fill="#E6E6E6"/>
<path d="M163.39 152.768C163.309 152.755 163.228 152.738 163.146 152.725C161.747 152.472 160.347 152.224 158.952 151.968L158.824 148.752L157.133 151.633C153.277 152.933 149.669 152.198 146.275 150.575C145.155 150.035 144.069 149.426 143.022 148.752C142.292 144.223 144.134 140.654 148.864 140.198C149.011 140.184 149.116 140.059 149.245 139.994L149.249 139.989C149.467 139.885 149.69 139.785 149.913 139.693C153.469 138.28 157.508 139.077 160.287 141.738C163.095 144.642 164.263 148.795 163.39 152.768Z" fill="#2F2E41"/>
<path d="M172.231 226.327C171.834 223.632 171.182 220.983 170.285 218.416V218.409C169.534 216.238 168.599 214.138 167.489 212.132C167.485 212.132 167.482 212.129 167.482 212.126C165.884 209.102 163.799 206.372 161.314 204.049L161.051 203.768H160.983L141.961 203.294H141.765L141.549 203.287C141.549 203.287 141.468 203.527 141.312 203.981C141.306 204.009 141.297 204.037 141.285 204.063C141.231 204.242 141.164 204.448 141.083 204.674C141.035 204.825 140.981 204.983 140.927 205.155C140.866 205.34 140.799 205.533 140.731 205.739C140.204 207.339 139.434 209.66 138.489 212.537C138.347 212.977 138.198 213.43 138.043 213.904C134.435 224.94 128.633 242.973 123.566 260.066H141.535C143.278 254.943 145.129 247.636 145.129 247.636C145.852 246.764 145.811 244.395 145.811 244.395L151.459 238.365L155.525 260.066H172.589L172.717 235.913V235.707C172.85 232.572 172.687 229.431 172.231 226.327Z" fill="#CCCCCC"/>
<path d="M159.949 139.76V139.768C159.948 140.245 160.008 140.721 160.127 141.182C160.146 141.263 160.169 141.348 160.196 141.429V141.433C160.711 143.105 161.967 144.434 163.589 145.026C163.707 145.072 163.828 145.11 163.95 145.145C164.205 145.221 164.466 145.275 164.731 145.307C164.968 145.341 165.208 145.358 165.447 145.357C165.635 145.358 165.822 145.349 166.009 145.33C166.445 145.285 166.874 145.186 167.286 145.033C167.351 145.014 167.414 144.991 167.476 144.964C167.507 144.953 167.537 144.94 167.567 144.925C170.371 143.732 171.692 140.454 170.519 137.604C170.484 137.519 170.446 137.434 170.407 137.351L170.403 137.347C170.134 136.773 169.768 136.252 169.323 135.805C168.329 134.799 167.891 132.278 166.382 132.278C166.31 132.276 166.238 132.279 166.166 132.285C165.154 132.32 163.282 134.541 162.486 135.065C161.894 135.445 161.382 135.939 160.977 136.518C160.554 137.115 160.252 137.791 160.089 138.507C159.996 138.918 159.949 139.338 159.949 139.76Z" fill="#2F2E41"/>
<path d="M166.666 137.814C167.52 138.825 168.857 139.218 170.063 139.743C174.384 141.671 177.491 145.642 178.365 150.356C178.698 152.247 178.655 154.205 179.181 156.049C179.705 157.893 181.001 159.702 182.862 160.022C184.121 160.24 185.383 159.746 186.567 159.258C187.218 158.992 187.87 158.725 188.521 158.457C187.842 156.724 187.163 154.991 186.486 153.258C187.574 154.893 188.84 156.399 190.26 157.747C192.594 156.79 194.93 155.834 197.268 154.877C191.516 154.899 192.497 149.222 191.21 143.526C190.503 140.396 184.479 138.277 183.298 135.299C181.453 130.63 176.235 128.366 171.642 130.241C169.663 131.049 168.033 132.548 167.043 134.469C165.862 134.947 165.828 136.816 166.666 137.814Z" fill="#2F2E41"/>
<path d="M142.234 204.683C139.547 205.395 137.373 207.397 136.411 210.045C136.071 210.793 136.079 211.657 136.435 212.398C136.714 212.927 137.333 213.166 137.886 212.957C138.442 212.653 138.885 212.173 139.149 211.59C139.536 210.842 139.869 210.067 140.144 209.269C140.595 208.066 141.558 206.058 140.184 205.117C139.027 204.326 137.497 204.633 136.196 204.579C134.79 204.52 133.227 203.973 132.728 202.492C132.242 201.051 133.381 199.696 134.608 199.148C136.107 198.517 137.816 198.682 139.171 199.59C140.489 200.519 141.43 201.903 141.82 203.485C141.88 203.741 141.725 203.997 141.473 204.059C141.234 204.117 140.991 203.977 140.918 203.738C140.573 202.27 139.664 201.004 138.394 200.223C137.132 199.483 135.565 199.545 134.364 200.383C133.733 200.782 133.441 201.558 133.647 202.283C133.964 202.926 134.56 203.38 135.256 203.509C136.739 203.873 138.291 203.401 139.769 203.883C141.146 204.242 142.023 205.611 141.788 207.036C141.634 207.89 141.385 208.725 141.046 209.522C140.757 210.342 140.42 211.143 140.036 211.921C139.449 213.049 138.39 214.27 136.993 213.939C135.402 213.562 135.024 211.673 135.365 210.283C136.288 207.076 138.803 204.601 141.985 203.766C142.237 203.706 142.489 203.863 142.549 204.119C142.606 204.362 142.468 204.608 142.234 204.683Z" fill="#CCCCCC"/>
<path d="M212.514 260.754H101.729C99.1183 260.751 97.0031 258.601 97 255.947V102.807C97.0029 100.153 99.1183 98.003 101.729 98H212.514C215.124 98.003 217.24 100.153 217.242 102.807V255.947C217.239 258.601 215.124 260.751 212.514 260.754ZM101.729 99.3735C99.8642 99.3757 98.3532 100.912 98.351 102.807V255.947C98.3532 257.842 99.8642 259.378 101.729 259.381H212.514C214.378 259.378 215.889 257.842 215.891 255.947V102.807C215.889 100.912 214.378 99.3757 212.514 99.3735H101.729Z" fill="#969696"/>
<path d="M291.217 186.203H255.415C250.565 186.203 246.633 182.206 246.633 177.275C246.633 172.345 250.565 168.348 255.415 168.348H291.217C296.067 168.348 299.999 172.345 299.999 177.275C299.999 182.206 296.067 186.203 291.217 186.203Z" fill="#1677FF"/>
<path d="M168.838 177.289L168.84 178.662L238.033 178.563L238.031 177.19L168.838 177.289Z" fill="#686767"/>
<path d="M165.946 181.141C164.077 181.145 162.559 179.609 162.555 177.709C162.55 175.81 164.062 174.266 165.93 174.262C167.799 174.257 169.317 175.794 169.322 177.693C169.325 179.011 168.588 180.214 167.423 180.792C166.963 181.021 166.458 181.14 165.946 181.141ZM165.941 175.644C164.821 175.644 163.913 176.567 163.913 177.706C163.913 178.845 164.821 179.768 165.941 179.768C167.061 179.768 167.969 178.845 167.969 177.706C167.969 177.393 167.899 177.084 167.764 176.803C167.424 176.095 166.717 175.645 165.941 175.644Z" fill="#686767"/>
<path d="M167.414 228.646L167.414 230.02L236.607 230.025L236.607 228.652L167.414 228.646Z" fill="#686767"/>
<path d="M165.296 233.281C163.43 233.283 161.916 231.747 161.914 229.85C161.912 227.953 163.423 226.414 165.289 226.412C166.582 226.411 167.762 227.16 168.329 228.341C169.146 230.048 168.447 232.104 166.768 232.935C166.31 233.162 165.806 233.28 165.296 233.281ZM165.291 227.785C164.171 227.784 163.263 228.707 163.263 229.846C163.263 230.985 164.171 231.908 165.291 231.908C166.411 231.908 167.319 230.985 167.319 229.847C167.319 229.534 167.249 229.225 167.115 228.943C166.774 228.235 166.067 227.785 165.291 227.785Z" fill="#686767"/>
<path d="M291.217 238.685H255.415C250.565 238.685 246.633 234.688 246.633 229.758C246.633 224.827 250.565 220.83 255.415 220.83H291.217C296.067 220.83 299.999 224.827 299.999 229.758C299.999 234.688 296.067 238.685 291.217 238.685Z" fill="#1677FF"/>
</g>
<defs>
<clipPath id="clip0_2403_19316">
<rect width="203" height="162.754" fill="white" transform="translate(97 98)"/>
</clipPath>
</defs>
</svg>
