<svg width="25" height="38" viewBox="0 0 25 38" fill="none" xmlns="http://www.w3.org/2000/svg">
<path d="M12.1992 0.0664062C6.66055 0.0664062 0.199219 3.50107 0.199219 12.2477C0.199219 18.1811 9.43122 31.2984 12.1992 34.7331C14.6606 31.2984 24.1992 18.4931 24.1992 12.2477C24.1992 3.50107 17.7379 0.0664062 12.1992 0.0664062Z" fill="#FFC200"/>
<circle cx="12.1986" cy="12.3997" r="8.33333" fill="white"/>
<path d="M17.1675 9.87805L9.53313 6.89083C9.38037 6.8313 9.20728 6.8281 9.05188 6.88194C8.97508 6.90898 8.90505 6.94927 8.84584 7.00047C8.78663 7.05167 8.7394 7.11278 8.70688 7.18027L6.83188 11.0692C6.76658 11.2046 6.76447 11.3575 6.826 11.4943C6.88754 11.6311 7.00768 11.7405 7.16 11.7986L11.5081 13.4547L10.7331 15.1769H8.03125V13.5103H6.78125V17.9547H8.03125V16.288H10.7331C11.2475 16.288 11.7031 16.0136 11.8931 15.5892L12.6569 13.8925L14.7938 14.7064C14.9454 14.7643 15.1167 14.7666 15.2702 14.7126C15.4237 14.6587 15.547 14.553 15.6131 14.4186L17.4881 10.6092C17.5545 10.4744 17.558 10.3217 17.4979 10.1847C17.4378 10.0476 17.3189 9.93735 17.1675 9.87805ZM17.9875 14.828L16.8263 14.4158L18.075 11.638L19.2363 12.0497L17.9875 14.828Z" fill="#FFC200"/>
<ellipse cx="12" cy="37" rx="6" ry="1" fill="url(#paint0_radial_2029_70233)"/>
<defs>
<radialGradient id="paint0_radial_2029_70233" cx="0" cy="0" r="1" gradientUnits="userSpaceOnUse" gradientTransform="translate(12 37) scale(6 1)">
<stop stop-color="#BBBBBB"/>
<stop offset="1" stop-color="#EFEFEF"/>
</radialGradient>
</defs>
</svg>
