<svg width="24" height="38" viewBox="0 0 24 38" fill="none" xmlns="http://www.w3.org/2000/svg">
<path d="M0.2 12.1813C0.2 7.86243 1.79269 4.8746 4.05216 2.96336C6.31725 1.04738 9.26873 0.2 12 0.2C14.7313 0.2 17.6827 1.04738 19.9478 2.96336C22.2073 4.8746 23.8 7.86243 23.8 12.1813C23.8 13.7001 23.2178 15.6403 22.2879 17.7663C21.3602 19.8872 20.096 22.1721 18.7523 24.3738C16.3916 28.2418 13.7939 31.8392 12.3616 33.8227C12.2277 34.0082 12.1039 34.1795 11.9916 34.3356C10.5504 32.5166 7.68228 28.532 5.13377 24.2586C3.80926 22.0376 2.57353 19.7426 1.66954 17.6359C0.763141 15.5236 0.2 13.6223 0.2 12.1813Z" fill="#FFC200" stroke="#CF9D00" stroke-width="0.4"/>
<circle cx="11.9993" cy="12.3333" r="8.33333" fill="white"/>
<path d="M7.78203 16.2216V17.8383H6.63203V13.4939H7.78203V15.1105V15.1605H7.83203H10.5339H10.5662L10.5795 15.1311L11.3545 13.4088L11.3763 13.3605L11.3267 13.3416L6.97859 11.6855C6.97859 11.6855 6.97858 11.6855 6.97858 11.6855C6.83745 11.6317 6.72799 11.531 6.67239 11.4074C6.61693 11.2841 6.6188 11.1466 6.67769 11.0245L6.638 11.0053L6.67769 11.0245L8.55269 7.13558L8.5527 7.13557C8.58213 7.07451 8.62505 7.01882 8.67933 6.97188C8.73359 6.92496 8.79805 6.88778 8.86915 6.86273C9.01332 6.81282 9.17411 6.81582 9.31571 6.87099C9.31573 6.871 9.31574 6.871 9.31575 6.87101L16.9501 9.8582C16.9501 9.8582 16.9501 9.8582 16.9501 9.85821C17.0904 9.91314 17.1986 10.0145 17.2529 10.1384C17.307 10.2619 17.3039 10.3991 17.244 10.5207L17.2865 10.5416L17.244 10.5207L15.369 14.3301L15.4139 14.3522L15.369 14.3301C15.3092 14.4517 15.1967 14.5491 15.0544 14.5991C14.912 14.6491 14.7529 14.647 14.6124 14.5933L14.6123 14.5933L12.4755 13.7794L12.4314 13.7626L12.4121 13.8056L11.6483 15.5022L11.6483 15.5023C11.4674 15.9065 11.0312 16.1716 10.5339 16.1716H7.83203H7.78203V16.2216ZM18.9692 12.0123L17.7616 14.6991L16.6949 14.3204L17.9025 11.6342L18.9692 12.0123Z" fill="#FFC200" stroke="#AA8100" stroke-width="0.1"/>
<ellipse cx="12" cy="36.5" rx="7" ry="1.5" fill="url(#paint0_radial_2041_70259)"/>
<defs>
<radialGradient id="paint0_radial_2041_70259" cx="0" cy="0" r="1" gradientUnits="userSpaceOnUse" gradientTransform="translate(12 36.5) scale(7 1.5)">
<stop offset="0.216667" stop-color="#AAAAAA"/>
<stop offset="1" stop-color="#EFEFEF"/>
</radialGradient>
</defs>
</svg>
