<svg width="24" height="38" viewBox="0 0 24 38" fill="none" xmlns="http://www.w3.org/2000/svg">
<path d="M12 0C6.46133 0 0 3.43467 0 12.1813C0 18.1147 9.232 31.232 12 34.6667C14.4613 31.232 24 18.4267 24 12.1813C24 3.43467 17.5387 0 12 0Z" fill="#555555"/>
<circle cx="11.9993" cy="12.3333" r="8.33333" fill="white"/>
<path d="M16.9683 9.81164L9.33391 6.82442C9.18115 6.76489 9.00806 6.7617 8.85266 6.81553C8.77586 6.84258 8.70584 6.88286 8.64662 6.93406C8.58741 6.98526 8.54018 7.04637 8.50766 7.11387L6.63266 11.0028C6.56736 11.1382 6.56525 11.2911 6.62679 11.4279C6.68832 11.5647 6.80846 11.6741 6.96078 11.7322L11.3089 13.3883L10.5339 15.1105H7.83203V13.4439H6.58203V17.8883H7.83203V16.2216H10.5339C11.0483 16.2216 11.5039 15.9472 11.6939 15.5228L12.4577 13.8261L14.5945 14.64C14.7462 14.6979 14.9175 14.7002 15.071 14.6462C15.2245 14.5923 15.3478 14.4866 15.4139 14.3522L17.2889 10.5428C17.3552 10.408 17.3587 10.2553 17.2986 10.1183C17.2385 9.98122 17.1197 9.87095 16.9683 9.81164ZM17.7883 14.7616L16.627 14.3494L17.8758 11.5716L19.037 11.9833L17.7883 14.7616Z" fill="#555555"/>
<ellipse cx="12" cy="37" rx="6" ry="1" fill="url(#paint0_radial_2029_70232)"/>
<defs>
<radialGradient id="paint0_radial_2029_70232" cx="0" cy="0" r="1" gradientUnits="userSpaceOnUse" gradientTransform="translate(12 37) scale(6 1)">
<stop stop-color="#BBBBBB"/>
<stop offset="1" stop-color="#EFEFEF"/>
</radialGradient>
</defs>
</svg>
