<svg width="26" height="26" viewBox="0 0 26 26" fill="none" xmlns="http://www.w3.org/2000/svg">
<path d="M13 1V5.23529M13 25V20.7647M1 13H5.23529M25 13H20.7647M20.7647 13C20.7647 17.2883 17.2883 20.7647 13 20.7647M20.7647 13C20.7647 8.71167 17.2883 5.23529 13 5.23529M13 20.7647C8.71167 20.7647 5.23529 17.2883 5.23529 13M5.23529 13C5.23529 8.71167 8.71167 5.23529 13 5.23529M15.8235 13C15.8235 14.5594 14.5594 15.8235 13 15.8235C11.4406 15.8235 10.1765 14.5594 10.1765 13C10.1765 11.4406 11.4406 10.1765 13 10.1765C14.5594 10.1765 15.8235 11.4406 15.8235 13Z" stroke="white" stroke-width="2" stroke-linecap="round" stroke-linejoin="round"/>
</svg>
