<svg width="262" height="41" viewBox="0 0 262 41" fill="none" xmlns="http://www.w3.org/2000/svg">
<mask id="path-1-outside-1_2396_18838" maskUnits="userSpaceOnUse" x="0" y="2" width="32" height="33" fill="black">
<rect fill="white" y="2" width="32" height="33"/>
<path d="M2.51453 32.8382V3.92109H23.1641C27.5582 3.92109 29.7553 5.67365 29.7553 9.17875V16.6461C29.7553 20.1512 27.5582 21.9038 23.1641 21.9038H7.81028V32.8382H2.51453ZM7.81028 17.3319H22.707C23.8753 17.3319 24.4595 16.862 24.4595 15.9223V9.90263C24.4595 8.96285 23.8753 8.49297 22.707 8.49297H7.81028V17.3319Z"/>
</mask>
<path d="M2.51453 32.8382V3.92109H23.1641C27.5582 3.92109 29.7553 5.67365 29.7553 9.17875V16.6461C29.7553 20.1512 27.5582 21.9038 23.1641 21.9038H7.81028V32.8382H2.51453ZM7.81028 17.3319H22.707C23.8753 17.3319 24.4595 16.862 24.4595 15.9223V9.90263C24.4595 8.96285 23.8753 8.49297 22.707 8.49297H7.81028V17.3319Z" fill="#1677FF"/>
<path d="M2.51453 32.8382H0.700294V34.6524H2.51453V32.8382ZM2.51453 3.92109V2.10686H0.700294V3.92109H2.51453ZM7.81028 21.9038V20.0896H5.99604V21.9038H7.81028ZM7.81028 32.8382V34.6524H9.62451V32.8382H7.81028ZM7.81028 17.3319H5.99604V19.1461H7.81028V17.3319ZM7.81028 8.49297V6.67873H5.99604V8.49297H7.81028ZM4.32876 32.8382V3.92109H0.700294V32.8382H4.32876ZM2.51453 5.73533H23.1641V2.10686H2.51453V5.73533ZM23.1641 5.73533C25.1683 5.73533 26.3358 6.14299 26.9761 6.65378C27.5382 7.10214 27.941 7.82843 27.941 9.17875H31.5695C31.5695 7.02396 30.8738 5.12143 29.2388 3.81723C27.6821 2.57547 25.5541 2.10686 23.1641 2.10686V5.73533ZM27.941 9.17875V16.6461H31.5695V9.17875H27.941ZM27.941 16.6461C27.941 17.9965 27.5382 18.7227 26.9761 19.1711C26.3358 19.6819 25.1683 20.0896 23.1641 20.0896V23.718C25.5541 23.718 27.6821 23.2494 29.2388 22.0077C30.8738 20.7035 31.5695 18.8009 31.5695 16.6461H27.941ZM23.1641 20.0896H7.81028V23.718H23.1641V20.0896ZM5.99604 21.9038V32.8382H9.62451V21.9038H5.99604ZM7.81028 31.0239H2.51453V34.6524H7.81028V31.0239ZM7.81028 19.1461H22.707V15.5177H7.81028V19.1461ZM22.707 19.1461C23.4867 19.1461 24.4076 18.9972 25.1585 18.3932C25.9848 17.7285 26.2737 16.7892 26.2737 15.9223H22.6453C22.6453 15.9724 22.6372 15.933 22.674 15.8444C22.7153 15.7447 22.7889 15.6426 22.8843 15.5658C22.9715 15.4957 23.0295 15.4846 23.0039 15.4915C22.9746 15.4993 22.8834 15.5177 22.707 15.5177V19.1461ZM26.2737 15.9223V9.90263H22.6453V15.9223H26.2737ZM26.2737 9.90263C26.2737 9.03572 25.9848 8.09639 25.1585 7.4317C24.4076 6.82773 23.4867 6.67873 22.707 6.67873V10.3072C22.8834 10.3072 22.9746 10.3256 23.0039 10.3334C23.0295 10.3403 22.9715 10.3292 22.8843 10.2591C22.7889 10.1823 22.7153 10.0802 22.674 9.98046C22.6372 9.89185 22.6453 9.85243 22.6453 9.90263H26.2737ZM22.707 6.67873H7.81028V10.3072H22.707V6.67873ZM5.99604 8.49297V17.3319H9.62451V8.49297H5.99604Z" fill="#1677FF" mask="url(#path-1-outside-1_2396_18838)"/>
<mask id="path-3-outside-2_2396_18838" maskUnits="userSpaceOnUse" x="42.0938" y="2" width="35" height="33" fill="black">
<rect fill="white" x="42.0938" y="2" width="35" height="33"/>
<path d="M44.6083 32.8382V3.92109H65.2579C69.652 3.92109 71.849 5.67365 71.849 9.17875V15.9604C71.849 17.7129 71.341 19.021 70.3251 19.8845C69.3345 20.7481 67.7216 21.1926 65.4865 21.218L73.1444 32.8382H66.4009L58.743 21.218H49.904V32.8382H44.6083ZM49.904 16.6461H64.8007C65.9691 16.6461 66.5533 16.1762 66.5533 15.2365V9.90263C66.5533 8.96285 65.9691 8.49297 64.8007 8.49297H49.904V16.6461Z"/>
</mask>
<path d="M44.6083 32.8382V3.92109H65.2579C69.652 3.92109 71.849 5.67365 71.849 9.17875V15.9604C71.849 17.7129 71.341 19.021 70.3251 19.8845C69.3345 20.7481 67.7216 21.1926 65.4865 21.218L73.1444 32.8382H66.4009L58.743 21.218H49.904V32.8382H44.6083ZM49.904 16.6461H64.8007C65.9691 16.6461 66.5533 16.1762 66.5533 15.2365V9.90263C66.5533 8.96285 65.9691 8.49297 64.8007 8.49297H49.904V16.6461Z" fill="#1677FF"/>
<path d="M44.6083 32.8382H42.794V34.6524H44.6083V32.8382ZM44.6083 3.92109V2.10686H42.794V3.92109H44.6083ZM70.3251 19.8845L69.1501 18.5022L69.1414 18.5096L69.1329 18.517L70.3251 19.8845ZM65.4865 21.218L65.4659 19.4039L62.1431 19.4416L63.9716 22.2163L65.4865 21.218ZM73.1444 32.8382V34.6524H76.5128L74.6592 31.8399L73.1444 32.8382ZM66.4009 32.8382L64.886 33.8365L65.4237 34.6524H66.4009V32.8382ZM58.743 21.218L60.2578 20.2197L59.7201 19.4038H58.743V21.218ZM49.904 21.218V19.4038H48.0898V21.218H49.904ZM49.904 32.8382V34.6524H51.7183V32.8382H49.904ZM49.904 16.6461H48.0898V18.4604H49.904V16.6461ZM49.904 8.49297V6.67873H48.0898V8.49297H49.904ZM46.4225 32.8382V3.92109H42.794V32.8382H46.4225ZM44.6083 5.73533H65.2579V2.10686H44.6083V5.73533ZM65.2579 5.73533C67.262 5.73533 68.4295 6.14299 69.0699 6.65378C69.6319 7.10214 70.0348 7.82843 70.0348 9.17875H73.6632C73.6632 7.02396 72.9675 5.12143 71.3326 3.81723C69.7759 2.57547 67.6479 2.10686 65.2579 2.10686V5.73533ZM70.0348 9.17875V15.9604H73.6632V9.17875H70.0348ZM70.0348 15.9604C70.0348 17.3591 69.6418 18.0842 69.1501 18.5022L71.5 21.2669C73.0402 19.9577 73.6632 18.0667 73.6632 15.9604H70.0348ZM69.1329 18.517C68.6282 18.9569 67.5468 19.3802 65.4659 19.4039L65.5071 23.0321C67.8965 23.005 70.0407 22.5393 71.5172 21.2521L69.1329 18.517ZM63.9716 22.2163L71.6295 33.8365L74.6592 31.8399L67.0013 20.2197L63.9716 22.2163ZM73.1444 31.0239H66.4009V34.6524H73.1444V31.0239ZM67.9157 31.8399L60.2578 20.2197L57.2281 22.2163L64.886 33.8365L67.9157 31.8399ZM58.743 19.4038H49.904V23.0322H58.743V19.4038ZM48.0898 21.218V32.8382H51.7183V21.218H48.0898ZM49.904 31.0239H44.6083V34.6524H49.904V31.0239ZM49.904 18.4604H64.8007V14.8319H49.904V18.4604ZM64.8007 18.4604C65.5805 18.4604 66.5013 18.3114 67.2522 17.7074C68.0786 17.0427 68.3675 16.1034 68.3675 15.2365H64.739C64.739 15.2867 64.731 15.2473 64.7677 15.1586C64.809 15.0589 64.8826 14.9568 64.978 14.88C65.0652 14.8099 65.1233 14.7988 65.0976 14.8057C65.0684 14.8135 64.9771 14.8319 64.8007 14.8319V18.4604ZM68.3675 15.2365V9.90263H64.739V15.2365H68.3675ZM68.3675 9.90263C68.3675 9.03572 68.0786 8.09639 67.2522 7.4317C66.5013 6.82773 65.5805 6.67873 64.8007 6.67873V10.3072C64.9771 10.3072 65.0684 10.3256 65.0976 10.3334C65.1233 10.3403 65.0652 10.3292 64.978 10.2591C64.8826 10.1823 64.809 10.0802 64.7677 9.98046C64.731 9.89185 64.739 9.85243 64.739 9.90263H68.3675ZM64.8007 6.67873H49.904V10.3072H64.8007V6.67873ZM48.0898 8.49297V16.6461H51.7183V8.49297H48.0898Z" fill="#1677FF" mask="url(#path-3-outside-2_2396_18838)"/>
<path d="M116.927 13.0297H98.3234C98.0335 13.9529 97.8772 14.9353 97.8772 15.9542V17.9038H117.374V15.9542C117.374 14.9353 117.217 13.9529 116.927 13.0297Z" fill="#1677FF"/>
<path d="M98.3234 13.0297H93.9779C90.7476 13.0297 88.1289 15.9733 88.1289 19.2036V22.453C88.1289 23.5298 89.0018 24.4027 90.0786 24.4027H92.0282C95.2585 24.4027 97.8772 21.784 97.8772 18.5537V17.9038V15.9542C97.8772 14.9353 98.0335 13.9529 98.3234 13.0297Z" fill="#1677FF"/>
<path d="M121.273 13.0297H116.927C117.217 13.9529 117.374 14.9353 117.374 15.9542V17.9038V18.5537C117.374 21.784 119.992 24.4027 123.223 24.4027H125.172C126.249 24.4027 127.122 23.5298 127.122 22.453V19.2036C127.122 15.9733 124.503 13.0297 121.273 13.0297Z" fill="#1677FF"/>
<path d="M117.374 23.6445H97.8772C97.1593 23.6445 96.2525 23.6848 96.2525 24.4027V27.0022C96.2525 27.7201 97.1593 28.302 97.8772 28.302H117.374C118.092 28.302 118.998 27.7201 118.998 27.0022V25.7025V24.4027C118.998 23.6848 118.092 23.6445 117.374 23.6445Z" fill="#1677FF"/>
<path d="M108.925 32.8512C108.925 33.569 108.343 34.1509 107.625 34.1509C106.908 34.1509 106.326 33.569 106.326 32.8512C106.326 32.1333 106.908 31.5514 107.625 31.5514C108.343 31.5514 108.925 32.1333 108.925 32.8512Z" fill="#1677FF"/>
<path d="M98.3234 13.0297H116.927M98.3234 13.0297H93.9779C90.7476 13.0297 88.1289 15.9733 88.1289 19.2036V22.453C88.1289 23.5298 89.0018 24.4027 90.0786 24.4027H92.0282C95.2585 24.4027 97.8772 21.784 97.8772 18.5537M98.3234 13.0297C98.0335 13.9529 97.8772 14.9353 97.8772 15.9542M98.3234 13.0297C99.1007 10.555 100.838 8.50554 103.099 7.31808M116.927 13.0297H121.273C124.503 13.0297 127.122 15.9733 127.122 19.2036V22.453C127.122 23.5298 126.249 24.4027 125.172 24.4027H123.223C119.992 24.4027 117.374 21.784 117.374 18.5537M116.927 13.0297C117.217 13.9529 117.374 14.9353 117.374 15.9542M116.927 13.0297C116.15 10.555 114.413 8.50553 112.151 7.31808M97.8772 17.9038H117.374M97.8772 17.9038V15.9542M97.8772 17.9038V18.5537M117.374 17.9038V15.9542M117.374 17.9038V18.5537M107.625 37.4004C102.242 37.4004 97.8772 33.6858 97.8772 28.302M107.625 37.4004C113.009 37.4004 117.374 33.6858 117.374 28.302M107.625 37.4004V39.9999M97.8772 28.302H117.374M97.8772 28.302C97.1593 28.302 96.2525 27.7201 96.2525 27.0022V24.4027C96.2525 23.6848 97.1593 23.6445 97.8772 23.6445M117.374 28.302C118.092 28.302 118.998 27.7201 118.998 27.0022V25.7025V24.4027C118.998 23.6848 118.092 23.6445 117.374 23.6445M107.625 6.20594C105.992 6.20594 104.452 6.60781 103.099 7.31808M107.625 6.20594C109.259 6.20594 110.799 6.60781 112.151 7.31808M107.625 6.20594L103.726 2.30664M107.625 6.20594L111.525 2.30664M117.374 15.9542C117.374 12.2041 115.256 8.94852 112.151 7.31808M117.374 15.9542V23.6445M97.8772 15.9542C97.8772 12.2041 99.9948 8.94852 103.099 7.31808M97.8772 15.9542V23.6445M117.374 23.6445H97.8772M117.374 23.6445V18.5537M97.8772 23.6445V18.5537M108.925 32.8512C108.925 33.569 108.343 34.1509 107.625 34.1509C106.908 34.1509 106.326 33.569 106.326 32.8512C106.326 32.1333 106.908 31.5514 107.625 31.5514C108.343 31.5514 108.925 32.1333 108.925 32.8512Z" stroke="#1677FF" stroke-width="1.94965" stroke-linecap="round" stroke-linejoin="round"/>
<mask id="path-7-outside-3_2396_18838" maskUnits="userSpaceOnUse" x="138.199" y="2" width="32" height="33" fill="black">
<rect fill="white" x="138.199" y="2" width="32" height="33"/>
<path d="M140.714 32.8382V3.92109H160.982C165.376 3.92109 167.573 5.67365 167.573 9.17875V12.6457C167.573 14.9317 166.621 16.481 164.716 17.2938C166.9 18.0304 167.993 19.6306 167.993 22.0943V27.5805C167.993 31.0856 165.808 32.8382 161.44 32.8382H140.714ZM146.009 28.3044H160.944C162.113 28.3044 162.697 27.8345 162.697 26.8947V21.0656C162.697 20.1512 162.113 19.694 160.944 19.694H146.009V28.3044ZM146.009 15.1603H160.525C161.694 15.1603 162.278 14.6904 162.278 13.7506V9.86453C162.278 8.92475 161.694 8.45487 160.525 8.45487H146.009V15.1603Z"/>
</mask>
<path d="M140.714 32.8382V3.92109H160.982C165.376 3.92109 167.573 5.67365 167.573 9.17875V12.6457C167.573 14.9317 166.621 16.481 164.716 17.2938C166.9 18.0304 167.993 19.6306 167.993 22.0943V27.5805C167.993 31.0856 165.808 32.8382 161.44 32.8382H140.714ZM146.009 28.3044H160.944C162.113 28.3044 162.697 27.8345 162.697 26.8947V21.0656C162.697 20.1512 162.113 19.694 160.944 19.694H146.009V28.3044ZM146.009 15.1603H160.525C161.694 15.1603 162.278 14.6904 162.278 13.7506V9.86453C162.278 8.92475 161.694 8.45487 160.525 8.45487H146.009V15.1603Z" fill="#1677FF"/>
<path d="M140.714 32.8382H138.9V34.6524H140.714V32.8382ZM140.714 3.92109V2.10686H138.9V3.92109H140.714ZM164.716 17.2938L164.004 15.6251L159.627 17.4925L164.136 19.0129L164.716 17.2938ZM146.009 28.3044H144.195V30.1186H146.009V28.3044ZM146.009 19.694V17.8798H144.195V19.694H146.009ZM146.009 15.1603H144.195V16.9745H146.009V15.1603ZM146.009 8.45487V6.64063H144.195V8.45487H146.009ZM142.528 32.8382V3.92109H138.9V32.8382H142.528ZM140.714 5.73533H160.982V2.10686H140.714V5.73533ZM160.982 5.73533C162.986 5.73533 164.154 6.14299 164.794 6.65378C165.356 7.10214 165.759 7.82843 165.759 9.17875H169.388C169.388 7.02396 168.692 5.12143 167.057 3.81723C165.5 2.57547 163.372 2.10686 160.982 2.10686V5.73533ZM165.759 9.17875V12.6457H169.388V9.17875H165.759ZM165.759 12.6457C165.759 13.5387 165.574 14.1482 165.314 14.5721C165.061 14.9835 164.661 15.3449 164.004 15.6251L165.428 18.9625C166.676 18.4299 167.705 17.6103 168.405 16.4723C169.097 15.3469 169.388 14.0387 169.388 12.6457H165.759ZM164.136 19.0129C164.928 19.2799 165.391 19.6534 165.675 20.0691C165.966 20.4953 166.178 21.1283 166.178 22.0943H169.807C169.807 20.5965 169.473 19.1976 168.672 18.0236C167.863 16.8391 166.689 16.0443 165.296 15.5747L164.136 19.0129ZM166.178 22.0943V27.5805H169.807V22.0943H166.178ZM166.178 27.5805C166.178 28.9345 165.776 29.6616 165.219 30.1087C164.585 30.617 163.429 31.0239 161.44 31.0239V34.6524C163.819 34.6524 165.939 34.1831 167.49 32.9388C169.117 31.6334 169.807 29.7317 169.807 27.5805H166.178ZM161.44 31.0239H140.714V34.6524H161.44V31.0239ZM146.009 30.1186H160.944V26.4902H146.009V30.1186ZM160.944 30.1186C161.724 30.1186 162.645 29.9696 163.396 29.3657C164.222 28.701 164.511 27.7616 164.511 26.8947H160.883C160.883 26.9449 160.875 26.9055 160.911 26.8169C160.953 26.7172 161.026 26.615 161.122 26.5383C161.209 26.4682 161.267 26.4571 161.241 26.464C161.212 26.4718 161.121 26.4902 160.944 26.4902V30.1186ZM164.511 26.8947V21.0656H160.883V26.8947H164.511ZM164.511 21.0656C164.511 20.194 164.21 19.2604 163.377 18.6082C162.628 18.0223 161.715 17.8798 160.944 17.8798V21.5083C161.124 21.5083 161.219 21.5265 161.253 21.5353C161.284 21.5433 161.228 21.5341 161.141 21.4657C161.044 21.3901 160.965 21.2856 160.918 21.1765C160.876 21.0784 160.883 21.0274 160.883 21.0656H164.511ZM160.944 17.8798H146.009V21.5083H160.944V17.8798ZM144.195 19.694V28.3044H147.824V19.694H144.195ZM146.009 16.9745H160.525V13.346H146.009V16.9745ZM160.525 16.9745C161.305 16.9745 162.226 16.8255 162.977 16.2215C163.803 15.5568 164.092 14.6175 164.092 13.7506H160.464C160.464 13.8008 160.455 13.7614 160.492 13.6728C160.534 13.5731 160.607 13.4709 160.703 13.3942C160.79 13.3241 160.848 13.313 160.822 13.3198C160.793 13.3277 160.702 13.346 160.525 13.346V16.9745ZM164.092 13.7506V9.86453H160.464V13.7506H164.092ZM164.092 9.86453C164.092 8.99762 163.803 8.05829 162.977 7.39361C162.226 6.78963 161.305 6.64063 160.525 6.64063V10.2691C160.702 10.2691 160.793 10.2875 160.822 10.2953C160.848 10.3022 160.79 10.2911 160.703 10.221C160.607 10.1442 160.534 10.0421 160.492 9.94237C160.455 9.85375 160.464 9.81433 160.464 9.86453H164.092ZM160.525 6.64063H146.009V10.2691H160.525V6.64063ZM144.195 8.45487V15.1603H147.824V8.45487H144.195Z" fill="#1677FF" mask="url(#path-7-outside-3_2396_18838)"/>
<mask id="path-9-outside-4_2396_18838" maskUnits="userSpaceOnUse" x="184.23" y="2" width="30" height="33" fill="black">
<rect fill="white" x="184.23" y="2" width="30" height="33"/>
<path d="M186.745 32.8382V3.92109H212.347V8.45487H192.041V15.1222H211.281V19.656H192.041V28.2663H212.347V32.8382H186.745Z"/>
</mask>
<path d="M186.745 32.8382V3.92109H212.347V8.45487H192.041V15.1222H211.281V19.656H192.041V28.2663H212.347V32.8382H186.745Z" fill="#1677FF"/>
<path d="M186.745 32.8382H184.931V34.6524H186.745V32.8382ZM186.745 3.92109V2.10686H184.931V3.92109H186.745ZM212.347 3.92109H214.162V2.10686H212.347V3.92109ZM212.347 8.45487V10.2691H214.162V8.45487H212.347ZM192.041 8.45487V6.64063H190.227V8.45487H192.041ZM192.041 15.1222H190.227V16.9364H192.041V15.1222ZM211.281 15.1222H213.095V13.3079H211.281V15.1222ZM211.281 19.656V21.4702H213.095V19.656H211.281ZM192.041 19.656V17.8417H190.227V19.656H192.041ZM192.041 28.2663H190.227V30.0805H192.041V28.2663ZM212.347 28.2663H214.162V26.4521H212.347V28.2663ZM212.347 32.8382V34.6524H214.162V32.8382H212.347ZM188.559 32.8382V3.92109H184.931V32.8382H188.559ZM186.745 5.73533H212.347V2.10686H186.745V5.73533ZM210.533 3.92109V8.45487H214.162V3.92109H210.533ZM212.347 6.64063H192.041V10.2691H212.347V6.64063ZM190.227 8.45487V15.1222H193.855V8.45487H190.227ZM192.041 16.9364H211.281V13.3079H192.041V16.9364ZM209.466 15.1222V19.656H213.095V15.1222H209.466ZM211.281 17.8417H192.041V21.4702H211.281V17.8417ZM190.227 19.656V28.2663H193.855V19.656H190.227ZM192.041 30.0805H212.347V26.4521H192.041V30.0805ZM210.533 28.2663V32.8382H214.162V28.2663H210.533ZM212.347 31.0239H186.745V34.6524H212.347V31.0239Z" fill="#1677FF" mask="url(#path-9-outside-4_2396_18838)"/>
<mask id="path-11-outside-5_2396_18838" maskUnits="userSpaceOnUse" x="230.266" y="2" width="30" height="33" fill="black">
<rect fill="white" x="230.266" y="2" width="30" height="33"/>
<path d="M232.78 32.8382V3.92109H258.383V8.45487H238.076V15.1222H257.316V19.656H238.076V28.2663H258.383V32.8382H232.78Z"/>
</mask>
<path d="M232.78 32.8382V3.92109H258.383V8.45487H238.076V15.1222H257.316V19.656H238.076V28.2663H258.383V32.8382H232.78Z" fill="#1677FF"/>
<path d="M232.78 32.8382H230.966V34.6524H232.78V32.8382ZM232.78 3.92109V2.10686H230.966V3.92109H232.78ZM258.383 3.92109H260.197V2.10686H258.383V3.92109ZM258.383 8.45487V10.2691H260.197V8.45487H258.383ZM238.076 8.45487V6.64063H236.262V8.45487H238.076ZM238.076 15.1222H236.262V16.9364H238.076V15.1222ZM257.316 15.1222H259.13V13.3079H257.316V15.1222ZM257.316 19.656V21.4702H259.13V19.656H257.316ZM238.076 19.656V17.8417H236.262V19.656H238.076ZM238.076 28.2663H236.262V30.0805H238.076V28.2663ZM258.383 28.2663H260.197V26.4521H258.383V28.2663ZM258.383 32.8382V34.6524H260.197V32.8382H258.383ZM234.594 32.8382V3.92109H230.966V32.8382H234.594ZM232.78 5.73533H258.383V2.10686H232.78V5.73533ZM256.568 3.92109V8.45487H260.197V3.92109H256.568ZM258.383 6.64063H238.076V10.2691H258.383V6.64063ZM236.262 8.45487V15.1222H239.89V8.45487H236.262ZM238.076 16.9364H257.316V13.3079H238.076V16.9364ZM255.502 15.1222V19.656H259.13V15.1222H255.502ZM257.316 17.8417H238.076V21.4702H257.316V17.8417ZM236.262 19.656V28.2663H239.89V19.656H236.262ZM238.076 30.0805H258.383V26.4521H238.076V30.0805ZM256.568 28.2663V32.8382H260.197V28.2663H256.568ZM258.383 31.0239H232.78V34.6524H258.383V31.0239Z" fill="#1677FF" mask="url(#path-11-outside-5_2396_18838)"/>
</svg>
