<svg width="33" height="32" viewBox="0 0 33 32" fill="none" xmlns="http://www.w3.org/2000/svg">
<path d="M24.0388 9.57846H9.15563C8.92366 10.317 8.7986 11.1029 8.7986 11.918V13.4778H24.3958V11.918C24.3958 11.1029 24.2708 10.317 24.0388 9.57846Z" fill="white"/>
<path d="M9.15563 9.57846H5.67916C3.09493 9.57846 1 11.9333 1 14.5176V17.1171C1 17.9785 1.69831 18.6768 2.55972 18.6768H4.11944C6.70367 18.6768 8.7986 16.5819 8.7986 13.9977V13.4778V11.918C8.7986 11.1029 8.92366 10.317 9.15563 9.57846Z" fill="white"/>
<path d="M27.5153 9.57846H24.0388C24.2708 10.317 24.3958 11.1029 24.3958 11.918V13.4778V13.9977C24.3958 16.5819 26.4907 18.6768 29.075 18.6768H30.6347C31.4961 18.6768 32.1944 17.9785 32.1944 17.1171V14.5176C32.1944 11.9333 30.0995 9.57846 27.5153 9.57846Z" fill="white"/>
<path d="M24.3958 18.0703H8.7986C8.22433 18.0703 7.49884 18.1026 7.49884 18.6768V20.7565C7.49884 21.3307 8.22433 21.7963 8.7986 21.7963H24.3958C24.9701 21.7963 25.6956 21.3307 25.6956 20.7565V19.7166V18.6768C25.6956 18.1026 24.9701 18.0703 24.3958 18.0703Z" fill="white"/>
<path d="M17.637 25.4356C17.637 26.0099 17.1715 26.4754 16.5972 26.4754C16.0229 26.4754 15.5574 26.0099 15.5574 25.4356C15.5574 24.8613 16.0229 24.3958 16.5972 24.3958C17.1715 24.3958 17.637 24.8613 17.637 25.4356Z" fill="white"/>
<path d="M9.15563 9.57846H24.0388M9.15563 9.57846H5.67916C3.09493 9.57846 1 11.9333 1 14.5176V17.1171C1 17.9785 1.69831 18.6768 2.55972 18.6768H4.11944C6.70367 18.6768 8.7986 16.5819 8.7986 13.9977M9.15563 9.57846C8.92366 10.317 8.7986 11.1029 8.7986 11.918M9.15563 9.57846C9.77744 7.59868 11.1675 5.95912 12.9764 5.00915M24.0388 9.57846H27.5153C30.0995 9.57846 32.1944 11.9333 32.1944 14.5176V17.1171C32.1944 17.9785 31.4961 18.6768 30.6347 18.6768H29.075C26.4907 18.6768 24.3958 16.5819 24.3958 13.9977M24.0388 9.57846C24.2708 10.317 24.3958 11.1029 24.3958 11.918M24.0388 9.57846C23.417 7.59868 22.0269 5.95911 20.218 5.00915M8.7986 13.4778H24.3958M8.7986 13.4778V11.918M8.7986 13.4778V13.9977M24.3958 13.4778V11.918M24.3958 13.4778V13.9977M16.5972 29.075C12.2902 29.075 8.7986 26.1033 8.7986 21.7963M16.5972 29.075C20.9043 29.075 24.3958 26.1033 24.3958 21.7963M16.5972 29.075V31.1546M8.7986 21.7963H24.3958M8.7986 21.7963C8.22433 21.7963 7.49884 21.3307 7.49884 20.7565V18.6768C7.49884 18.1026 8.22433 18.0703 8.7986 18.0703M24.3958 21.7963C24.9701 21.7963 25.6956 21.3307 25.6956 20.7565V19.7166V18.6768C25.6956 18.1026 24.9701 18.0703 24.3958 18.0703M16.5972 4.11944C15.2903 4.11944 14.0584 4.44093 12.9764 5.00915M16.5972 4.11944C17.9041 4.11944 19.136 4.44093 20.218 5.00915M16.5972 4.11944L13.4778 1M16.5972 4.11944L19.7166 1M24.3958 11.918C24.3958 8.91794 22.7017 6.3135 20.218 5.00915M24.3958 11.918V18.0703M8.7986 11.918C8.7986 8.91794 10.4927 6.3135 12.9764 5.00915M8.7986 11.918V18.0703M24.3958 18.0703H8.7986M24.3958 18.0703V13.9977M8.7986 18.0703V13.9977M17.637 25.4356C17.637 26.0099 17.1715 26.4754 16.5972 26.4754C16.0229 26.4754 15.5574 26.0099 15.5574 25.4356C15.5574 24.8613 16.0229 24.3958 16.5972 24.3958C17.1715 24.3958 17.637 24.8613 17.637 25.4356Z" stroke="white" stroke-width="1.55972" stroke-linecap="round" stroke-linejoin="round"/>
</svg>
