<svg width="210" height="33" viewBox="0 0 210 33" fill="none" xmlns="http://www.w3.org/2000/svg">
<mask id="path-1-outside-1_2034_70238" maskUnits="userSpaceOnUse" x="0" y="2" width="26" height="27" fill="black">
<rect fill="white" y="2" width="26" height="27"/>
<path d="M2.01162 26.6705V3.53688H18.5313C22.0466 3.53688 23.8042 4.93892 23.8042 7.743V13.7169C23.8042 16.521 22.0466 17.923 18.5313 17.923H6.24822V26.6705H2.01162ZM6.24822 14.2655H18.1656C19.1003 14.2655 19.5676 13.8896 19.5676 13.1378V8.3221C19.5676 7.57028 19.1003 7.19437 18.1656 7.19437H6.24822V14.2655Z"/>
</mask>
<path d="M2.01162 26.6705V3.53688H18.5313C22.0466 3.53688 23.8042 4.93892 23.8042 7.743V13.7169C23.8042 16.521 22.0466 17.923 18.5313 17.923H6.24822V26.6705H2.01162ZM6.24822 14.2655H18.1656C19.1003 14.2655 19.5676 13.8896 19.5676 13.1378V8.3221C19.5676 7.57028 19.1003 7.19437 18.1656 7.19437H6.24822V14.2655Z" fill="white"/>
<path d="M2.01162 26.6705H0.560236V28.1219H2.01162V26.6705ZM2.01162 3.53688V2.08549H0.560236V3.53688H2.01162ZM6.24822 17.923V16.4716H4.79684V17.923H6.24822ZM6.24822 26.6705V28.1219H7.69961V26.6705H6.24822ZM6.24822 14.2655H4.79684V15.7169H6.24822V14.2655ZM6.24822 7.19437V5.74298H4.79684V7.19437H6.24822ZM3.46301 26.6705V3.53688H0.560236V26.6705H3.46301ZM2.01162 4.98826H18.5313V2.08549H2.01162V4.98826ZM18.5313 4.98826C20.1346 4.98826 21.0686 5.3144 21.5809 5.72303C22.0306 6.08171 22.3528 6.66274 22.3528 7.743H25.2556C25.2556 6.01917 24.699 4.49714 23.3911 3.45378C22.1457 2.46038 20.4433 2.08549 18.5313 2.08549V4.98826ZM22.3528 7.743V13.7169H25.2556V7.743H22.3528ZM22.3528 13.7169C22.3528 14.7972 22.0306 15.3782 21.5809 15.7369C21.0686 16.1455 20.1346 16.4716 18.5313 16.4716V19.3744C20.4433 19.3744 22.1457 18.9995 23.3911 18.0061C24.699 16.9628 25.2556 15.4407 25.2556 13.7169H22.3528ZM18.5313 16.4716H6.24822V19.3744H18.5313V16.4716ZM4.79684 17.923V26.6705H7.69961V17.923H4.79684ZM6.24822 25.2192H2.01162V28.1219H6.24822V25.2192ZM6.24822 15.7169H18.1656V12.8141H6.24822V15.7169ZM18.1656 15.7169C18.7894 15.7169 19.5261 15.5977 20.1268 15.1145C20.7879 14.5828 21.019 13.8313 21.019 13.1378H18.1162C18.1162 13.178 18.1098 13.1464 18.1392 13.0755C18.1722 12.9958 18.2311 12.914 18.3074 12.8527C18.3772 12.7966 18.4236 12.7877 18.4031 12.7932C18.3797 12.7994 18.3067 12.8141 18.1656 12.8141V15.7169ZM21.019 13.1378V8.3221H18.1162V13.1378H21.019ZM21.019 8.3221C21.019 7.62858 20.7879 6.87711 20.1268 6.34536C19.5261 5.86218 18.7894 5.74298 18.1656 5.74298V8.64576C18.3067 8.64576 18.3797 8.66046 18.4031 8.66673C18.4236 8.67223 18.3772 8.66334 18.3074 8.60724C18.2311 8.54586 18.1722 8.46414 18.1392 8.38437C18.1098 8.31348 18.1162 8.28195 18.1162 8.3221H21.019ZM18.1656 5.74298H6.24822V8.64576H18.1656V5.74298ZM4.79684 7.19437V14.2655H7.69961V7.19437H4.79684Z" fill="white" mask="url(#path-1-outside-1_2034_70238)"/>
<mask id="path-3-outside-2_2034_70238" maskUnits="userSpaceOnUse" x="33.6758" y="2" width="28" height="27" fill="black">
<rect fill="white" x="33.6758" y="2" width="28" height="27"/>
<path d="M35.6874 26.6705V3.53688H52.2071C55.7224 3.53688 57.48 4.93892 57.48 7.743V13.1683C57.48 14.5703 57.0736 15.6168 56.2608 16.3076C55.4684 16.9985 54.1781 17.3541 52.39 17.3744L58.5163 26.6705H53.1215L46.9952 17.3744H39.924V26.6705H35.6874ZM39.924 13.7169H51.8413C52.776 13.7169 53.2434 13.341 53.2434 12.5892V8.3221C53.2434 7.57028 52.776 7.19437 51.8413 7.19437H39.924V13.7169Z"/>
</mask>
<path d="M35.6874 26.6705V3.53688H52.2071C55.7224 3.53688 57.48 4.93892 57.48 7.743V13.1683C57.48 14.5703 57.0736 15.6168 56.2608 16.3076C55.4684 16.9985 54.1781 17.3541 52.39 17.3744L58.5163 26.6705H53.1215L46.9952 17.3744H39.924V26.6705H35.6874ZM39.924 13.7169H51.8413C52.776 13.7169 53.2434 13.341 53.2434 12.5892V8.3221C53.2434 7.57028 52.776 7.19437 51.8413 7.19437H39.924V13.7169Z" fill="white"/>
<path d="M35.6874 26.6705H34.236V28.1219H35.6874V26.6705ZM35.6874 3.53688V2.08549H34.236V3.53688H35.6874ZM56.2608 16.3076L55.3208 15.2018L55.3139 15.2076L55.3071 15.2136L56.2608 16.3076ZM52.39 17.3744L52.3735 15.9231L49.7152 15.9533L51.1781 18.1731L52.39 17.3744ZM58.5163 26.6705V28.1219H61.211L59.7282 25.8719L58.5163 26.6705ZM53.1215 26.6705L51.9096 27.4692L52.3397 28.1219H53.1215V26.6705ZM46.9952 17.3744L48.2071 16.5757L47.7769 15.923H46.9952V17.3744ZM39.924 17.3744V15.923H38.4726V17.3744H39.924ZM39.924 26.6705V28.1219H41.3754V26.6705H39.924ZM39.924 13.7169H38.4726V15.1683H39.924V13.7169ZM39.924 7.19437V5.74298H38.4726V7.19437H39.924ZM37.1388 26.6705V3.53688H34.236V26.6705H37.1388ZM35.6874 4.98826H52.2071V2.08549H35.6874V4.98826ZM52.2071 4.98826C53.8104 4.98826 54.7444 5.3144 55.2567 5.72303C55.7063 6.08171 56.0286 6.66274 56.0286 7.743H58.9314C58.9314 6.01917 58.3748 4.49714 57.0668 3.45378C55.8215 2.46038 54.1191 2.08549 52.2071 2.08549V4.98826ZM56.0286 7.743V13.1683H58.9314V7.743H56.0286ZM56.0286 13.1683C56.0286 14.2873 55.7143 14.8674 55.3208 15.2018L57.2008 17.4135C58.4329 16.3662 58.9314 14.8534 58.9314 13.1683H56.0286ZM55.3071 15.2136C54.9034 15.5656 54.0382 15.9042 52.3735 15.9231L52.4065 18.8257C54.318 18.804 56.0334 18.4314 57.2146 17.4017L55.3071 15.2136ZM51.1781 18.1731L57.3044 27.4692L59.7282 25.8719L53.6019 16.5757L51.1781 18.1731ZM58.5163 25.2192H53.1215V28.1219H58.5163V25.2192ZM54.3334 25.8719L48.2071 16.5757L45.7833 18.1731L51.9096 27.4692L54.3334 25.8719ZM46.9952 15.923H39.924V18.8258H46.9952V15.923ZM38.4726 17.3744V26.6705H41.3754V17.3744H38.4726ZM39.924 25.2192H35.6874V28.1219H39.924V25.2192ZM39.924 15.1683H51.8413V12.2655H39.924V15.1683ZM51.8413 15.1683C52.4651 15.1683 53.2018 15.0491 53.8025 14.5659C54.4636 14.0342 54.6948 13.2827 54.6948 12.5892H51.792C51.792 12.6293 51.7856 12.5978 51.8149 12.5269C51.848 12.4471 51.9069 12.3654 51.9832 12.304C52.0529 12.2479 52.0994 12.2391 52.0789 12.2446C52.0555 12.2508 51.9825 12.2655 51.8413 12.2655V15.1683ZM54.6948 12.5892V8.3221H51.792V12.5892H54.6948ZM54.6948 8.3221C54.6948 7.62858 54.4636 6.87711 53.8025 6.34536C53.2018 5.86218 52.4651 5.74298 51.8413 5.74298V8.64576C51.9825 8.64576 52.0555 8.66046 52.0789 8.66673C52.0994 8.67223 52.0529 8.66334 51.9832 8.60724C51.9069 8.54586 51.848 8.46414 51.8149 8.38437C51.7856 8.31348 51.792 8.28195 51.792 8.3221H54.6948ZM51.8413 5.74298H39.924V8.64576H51.8413V5.74298ZM38.4726 7.19437V13.7169H41.3754V7.19437H38.4726Z" fill="white" mask="url(#path-3-outside-2_2034_70238)"/>
<path d="M93.5407 10.4242H78.6576C78.4256 11.1627 78.3006 11.9486 78.3006 12.7637V14.3235H93.8978V12.7637C93.8978 11.9486 93.7727 11.1627 93.5407 10.4242Z" fill="white"/>
<path d="M78.6576 10.4242H75.1811C72.5969 10.4242 70.502 12.7791 70.502 15.3633V17.9628C70.502 18.8242 71.2003 19.5225 72.0617 19.5225H73.6214C76.2056 19.5225 78.3006 17.4276 78.3006 14.8434V14.3235V12.7637C78.3006 11.9486 78.4256 11.1627 78.6576 10.4242Z" fill="white"/>
<path d="M97.0172 10.4242H93.5407C93.7727 11.1627 93.8978 11.9486 93.8978 12.7637V14.3235V14.8434C93.8978 17.4276 95.9927 19.5225 98.5769 19.5225H100.137C100.998 19.5225 101.696 18.8242 101.696 17.9628V15.3633C101.696 12.7791 99.6014 10.4242 97.0172 10.4242Z" fill="white"/>
<path d="M93.8978 18.916H78.3006C77.7263 18.916 77.0008 18.9483 77.0008 19.5225V21.6022C77.0008 22.1764 77.7263 22.642 78.3006 22.642H93.8978C94.472 22.642 95.1975 22.1764 95.1975 21.6022V20.5624V19.5225C95.1975 18.9483 94.472 18.916 93.8978 18.916Z" fill="white"/>
<path d="M87.139 26.2813C87.139 26.8556 86.6734 27.3211 86.0992 27.3211C85.5249 27.3211 85.0593 26.8556 85.0593 26.2813C85.0593 25.7071 85.5249 25.2415 86.0992 25.2415C86.6734 25.2415 87.139 25.7071 87.139 26.2813Z" fill="white"/>
<path d="M78.6576 10.4242H93.5407M78.6576 10.4242H75.1811C72.5969 10.4242 70.502 12.7791 70.502 15.3633V17.9628C70.502 18.8242 71.2003 19.5225 72.0617 19.5225H73.6214C76.2056 19.5225 78.3006 17.4276 78.3006 14.8434M78.6576 10.4242C78.4256 11.1627 78.3006 11.9486 78.3006 12.7637M78.6576 10.4242C79.2794 8.44439 80.6695 6.80482 82.4784 5.85485M93.5407 10.4242H97.0172C99.6014 10.4242 101.696 12.7791 101.696 15.3633V17.9628C101.696 18.8242 100.998 19.5225 100.137 19.5225H98.5769C95.9927 19.5225 93.8978 17.4276 93.8978 14.8434M93.5407 10.4242C93.7727 11.1627 93.8978 11.9486 93.8978 12.7637M93.5407 10.4242C92.9189 8.44438 91.5289 6.80482 89.7199 5.85485M78.3006 14.3235H93.8978M78.3006 14.3235V12.7637M78.3006 14.3235V14.8434M93.8978 14.3235V12.7637M93.8978 14.3235V14.8434M86.0992 29.9207C81.7921 29.9207 78.3006 26.949 78.3006 22.642M86.0992 29.9207C90.4062 29.9207 93.8978 26.949 93.8978 22.642M86.0992 29.9207V32.0003M78.3006 22.642H93.8978M78.3006 22.642C77.7263 22.642 77.0008 22.1764 77.0008 21.6022V19.5225C77.0008 18.9483 77.7263 18.916 78.3006 18.916M93.8978 22.642C94.472 22.642 95.1975 22.1764 95.1975 21.6022V20.5624V19.5225C95.1975 18.9483 94.472 18.916 93.8978 18.916M86.0992 4.96514C84.7922 4.96514 83.5604 5.28664 82.4784 5.85485M86.0992 4.96514C87.4061 4.96514 88.638 5.28664 89.7199 5.85485M86.0992 4.96514L82.9797 1.8457M86.0992 4.96514L89.2186 1.8457M93.8978 12.7637C93.8978 9.76364 92.2037 7.1592 89.7199 5.85485M93.8978 12.7637V18.916M78.3006 12.7637C78.3006 9.76364 79.9946 7.15921 82.4784 5.85485M78.3006 12.7637V18.916M93.8978 18.916H78.3006M93.8978 18.916V14.8434M78.3006 18.916V14.8434M87.139 26.2813C87.139 26.8556 86.6734 27.3211 86.0992 27.3211C85.5249 27.3211 85.0593 26.8556 85.0593 26.2813C85.0593 25.7071 85.5249 25.2415 86.0992 25.2415C86.6734 25.2415 87.139 25.7071 87.139 26.2813Z" stroke="white" stroke-width="1.55972" stroke-linecap="round" stroke-linejoin="round"/>
<mask id="path-7-outside-3_2034_70238" maskUnits="userSpaceOnUse" x="110.559" y="2" width="26" height="27" fill="black">
<rect fill="white" x="110.559" y="2" width="26" height="27"/>
<path d="M112.57 26.6705V3.53688H128.785C132.3 3.53688 134.058 4.93892 134.058 7.743V10.5166C134.058 12.3453 133.296 13.5848 131.772 14.2351C133.52 14.8243 134.393 16.1044 134.393 18.0754V22.4644C134.393 25.2685 132.646 26.6705 129.151 26.6705H112.57ZM116.807 23.0435H128.755C129.689 23.0435 130.157 22.6676 130.157 21.9158V17.2525C130.157 16.521 129.689 16.1552 128.755 16.1552H116.807V23.0435ZM116.807 12.5282H128.419C129.354 12.5282 129.821 12.1523 129.821 11.4005V8.29162C129.821 7.5398 129.354 7.16389 128.419 7.16389H116.807V12.5282Z"/>
</mask>
<path d="M112.57 26.6705V3.53688H128.785C132.3 3.53688 134.058 4.93892 134.058 7.743V10.5166C134.058 12.3453 133.296 13.5848 131.772 14.2351C133.52 14.8243 134.393 16.1044 134.393 18.0754V22.4644C134.393 25.2685 132.646 26.6705 129.151 26.6705H112.57ZM116.807 23.0435H128.755C129.689 23.0435 130.157 22.6676 130.157 21.9158V17.2525C130.157 16.521 129.689 16.1552 128.755 16.1552H116.807V23.0435ZM116.807 12.5282H128.419C129.354 12.5282 129.821 12.1523 129.821 11.4005V8.29162C129.821 7.5398 129.354 7.16389 128.419 7.16389H116.807V12.5282Z" fill="white"/>
<path d="M112.57 26.6705H111.119V28.1219H112.57V26.6705ZM112.57 3.53688V2.08549H111.119V3.53688H112.57ZM131.772 14.2351L131.202 12.9001L127.701 14.394L131.308 15.6104L131.772 14.2351ZM116.807 23.0435H115.355V24.4949H116.807V23.0435ZM116.807 16.1552V14.7039H115.355V16.1552H116.807ZM116.807 12.5282H115.355V13.9796H116.807V12.5282ZM116.807 7.16389V5.71251H115.355V7.16389H116.807ZM114.022 26.6705V3.53688H111.119V26.6705H114.022ZM112.57 4.98826H128.785V2.08549H112.57V4.98826ZM128.785 4.98826C130.388 4.98826 131.322 5.3144 131.835 5.72303C132.284 6.08171 132.607 6.66274 132.607 7.743H135.509C135.509 6.01917 134.953 4.49714 133.645 3.45378C132.399 2.46038 130.697 2.08549 128.785 2.08549V4.98826ZM132.607 7.743V10.5166H135.509V7.743H132.607ZM132.607 10.5166C132.607 11.231 132.459 11.7185 132.25 12.0577C132.048 12.3868 131.728 12.6759 131.202 12.9001L132.342 15.57C133.34 15.1439 134.163 14.4882 134.723 13.5779C135.276 12.6775 135.509 11.631 135.509 10.5166H132.607ZM131.308 15.6104C131.942 15.8239 132.312 16.1227 132.539 16.4553C132.772 16.7962 132.942 17.3027 132.942 18.0754H135.845C135.845 16.8772 135.578 15.7581 134.937 14.8189C134.29 13.8713 133.35 13.2355 132.236 12.8598L131.308 15.6104ZM132.942 18.0754V22.4644H135.845V18.0754H132.942ZM132.942 22.4644C132.942 23.5476 132.62 24.1293 132.174 24.487C131.668 24.8936 130.743 25.2192 129.151 25.2192V28.1219C131.054 28.1219 132.75 27.7465 133.991 26.7511C135.293 25.7067 135.845 24.1853 135.845 22.4644H132.942ZM129.151 25.2192H112.57V28.1219H129.151V25.2192ZM116.807 24.4949H128.755V21.5921H116.807V24.4949ZM128.755 24.4949C129.378 24.4949 130.115 24.3757 130.716 23.8925C131.377 23.3608 131.608 22.6093 131.608 21.9158H128.705C128.705 21.9559 128.699 21.9244 128.728 21.8535C128.761 21.7738 128.82 21.692 128.896 21.6307C128.966 21.5746 129.013 21.5657 128.992 21.5712C128.969 21.5774 128.896 21.5921 128.755 21.5921V24.4949ZM131.608 21.9158V17.2525H128.705V21.9158H131.608ZM131.608 17.2525C131.608 16.5552 131.367 15.8083 130.701 15.2866C130.102 14.8178 129.372 14.7039 128.755 14.7039V17.6066C128.898 17.6066 128.975 17.6212 129.002 17.6282C129.026 17.6346 128.982 17.6273 128.912 17.5725C128.834 17.5121 128.771 17.4285 128.734 17.3412C128.7 17.2627 128.705 17.222 128.705 17.2525H131.608ZM128.755 14.7039H116.807V17.6066H128.755V14.7039ZM115.355 16.1552V23.0435H118.258V16.1552H115.355ZM116.807 13.9796H128.419V11.0768H116.807V13.9796ZM128.419 13.9796C129.043 13.9796 129.78 13.8604 130.381 13.3772C131.042 12.8455 131.273 12.094 131.273 11.4005H128.37C128.37 11.4406 128.364 11.4091 128.393 11.3382C128.426 11.2585 128.485 11.1767 128.561 11.1153C128.631 11.0593 128.677 11.0504 128.657 11.0559C128.634 11.0621 128.561 11.0768 128.419 11.0768V13.9796ZM131.273 11.4005V8.29162H128.37V11.4005H131.273ZM131.273 8.29162C131.273 7.5981 131.042 6.84664 130.381 6.31488C129.78 5.8317 129.043 5.71251 128.419 5.71251V8.61528C128.561 8.61528 128.634 8.62998 128.657 8.63625C128.677 8.64175 128.631 8.63286 128.561 8.57677C128.485 8.51538 128.426 8.43366 128.393 8.35389C128.364 8.283 128.37 8.25147 128.37 8.29162H131.273ZM128.419 5.71251H116.807V8.61528H128.419V5.71251ZM115.355 7.16389V12.5282H118.258V7.16389H115.355Z" fill="white" mask="url(#path-7-outside-3_2034_70238)"/>
<mask id="path-9-outside-4_2034_70238" maskUnits="userSpaceOnUse" x="147.385" y="2" width="24" height="27" fill="black">
<rect fill="white" x="147.385" y="2" width="24" height="27"/>
<path d="M149.396 26.6705V3.53688H169.878V7.16389H153.633V12.4977H169.025V16.1248H153.633V23.013H169.878V26.6705H149.396Z"/>
</mask>
<path d="M149.396 26.6705V3.53688H169.878V7.16389H153.633V12.4977H169.025V16.1248H153.633V23.013H169.878V26.6705H149.396Z" fill="white"/>
<path d="M149.396 26.6705H147.945V28.1219H149.396V26.6705ZM149.396 3.53688V2.08549H147.945V3.53688H149.396ZM169.878 3.53688H171.33V2.08549H169.878V3.53688ZM169.878 7.16389V8.61528H171.33V7.16389H169.878ZM153.633 7.16389V5.71251H152.182V7.16389H153.633ZM153.633 12.4977H152.182V13.9491H153.633V12.4977ZM169.025 12.4977H170.476V11.0464H169.025V12.4977ZM169.025 16.1248V17.5761H170.476V16.1248H169.025ZM153.633 16.1248V14.6734H152.182V16.1248H153.633ZM153.633 23.013H152.182V24.4644H153.633V23.013ZM169.878 23.013H171.33V21.5617H169.878V23.013ZM169.878 26.6705V28.1219H171.33V26.6705H169.878ZM150.848 26.6705V3.53688H147.945V26.6705H150.848ZM149.396 4.98826H169.878V2.08549H149.396V4.98826ZM168.427 3.53688V7.16389H171.33V3.53688H168.427ZM169.878 5.71251H153.633V8.61528H169.878V5.71251ZM152.182 7.16389V12.4977H155.084V7.16389H152.182ZM153.633 13.9491H169.025V11.0464H153.633V13.9491ZM167.574 12.4977V16.1248H170.476V12.4977H167.574ZM169.025 14.6734H153.633V17.5761H169.025V14.6734ZM152.182 16.1248V23.013H155.084V16.1248H152.182ZM153.633 24.4644H169.878V21.5617H153.633V24.4644ZM168.427 23.013V26.6705H171.33V23.013H168.427ZM169.878 25.2192H149.396V28.1219H169.878V25.2192Z" fill="white" mask="url(#path-9-outside-4_2034_70238)"/>
<mask id="path-11-outside-5_2034_70238" maskUnits="userSpaceOnUse" x="184.213" y="2" width="24" height="27" fill="black">
<rect fill="white" x="184.213" y="2" width="24" height="27"/>
<path d="M186.225 26.6705V3.53688H206.706V7.16389H190.461V12.4977H205.853V16.1248H190.461V23.013H206.706V26.6705H186.225Z"/>
</mask>
<path d="M186.225 26.6705V3.53688H206.706V7.16389H190.461V12.4977H205.853V16.1248H190.461V23.013H206.706V26.6705H186.225Z" fill="white"/>
<path d="M186.225 26.6705H184.773V28.1219H186.225V26.6705ZM186.225 3.53688V2.08549H184.773V3.53688H186.225ZM206.706 3.53688H208.158V2.08549H206.706V3.53688ZM206.706 7.16389V8.61528H208.158V7.16389H206.706ZM190.461 7.16389V5.71251H189.01V7.16389H190.461ZM190.461 12.4977H189.01V13.9491H190.461V12.4977ZM205.853 12.4977H207.304V11.0464H205.853V12.4977ZM205.853 16.1248V17.5761H207.304V16.1248H205.853ZM190.461 16.1248V14.6734H189.01V16.1248H190.461ZM190.461 23.013H189.01V24.4644H190.461V23.013ZM206.706 23.013H208.158V21.5617H206.706V23.013ZM206.706 26.6705V28.1219H208.158V26.6705H206.706ZM187.676 26.6705V3.53688H184.773V26.6705H187.676ZM186.225 4.98826H206.706V2.08549H186.225V4.98826ZM205.255 3.53688V7.16389H208.158V3.53688H205.255ZM206.706 5.71251H190.461V8.61528H206.706V5.71251ZM189.01 7.16389V12.4977H191.913V7.16389H189.01ZM190.461 13.9491H205.853V11.0464H190.461V13.9491ZM204.402 12.4977V16.1248H207.304V12.4977H204.402ZM205.853 14.6734H190.461V17.5761H205.853V14.6734ZM189.01 16.1248V23.013H191.913V16.1248H189.01ZM190.461 24.4644H206.706V21.5617H190.461V24.4644ZM205.255 23.013V26.6705H208.158V23.013H205.255ZM206.706 25.2192H186.225V28.1219H206.706V25.2192Z" fill="white" mask="url(#path-11-outside-5_2034_70238)"/>
</svg>
