<svg width="24" height="24" viewBox="0 0 24 24" fill="none" xmlns="http://www.w3.org/2000/svg">
<path d="M12 2C15.31 2 18 4.66 18 7.95C18 12.41 12 19 12 19C12 19 6 12.41 6 7.95C6 4.66 8.69 2 12 2ZM12 6C11.4696 6 10.9609 6.21071 10.5858 6.58579C10.2107 6.96086 10 7.46957 10 8C10 8.53043 10.2107 9.03914 10.5858 9.41421C10.9609 9.78929 11.4696 10 12 10C12.5304 10 13.0391 9.78929 13.4142 9.41421C13.7893 9.03914 14 8.53043 14 8C14 7.46957 13.7893 6.96086 13.4142 6.58579C13.0391 6.21071 12.5304 6 12 6ZM20 19C20 21.21 16.42 23 12 23C7.58 23 4 21.21 4 19C4 17.8026 5.05108 16.7259 6.71341 15.9937C6.94398 15.8921 7.21171 15.9746 7.35665 16.1807V16.1807C7.55855 16.4678 7.44008 16.865 7.13564 17.0397C6.42184 17.4491 6 17.9525 6 18.5C6 19.88 8.69 21 12 21C15.31 21 18 19.88 18 18.5C18 17.9525 17.5782 17.4491 16.8644 17.0397C16.5599 16.865 16.4414 16.4678 16.6433 16.1807V16.1807C16.7883 15.9746 17.056 15.8921 17.2866 15.9937C18.9489 16.7259 20 17.8026 20 19Z" fill="#007DFF"/>
</svg>
