<svg width="26" height="26" viewBox="0 0 26 26" fill="none" xmlns="http://www.w3.org/2000/svg">
<path d="M12.3338 22.7778V25H1.22266V15.2222M12.3338 22.7778H24.7782V3.22222H19.4449M12.3338 22.7778V15.2222M5.22266 10.3333H1.22266V15.2222M5.22266 10.3333H12.3338V15.2222M5.22266 10.3333V3.22222H10.556M10.556 3.22222H11.8893H12.7782V1H17.2227V3.22222H18.1115H19.4449M10.556 3.22222V6.77778H19.4449V3.22222M16.3338 10.7778V12.1111M20.3338 9.44444V12.1111M1.22266 15.2222H12.3338M21.2227 17C21.2227 18.4728 20.0287 19.6667 18.556 19.6667C17.0832 19.6667 15.8893 18.4728 15.8893 17C15.8893 15.5272 17.0832 14.3333 18.556 14.3333C20.0287 14.3333 21.2227 15.5272 21.2227 17Z" stroke="white" stroke-width="2" stroke-linecap="round" stroke-linejoin="round"/>
</svg>
